<svg id="svg" version="1.1" xmlns="http://www.w3.org/2000/svg" xmlns:xlink="http://www.w3.org/1999/xlink" width="400" height="133.33333333333334" viewBox="0, 0, 400,133.33333333333334"><g id="svgg"><path id="path0" d="M57.000 14.747 C 56.862 14.777,55.962 14.924,55.000 15.074 C 54.038 15.224,52.425 15.490,51.417 15.667 C 50.408 15.843,49.265 16.029,48.875 16.079 C 48.485 16.129,47.810 16.284,47.375 16.423 C 46.606 16.668,45.486 17.003,43.083 17.705 C 42.442 17.893,41.550 18.186,41.103 18.357 C 40.655 18.527,40.206 18.667,40.105 18.667 C 39.828 18.667,35.492 20.647,35.333 20.846 C 35.287 20.904,34.688 21.228,34.000 21.567 C 32.501 22.307,30.462 23.498,30.034 23.886 C 29.863 24.041,29.663 24.167,29.590 24.167 C 28.462 24.167,18.667 33.812,18.667 34.922 C 18.667 35.050,18.527 35.230,18.356 35.321 C 18.185 35.413,17.843 35.901,17.595 36.407 C 17.348 36.913,17.078 37.368,16.996 37.419 C 16.824 37.526,14.000 43.205,14.000 43.445 C 14.000 43.532,13.850 43.915,13.667 44.294 C 13.483 44.673,13.333 45.131,13.333 45.311 C 13.333 45.492,13.196 45.964,13.029 46.361 C 12.574 47.437,12.063 49.493,11.667 51.833 C 11.473 52.979,11.239 54.353,11.148 54.887 C 10.718 57.400,10.837 62.682,11.437 67.667 C 12.668 77.908,16.533 86.339,23.147 93.212 L 24.554 94.674 24.361 96.450 C 24.254 97.426,24.064 98.382,23.939 98.573 C 23.681 98.967,23.498 100.036,22.996 104.083 C 22.568 107.537,22.413 108.552,22.184 109.417 C 21.416 112.318,22.649 114.664,25.224 115.204 C 26.753 115.525,27.167 115.333,33.991 111.120 C 42.802 105.681,44.213 104.840,44.525 104.836 C 44.676 104.835,45.876 105.090,47.192 105.404 C 58.354 108.065,72.558 108.222,84.083 105.813 C 104.046 101.639,117.111 89.172,120.482 71.083 C 121.472 65.765,121.756 58.072,121.097 54.356 C 120.876 53.106,120.619 51.572,120.527 50.948 C 120.330 49.610,119.343 46.389,118.065 42.917 C 117.751 42.062,115.829 38.110,115.674 38.000 C 115.610 37.954,115.339 37.504,115.071 37.000 C 114.804 36.496,114.543 36.046,114.490 36.000 C 114.438 35.954,114.111 35.485,113.764 34.958 C 113.418 34.431,113.074 34.000,113.000 34.000 C 112.926 34.000,112.727 33.738,112.558 33.417 C 111.768 31.922,106.194 26.380,104.391 25.298 C 104.130 25.142,103.467 24.677,102.917 24.265 C 102.367 23.853,101.729 23.412,101.500 23.285 C 101.271 23.158,100.783 22.882,100.417 22.671 C 100.050 22.460,99.263 22.026,98.667 21.706 C 98.071 21.386,97.487 21.047,97.368 20.953 C 97.080 20.723,95.510 20.000,95.299 20.000 C 95.207 20.000,94.633 19.762,94.024 19.470 C 92.765 18.868,91.163 18.267,89.861 17.909 C 89.373 17.774,88.834 17.589,88.664 17.499 C 88.494 17.408,88.207 17.333,88.026 17.333 C 87.845 17.333,87.021 17.113,86.195 16.843 C 84.661 16.341,84.233 16.249,80.750 15.673 C 75.139 14.744,75.597 14.773,66.167 14.731 C 61.262 14.709,57.137 14.716,57.000 14.747 M190.333 14.754 C 190.196 14.780,189.296 14.924,188.333 15.074 C 187.371 15.224,185.758 15.490,184.750 15.667 C 183.742 15.843,182.598 16.029,182.208 16.079 C 181.819 16.129,181.144 16.284,180.708 16.423 C 179.939 16.668,178.819 17.003,176.417 17.705 C 175.775 17.893,174.884 18.186,174.436 18.357 C 173.988 18.527,173.540 18.667,173.439 18.667 C 173.161 18.667,168.825 20.647,168.667 20.846 C 168.621 20.904,168.021 21.228,167.333 21.567 C 165.834 22.307,163.796 23.498,163.367 23.886 C 163.196 24.041,162.997 24.167,162.923 24.167 C 161.796 24.167,152.000 33.812,152.000 34.922 C 152.000 35.050,151.860 35.230,151.689 35.321 C 151.518 35.413,151.176 35.901,150.929 36.407 C 150.681 36.913,150.411 37.368,150.329 37.419 C 150.157 37.526,147.333 43.205,147.333 43.445 C 147.333 43.532,147.183 43.915,147.000 44.294 C 146.817 44.673,146.667 45.131,146.667 45.311 C 146.667 45.492,146.530 45.964,146.362 46.361 C 145.908 47.437,145.396 49.493,145.000 51.833 C 144.806 52.979,144.573 54.353,144.481 54.887 C 144.051 57.400,144.171 62.682,144.770 67.667 C 146.001 77.908,149.866 86.339,156.481 93.212 L 157.888 94.674 157.694 96.450 C 157.587 97.426,157.398 98.382,157.272 98.573 C 157.014 98.967,156.831 100.036,156.329 104.083 C 155.901 107.537,155.747 108.552,155.518 109.417 C 154.750 112.318,155.982 114.664,158.557 115.204 C 160.087 115.525,160.500 115.333,167.324 111.120 C 176.136 105.681,177.546 104.840,177.858 104.836 C 178.010 104.835,179.210 105.090,180.525 105.404 C 190.576 107.800,203.295 108.182,214.167 106.413 C 236.047 102.854,250.254 90.194,253.815 71.083 C 254.806 65.765,255.089 58.072,254.431 54.356 C 254.209 53.106,253.953 51.572,253.860 50.948 C 253.663 49.610,252.676 46.389,251.399 42.917 C 251.084 42.062,249.162 38.110,249.008 38.000 C 248.943 37.954,248.672 37.504,248.405 37.000 C 248.138 36.496,247.876 36.046,247.824 36.000 C 247.771 35.954,247.444 35.485,247.098 34.958 C 246.751 34.431,246.407 34.000,246.333 34.000 C 246.260 34.000,246.061 33.738,245.891 33.417 C 245.102 31.922,239.527 26.380,237.725 25.298 C 237.464 25.142,236.800 24.677,236.250 24.265 C 235.700 23.853,235.063 23.412,234.833 23.285 C 234.604 23.158,234.117 22.882,233.750 22.671 C 233.383 22.460,232.596 22.026,232.000 21.706 C 231.404 21.386,230.820 21.047,230.702 20.953 C 230.414 20.723,228.844 20.000,228.633 20.000 C 228.542 20.000,227.835 19.700,227.063 19.333 C 226.292 18.967,225.582 18.667,225.486 18.667 C 225.390 18.667,224.960 18.528,224.531 18.359 C 223.682 18.024,221.668 17.401,221.000 17.266 C 220.771 17.220,219.721 16.920,218.667 16.599 C 217.612 16.278,216.525 16.012,216.250 16.008 C 215.975 16.004,215.150 15.881,214.417 15.735 C 209.912 14.841,207.433 14.676,198.750 14.691 C 194.258 14.699,190.471 14.727,190.333 14.754 M323.667 14.748 C 323.529 14.778,322.629 14.924,321.667 15.074 C 320.704 15.224,319.092 15.490,318.083 15.667 C 317.075 15.843,315.931 16.029,315.542 16.079 C 315.152 16.129,314.477 16.284,314.042 16.423 C 313.272 16.668,312.152 17.003,309.750 17.705 C 309.108 17.893,308.217 18.186,307.769 18.357 C 307.322 18.527,306.873 18.667,306.772 18.667 C 306.495 18.667,302.159 20.647,302.000 20.846 C 301.954 20.904,301.354 21.228,300.667 21.567 C 299.167 22.307,297.129 23.498,296.700 23.886 C 296.530 24.041,296.330 24.167,296.256 24.167 C 295.129 24.167,285.333 33.812,285.333 34.922 C 285.333 35.050,285.194 35.230,285.023 35.321 C 284.852 35.413,284.509 35.901,284.262 36.407 C 284.014 36.913,283.745 37.368,283.662 37.419 C 283.490 37.526,280.667 43.205,280.667 43.445 C 280.667 43.532,280.517 43.915,280.333 44.294 C 280.150 44.673,280.000 45.131,280.000 45.311 C 280.000 45.492,279.863 45.964,279.695 46.361 C 279.241 47.437,278.729 49.493,278.333 51.833 C 278.139 52.979,277.906 54.353,277.815 54.887 C 277.385 57.400,277.504 62.682,278.103 67.667 C 279.334 77.908,283.200 86.339,289.814 93.212 L 291.221 94.674 291.027 96.450 C 290.921 97.426,290.731 98.382,290.606 98.573 C 290.347 98.967,290.165 100.036,289.663 104.083 C 289.235 107.537,289.080 108.552,288.851 109.417 C 288.083 112.318,289.315 114.664,291.890 115.204 C 293.420 115.525,293.834 115.333,300.658 111.120 C 309.469 105.681,310.880 104.840,311.192 104.836 C 311.343 104.835,312.543 105.090,313.858 105.404 C 327.736 108.712,345.008 108.135,357.667 103.939 C 373.698 98.625,384.196 86.925,387.148 71.083 C 388.139 65.766,388.422 58.072,387.764 54.356 C 387.542 53.106,387.286 51.572,387.194 50.948 C 386.996 49.610,386.009 46.389,384.732 42.917 C 384.390 41.987,382.488 38.102,382.323 37.997 C 382.248 37.949,382.109 37.724,382.013 37.497 C 381.665 36.669,379.873 34.000,379.667 34.000 C 379.593 34.000,379.394 33.738,379.225 33.417 C 378.435 31.922,372.861 26.380,371.058 25.298 C 370.797 25.142,370.133 24.677,369.583 24.265 C 369.033 23.853,368.396 23.412,368.167 23.285 C 367.938 23.158,367.450 22.882,367.083 22.671 C 366.717 22.460,365.929 22.026,365.333 21.706 C 364.738 21.386,364.153 21.047,364.035 20.953 C 363.746 20.723,362.177 20.000,361.966 20.000 C 361.873 20.000,361.299 19.762,360.690 19.470 C 359.432 18.868,357.830 18.267,356.528 17.909 C 356.039 17.774,355.500 17.589,355.331 17.499 C 355.161 17.408,354.874 17.333,354.693 17.333 C 354.512 17.333,353.688 17.113,352.862 16.843 C 351.322 16.340,350.869 16.242,347.417 15.675 C 346.317 15.495,344.629 15.216,343.667 15.056 C 342.080 14.793,324.698 14.525,323.667 14.748 M75.833 19.325 C 96.372 21.780,110.319 31.949,115.302 48.105 C 117.923 56.600,117.851 67.146,115.114 75.833 C 110.571 90.252,97.179 100.109,78.667 102.659 C 68.850 104.012,52.477 103.337,47.333 101.368 C 44.315 100.212,43.732 100.367,38.250 103.777 C 26.244 111.246,26.500 111.100,26.500 110.505 C 26.500 110.325,26.685 108.881,26.912 107.297 C 27.263 104.839,27.959 99.683,28.246 97.417 C 28.292 97.050,28.405 95.930,28.497 94.928 L 28.664 93.107 26.702 91.095 C 18.771 82.964,15.178 73.681,15.115 61.167 C 15.009 39.772,28.788 24.250,51.583 20.087 C 58.596 18.807,68.807 18.486,75.833 19.325 M205.094 18.998 C 227.458 20.239,243.309 30.836,248.636 48.105 C 251.256 56.600,251.184 67.146,248.447 75.833 C 243.897 90.273,230.617 100.045,212.000 102.651 C 202.257 104.015,185.823 103.342,180.667 101.368 C 177.648 100.212,177.065 100.367,171.583 103.777 C 159.577 111.246,159.833 111.100,159.833 110.505 C 159.833 110.325,160.019 108.881,160.245 107.297 C 160.597 104.839,161.293 99.683,161.579 97.417 C 161.625 97.050,161.738 95.930,161.830 94.928 L 161.997 93.107 160.035 91.095 C 152.105 82.964,148.511 73.681,148.449 61.167 C 148.328 36.876,166.655 20.013,194.333 18.948 C 197.409 18.829,202.487 18.853,205.094 18.998 M338.583 19.004 C 363.640 20.599,379.821 33.217,383.358 53.917 C 384.271 59.264,383.864 68.245,382.473 73.417 C 377.697 91.174,362.656 101.678,339.846 103.184 C 330.528 103.799,318.064 102.923,314.000 101.368 C 310.982 100.212,310.399 100.367,304.917 103.777 C 292.911 111.246,293.167 111.100,293.167 110.505 C 293.167 110.325,293.352 108.881,293.579 107.297 C 293.930 104.839,294.626 99.683,294.912 97.417 C 294.959 97.050,295.072 95.930,295.164 94.928 L 295.331 93.107 293.368 91.095 C 285.438 82.964,281.844 73.681,281.782 61.167 C 281.661 36.876,299.989 20.013,327.667 18.948 C 330.898 18.823,336.171 18.851,338.583 19.004 M37.167 45.094 C 33.017 45.992,28.483 49.911,26.865 54.000 C 24.766 59.301,25.487 64.562,29.009 69.653 C 30.028 71.127,30.123 71.500,29.480 71.500 C 28.923 71.500,27.320 72.374,26.512 73.118 C 25.680 73.885,25.746 73.972,26.854 73.567 C 30.250 72.328,35.909 73.606,39.189 76.352 L 40.000 77.031 39.999 76.391 C 39.996 74.137,38.190 72.318,35.063 71.418 C 34.249 71.184,33.380 70.844,33.132 70.663 C 32.883 70.482,32.617 70.333,32.539 70.333 C 32.361 70.333,31.356 69.302,31.105 68.863 C 31.002 68.681,30.448 67.845,29.875 67.005 C 29.302 66.165,28.832 65.352,28.831 65.197 C 28.830 65.043,28.685 64.458,28.510 63.898 C 25.143 53.160,36.413 43.178,46.364 48.086 C 48.140 48.962,48.129 49.000,46.075 49.003 C 39.477 49.015,34.892 53.218,34.557 59.560 C 33.900 71.976,50.106 76.206,54.846 64.856 C 58.072 57.131,52.596 46.822,44.345 45.086 C 42.813 44.763,38.673 44.768,37.167 45.094 M88.039 45.019 C 77.928 46.703,72.542 61.016,79.313 68.207 C 82.757 71.864,86.832 72.541,91.467 70.227 C 101.999 64.967,97.710 48.338,85.958 48.870 C 84.224 48.949,84.166 48.852,85.542 48.176 C 88.023 46.958,92.524 46.370,93.894 47.084 C 94.157 47.221,94.479 47.333,94.612 47.333 C 95.052 47.333,97.167 48.316,98.100 48.954 C 98.607 49.300,99.174 49.669,99.360 49.773 C 99.788 50.014,101.000 51.191,101.000 51.367 C 101.000 51.440,101.255 51.856,101.566 52.291 C 104.871 56.920,104.939 63.204,101.731 67.709 C 101.420 68.144,101.167 68.566,101.167 68.646 C 101.167 69.262,98.761 70.811,97.000 71.327 C 94.347 72.105,92.757 73.413,92.095 75.360 C 91.541 76.990,91.854 77.180,93.207 76.036 C 95.348 74.226,97.970 73.316,101.333 73.216 C 103.707 73.145,103.929 73.172,105.811 73.759 C 107.195 74.191,104.799 72.215,103.250 71.648 C 101.926 71.163,101.863 71.090,102.300 70.542 C 105.316 66.754,106.173 64.477,106.173 60.250 C 106.173 50.189,98.035 43.353,88.039 45.019 M303.833 45.094 C 299.684 45.992,295.150 49.911,293.531 54.000 C 291.433 59.301,292.153 64.562,295.676 69.653 C 296.695 71.127,296.790 71.500,296.146 71.500 C 295.589 71.500,293.987 72.374,293.178 73.118 C 292.346 73.885,292.412 73.972,293.521 73.567 C 296.917 72.328,302.576 73.606,305.856 76.352 L 306.667 77.031 306.666 76.391 C 306.662 74.137,304.857 72.318,301.730 71.418 C 300.916 71.184,300.047 70.844,299.798 70.663 C 299.550 70.482,299.284 70.333,299.206 70.333 C 299.028 70.333,298.023 69.302,297.772 68.863 C 297.668 68.681,297.115 67.845,296.542 67.005 C 295.969 66.165,295.499 65.352,295.498 65.197 C 295.497 65.043,295.352 64.458,295.176 63.898 C 291.809 53.160,303.080 43.178,313.030 48.086 C 314.807 48.962,314.795 49.000,312.742 49.003 C 306.143 49.015,301.558 53.218,301.223 59.560 C 300.567 71.976,316.773 76.206,321.513 64.856 C 324.739 57.131,319.263 46.822,311.011 45.086 C 309.479 44.763,305.340 44.768,303.833 45.094 M354.705 45.019 C 344.595 46.703,339.209 61.016,345.980 68.207 C 349.424 71.864,353.499 72.541,358.134 70.227 C 368.666 64.967,364.376 48.338,352.625 48.870 C 350.890 48.949,350.832 48.852,352.208 48.176 C 354.690 46.958,359.190 46.370,360.561 47.084 C 360.823 47.221,361.146 47.333,361.278 47.333 C 361.719 47.333,363.834 48.316,364.767 48.954 C 365.274 49.300,365.840 49.669,366.026 49.773 C 366.455 50.014,367.667 51.191,367.667 51.367 C 367.667 51.440,367.921 51.856,368.232 52.291 C 371.538 56.920,371.605 63.204,368.397 67.709 C 368.087 68.144,367.833 68.566,367.833 68.646 C 367.833 69.262,365.428 70.811,363.667 71.327 C 361.014 72.105,359.424 73.413,358.762 75.360 C 358.208 76.990,358.521 77.180,359.874 76.036 C 362.014 74.226,364.637 73.316,368.000 73.216 C 370.373 73.145,370.596 73.172,372.477 73.759 C 373.862 74.191,371.465 72.215,369.917 71.648 C 368.593 71.163,368.530 71.090,368.966 70.542 C 371.983 66.754,372.840 64.477,372.840 60.250 C 372.840 50.189,364.702 43.353,354.705 45.019 M42.630 52.758 C 45.048 53.767,45.519 57.000,43.473 58.549 C 41.194 60.273,38.353 58.930,38.197 56.054 C 38.055 53.450,40.295 51.785,42.630 52.758 M84.373 52.952 C 86.562 54.235,86.616 57.624,84.468 58.832 C 81.746 60.361,78.755 58.110,79.513 55.102 C 80.039 53.012,82.567 51.894,84.373 52.952 M309.297 52.758 C 311.715 53.767,312.185 57.000,310.139 58.549 C 307.861 60.273,305.020 58.930,304.863 56.054 C 304.721 53.450,306.962 51.785,309.297 52.758 M351.040 52.952 C 353.229 54.235,353.283 57.624,351.134 58.832 C 348.412 60.361,345.422 58.110,346.179 55.102 C 346.706 53.012,349.234 51.894,351.040 52.952 M162.159 58.399 C 159.525 59.259,161.124 64.475,165.171 68.219 C 173.195 75.644,187.070 72.184,190.067 62.011 C 191.211 58.128,187.486 56.544,186.240 60.384 C 182.979 70.437,167.624 70.219,164.852 60.081 C 164.469 58.680,163.381 58.000,162.159 58.399 M211.032 58.559 C 208.174 60.145,211.732 67.241,216.833 70.130 C 225.830 75.224,237.823 70.263,239.410 60.791 C 239.901 57.862,236.330 57.380,235.397 60.250 C 232.133 70.280,216.958 70.323,214.103 60.310 C 213.610 58.581,212.318 57.845,211.032 58.559 M50.049 64.503 C 51.377 65.548,50.768 67.500,49.113 67.500 C 48.367 67.500,47.333 66.634,47.333 66.008 C 47.333 64.632,49.023 63.695,50.049 64.503 M91.171 64.451 C 92.550 65.401,92.180 67.229,90.565 67.446 C 88.979 67.658,88.101 65.719,89.298 64.650 C 89.916 64.097,90.559 64.029,91.171 64.451 M316.715 64.503 C 318.044 65.548,317.434 67.500,315.780 67.500 C 315.033 67.500,314.000 66.634,314.000 66.008 C 314.000 64.632,315.689 63.695,316.715 64.503 M357.838 64.451 C 359.216 65.401,358.846 67.229,357.232 67.446 C 355.646 67.658,354.767 65.719,355.965 64.650 C 356.583 64.097,357.226 64.029,357.838 64.451 M59.242 68.242 C 57.964 69.521,59.786 72.634,62.634 74.038 C 64.536 74.976,68.406 74.870,70.081 73.835 C 73.003 72.029,74.334 67.944,72.000 67.944 C 71.358 67.944,70.906 68.368,70.395 69.446 C 68.918 72.569,63.740 72.835,62.029 69.876 C 60.962 68.030,60.012 67.473,59.242 68.242 M325.909 68.242 C 324.630 69.521,326.453 72.634,329.301 74.038 C 331.230 74.988,335.141 74.877,336.704 73.827 C 338.645 72.523,339.833 70.838,339.833 69.390 C 339.833 67.538,337.957 67.379,337.211 69.167 C 335.820 72.500,330.472 72.947,328.698 69.879 C 327.628 68.030,326.679 67.473,325.909 68.242 M193.719 69.001 C 192.545 69.474,192.865 71.886,194.324 73.547 C 198.239 78.006,206.507 76.365,207.512 70.929 C 207.948 68.569,206.034 68.081,204.845 70.249 C 202.683 74.188,197.873 74.218,195.902 70.305 C 195.211 68.933,194.679 68.615,193.719 69.001 M163.833 72.402 C 162.492 72.705,161.158 73.410,160.331 74.252 C 159.611 74.986,159.512 75.351,160.120 75.025 C 163.210 73.371,169.803 74.757,173.147 77.764 C 174.172 78.686,174.227 78.682,174.131 77.691 C 173.769 73.918,168.683 71.306,163.833 72.402 M232.021 72.430 C 228.893 73.271,226.506 75.554,226.502 77.708 C 226.500 78.704,226.475 78.709,227.848 77.438 C 230.661 74.833,236.654 73.509,239.823 74.792 C 241.014 75.274,241.023 75.207,239.900 74.181 C 237.909 72.360,234.826 71.675,232.021 72.430 " stroke="none" fill="#0c0404" fill-rule="evenodd"></path><path id="path1" d="M59.417 19.177 C 42.958 20.214,29.234 27.030,22.152 37.683 C 20.559 40.080,20.543 40.108,19.416 42.333 C 14.217 52.607,13.763 66.896,18.275 78.333 C 20.079 82.909,22.721 86.855,26.724 90.953 L 28.713 92.990 28.601 94.620 C 28.476 96.451,28.095 99.483,27.164 106.083 C 26.814 108.558,26.560 110.615,26.599 110.654 C 26.682 110.738,27.755 110.188,28.917 109.465 C 29.375 109.180,31.100 108.107,32.750 107.080 C 44.248 99.925,43.858 100.092,46.694 101.093 C 52.979 103.310,68.964 103.991,79.250 102.479 C 104.449 98.775,118.372 82.590,117.010 58.583 C 115.491 31.827,93.832 17.007,59.417 19.177 M192.750 19.177 C 176.292 20.214,162.568 27.030,155.486 37.683 C 153.892 40.080,153.876 40.108,152.750 42.333 C 147.550 52.607,147.097 66.896,151.608 78.333 C 153.413 82.909,156.055 86.855,160.057 90.953 L 162.046 92.990 161.935 94.620 C 161.809 96.451,161.429 99.483,160.497 106.083 C 160.147 108.558,159.893 110.615,159.932 110.654 C 160.016 110.738,161.088 110.188,162.250 109.465 C 162.708 109.180,164.433 108.107,166.083 107.080 C 177.581 99.925,177.192 100.092,180.028 101.093 C 186.449 103.359,202.640 104.002,213.000 102.404 C 238.002 98.546,251.699 82.473,250.343 58.583 C 248.824 31.809,227.188 17.006,192.750 19.177 M326.083 19.177 C 309.625 20.214,295.901 27.030,288.819 37.683 C 287.225 40.080,287.209 40.108,286.083 42.333 C 280.883 52.607,280.430 66.896,284.941 78.333 C 286.746 82.909,289.388 86.855,293.390 90.953 L 295.380 92.990 295.268 94.620 C 295.142 96.451,294.762 99.483,293.830 106.083 C 293.481 108.558,293.227 110.615,293.265 110.654 C 293.349 110.738,294.421 110.188,295.583 109.465 C 296.042 109.180,297.767 108.107,299.417 107.080 C 310.914 99.925,310.525 100.092,313.361 101.093 C 319.910 103.404,336.523 104.013,346.931 102.324 C 371.504 98.336,385.020 82.248,383.676 58.583 C 382.157 31.820,360.508 17.007,326.083 19.177 M45.093 45.181 C 54.827 48.184,59.205 60.758,53.032 67.985 C 51.518 69.757,48.513 71.489,46.935 71.498 C 46.762 71.499,46.534 71.617,46.429 71.761 C 45.875 72.519,41.388 73.313,39.298 73.023 L 38.347 72.891 38.910 73.514 C 39.673 74.360,39.828 74.687,40.016 75.850 C 40.226 77.156,40.103 77.299,39.354 76.622 C 36.034 73.622,31.105 72.467,26.797 73.678 C 26.365 73.800,25.952 73.840,25.880 73.766 C 25.568 73.447,28.229 71.664,29.375 71.423 C 29.999 71.292,29.960 71.118,29.026 69.838 C 22.376 60.723,25.961 48.657,36.333 45.243 C 38.372 44.572,43.011 44.539,45.093 45.181 M94.917 45.100 C 105.614 47.657,109.980 61.397,102.826 69.993 C 101.822 71.199,101.822 71.101,102.827 71.399 C 104.637 71.937,106.996 73.833,105.854 73.833 C 105.682 73.833,105.271 73.721,104.942 73.583 C 104.090 73.227,99.575 73.234,98.322 73.593 C 96.168 74.210,94.304 75.165,92.934 76.353 C 92.577 76.663,92.202 76.917,92.101 76.917 C 91.557 76.917,91.937 75.034,92.691 73.993 C 93.315 73.131,93.347 73.167,91.954 73.167 C 90.022 73.167,88.028 72.854,86.500 72.311 C 85.721 72.034,84.596 71.635,84.000 71.424 C 73.296 67.629,73.697 51.631,84.634 46.099 C 87.286 44.758,91.695 44.329,94.917 45.100 M311.759 45.181 C 321.494 48.184,325.872 60.758,319.699 67.985 C 318.185 69.757,315.179 71.489,313.602 71.498 C 313.428 71.499,313.201 71.617,313.096 71.761 C 312.542 72.519,308.055 73.313,305.965 73.023 L 305.013 72.891 305.576 73.514 C 306.340 74.360,306.495 74.687,306.682 75.850 C 306.893 77.156,306.770 77.299,306.021 76.622 C 302.700 73.622,297.772 72.467,293.464 73.678 C 293.031 73.800,292.619 73.840,292.547 73.766 C 292.235 73.447,294.895 71.664,296.042 71.423 C 296.665 71.292,296.627 71.118,295.693 69.838 C 289.043 60.723,292.627 48.657,303.000 45.243 C 305.039 44.572,309.678 44.539,311.759 45.181 M361.583 45.100 C 372.281 47.657,376.646 61.397,369.492 69.993 C 368.489 71.199,368.489 71.101,369.493 71.399 C 371.304 71.937,373.662 73.833,372.520 73.833 C 372.348 73.833,371.938 73.721,371.609 73.583 C 370.752 73.225,366.238 73.233,364.989 73.596 C 362.707 74.257,361.026 75.117,359.601 76.353 C 359.244 76.663,358.869 76.917,358.768 76.917 C 358.224 76.917,358.603 75.034,359.357 73.993 C 359.982 73.131,360.014 73.167,358.621 73.167 C 356.688 73.167,354.695 72.854,353.167 72.311 C 352.387 72.034,351.262 71.635,350.667 71.424 C 339.068 67.312,340.813 49.445,353.218 45.307 C 355.109 44.676,359.370 44.571,361.583 45.100 M45.211 48.953 C 45.464 48.991,45.839 48.990,46.044 48.951 C 46.249 48.911,46.042 48.880,45.583 48.881 C 45.125 48.882,44.957 48.915,45.211 48.953 M311.877 48.953 C 312.131 48.991,312.506 48.990,312.711 48.951 C 312.916 48.911,312.708 48.880,312.250 48.881 C 311.792 48.882,311.624 48.915,311.877 48.953 M90.333 49.422 C 90.333 49.461,90.651 49.656,91.040 49.854 C 91.547 50.113,91.686 50.141,91.531 49.954 C 91.327 49.708,90.333 49.267,90.333 49.422 M357.000 49.422 C 357.000 49.461,357.318 49.656,357.707 49.854 C 358.214 50.113,358.353 50.141,358.197 49.954 C 357.994 49.708,357.000 49.267,357.000 49.422 M100.083 50.667 C 100.441 51.033,100.772 51.333,100.818 51.333 C 100.863 51.333,100.608 51.033,100.250 50.667 C 99.892 50.300,99.562 50.000,99.516 50.000 C 99.470 50.000,99.725 50.300,100.083 50.667 M366.750 50.667 C 367.108 51.033,367.438 51.333,367.484 51.333 C 367.530 51.333,367.275 51.033,366.917 50.667 C 366.559 50.300,366.228 50.000,366.182 50.000 C 366.137 50.000,366.392 50.300,366.750 50.667 M38.000 51.750 C 37.595 52.163,37.301 52.500,37.347 52.500 C 37.393 52.500,37.762 52.163,38.167 51.750 C 38.572 51.337,38.865 51.000,38.819 51.000 C 38.774 51.000,38.405 51.337,38.000 51.750 M304.667 51.750 C 304.262 52.163,303.968 52.500,304.014 52.500 C 304.060 52.500,304.428 52.163,304.833 51.750 C 305.238 51.337,305.532 51.000,305.486 51.000 C 305.440 51.000,305.072 51.337,304.667 51.750 M163.839 58.419 C 164.383 58.701,164.649 59.143,165.219 60.714 C 168.665 70.209,183.147 70.006,186.109 60.422 C 186.595 58.850,187.408 58.099,188.510 58.205 C 193.204 58.656,189.100 67.482,182.750 70.592 C 174.264 74.749,164.364 71.075,161.166 62.583 C 160.044 59.605,161.561 57.242,163.839 58.419 M212.906 58.329 C 213.445 58.534,213.914 59.291,214.332 60.631 C 217.298 70.132,231.818 70.041,235.181 60.500 C 235.810 58.716,236.355 58.167,237.500 58.167 C 241.310 58.167,239.286 65.135,234.343 69.038 C 225.952 75.663,212.711 71.712,210.071 61.795 C 209.417 59.337,210.873 57.556,212.906 58.329 M34.383 60.167 C 34.383 60.671,34.415 60.877,34.453 60.625 C 34.491 60.373,34.491 59.960,34.453 59.708 C 34.415 59.456,34.383 59.663,34.383 60.167 M301.050 60.167 C 301.050 60.671,301.081 60.877,301.119 60.625 C 301.158 60.373,301.158 59.960,301.119 59.708 C 301.081 59.456,301.050 59.663,301.050 60.167 M97.548 60.250 C 97.549 60.708,97.581 60.876,97.620 60.623 C 97.658 60.369,97.657 59.994,97.617 59.789 C 97.578 59.584,97.546 59.792,97.548 60.250 M364.214 60.250 C 364.216 60.708,364.248 60.876,364.286 60.623 C 364.325 60.369,364.324 59.994,364.284 59.789 C 364.244 59.584,364.213 59.792,364.214 60.250 M121.433 62.292 C 120.149 91.545,100.701 107.547,66.417 107.563 C 58.155 107.567,54.310 107.122,45.833 105.184 L 44.417 104.860 41.250 106.773 C 39.508 107.825,37.408 109.107,36.583 109.621 C 27.329 115.395,27.440 115.334,26.185 115.332 C 24.547 115.331,22.862 114.428,22.452 113.333 C 22.214 112.696,22.005 113.692,22.003 115.475 C 21.999 118.326,22.880 119.717,24.974 120.161 C 26.595 120.505,27.502 120.248,30.250 118.665 C 30.617 118.454,31.067 118.197,31.250 118.095 C 31.650 117.871,32.668 117.222,34.250 116.185 C 35.625 115.282,35.755 115.201,36.602 114.704 C 36.959 114.495,37.475 114.178,37.750 113.999 C 38.275 113.659,38.835 113.333,39.978 112.705 C 40.357 112.497,40.667 112.253,40.667 112.163 C 40.667 112.073,40.745 112.000,40.841 112.000 C 40.938 112.000,41.468 111.700,42.020 111.333 C 42.572 110.967,43.075 110.665,43.137 110.663 C 43.199 110.661,43.438 110.513,43.667 110.333 C 44.207 109.911,45.187 109.907,46.723 110.323 C 49.135 110.977,53.528 111.721,56.667 112.007 C 57.538 112.087,58.737 112.230,59.333 112.325 C 61.759 112.712,69.510 112.726,72.819 112.349 C 74.507 112.157,76.230 112.000,76.649 112.000 C 77.953 112.000,83.964 110.982,86.122 110.396 C 86.601 110.266,87.375 110.087,87.842 109.998 C 88.309 109.910,88.929 109.736,89.221 109.612 C 90.074 109.250,91.383 108.800,91.833 108.715 C 92.063 108.672,92.492 108.528,92.788 108.395 C 93.084 108.263,93.638 108.044,94.018 107.910 C 95.081 107.535,99.540 105.379,100.667 104.696 C 101.202 104.371,102.038 103.877,102.878 103.390 C 103.062 103.284,103.258 103.133,103.314 103.054 C 103.371 102.976,103.848 102.619,104.375 102.262 C 104.902 101.904,105.333 101.549,105.333 101.472 C 105.333 101.396,105.427 101.333,105.542 101.333 C 105.656 101.332,105.977 101.126,106.255 100.874 C 106.532 100.623,107.245 100.008,107.838 99.508 C 109.177 98.379,111.073 96.467,112.196 95.111 C 112.664 94.546,113.093 94.046,113.149 94.000 C 113.204 93.954,113.325 93.797,113.417 93.650 C 113.679 93.230,114.902 91.435,115.052 91.250 C 115.638 90.526,117.332 87.349,118.340 85.083 C 119.433 82.625,120.415 79.573,120.994 76.833 C 121.197 75.871,121.477 74.596,121.617 74.000 C 122.046 72.160,122.246 62.473,121.901 60.208 C 121.719 59.014,121.542 59.800,121.433 62.292 M254.766 62.292 C 253.479 91.619,233.981 107.593,199.500 107.568 C 191.492 107.562,187.542 107.099,179.167 105.184 L 177.750 104.860 174.583 106.773 C 172.842 107.825,170.742 109.107,169.917 109.621 C 160.662 115.395,160.773 115.334,159.518 115.332 C 157.881 115.331,156.195 114.428,155.786 113.333 C 155.547 112.696,155.338 113.692,155.336 115.475 C 155.332 118.326,156.214 119.717,158.307 120.161 C 159.928 120.505,160.835 120.248,163.583 118.665 C 163.950 118.454,164.400 118.197,164.583 118.095 C 164.983 117.871,166.002 117.222,167.583 116.185 C 168.958 115.282,169.088 115.201,169.936 114.704 C 170.292 114.495,170.808 114.178,171.083 113.999 C 171.608 113.659,172.169 113.333,173.312 112.705 C 173.690 112.497,174.000 112.253,174.000 112.163 C 174.000 112.073,174.079 112.000,174.175 112.000 C 174.271 112.000,174.801 111.700,175.353 111.333 C 175.905 110.967,176.408 110.665,176.470 110.663 C 176.532 110.661,176.771 110.513,177.000 110.333 C 177.540 109.911,178.520 109.907,180.056 110.323 C 182.469 110.977,186.862 111.721,190.000 112.007 C 190.871 112.087,192.071 112.230,192.667 112.325 C 195.115 112.717,203.018 112.733,206.185 112.352 C 207.800 112.159,209.486 112.000,209.932 112.000 C 211.281 112.000,217.255 110.994,219.455 110.396 C 219.934 110.266,220.709 110.087,221.176 109.998 C 221.643 109.910,222.263 109.736,222.554 109.612 C 223.407 109.250,224.717 108.800,225.167 108.715 C 225.396 108.672,225.826 108.528,226.121 108.395 C 226.417 108.263,226.971 108.044,227.352 107.910 C 228.414 107.535,232.873 105.379,234.000 104.696 C 234.535 104.371,235.372 103.877,236.212 103.390 C 236.395 103.284,236.591 103.133,236.648 103.054 C 236.704 102.976,237.181 102.619,237.708 102.262 C 238.235 101.904,238.667 101.549,238.667 101.472 C 238.667 101.396,238.760 101.333,238.875 101.333 C 238.990 101.332,239.310 101.126,239.588 100.874 C 239.865 100.623,240.578 100.008,241.171 99.508 C 242.510 98.379,244.406 96.467,245.529 95.111 C 245.998 94.546,246.426 94.046,246.482 94.000 C 246.538 93.954,246.658 93.797,246.750 93.650 C 247.013 93.230,248.236 91.435,248.385 91.250 C 248.971 90.526,250.665 87.349,251.673 85.083 C 252.767 82.625,253.749 79.573,254.327 76.833 C 254.531 75.871,254.811 74.596,254.950 74.000 C 255.379 72.160,255.579 62.473,255.234 60.208 C 255.052 59.014,254.875 59.800,254.766 62.292 M388.099 62.292 C 386.812 91.626,367.225 107.650,332.750 107.572 C 324.790 107.554,320.812 107.085,312.500 105.184 L 311.083 104.860 307.917 106.773 C 306.175 107.825,304.075 109.107,303.250 109.621 C 293.995 115.395,294.106 115.334,292.852 115.332 C 291.214 115.331,289.528 114.428,289.119 113.333 C 288.881 112.696,288.672 113.692,288.669 115.475 C 288.665 118.326,289.547 119.717,291.641 120.161 C 293.262 120.505,294.169 120.248,296.917 118.665 C 297.283 118.454,297.733 118.197,297.917 118.095 C 298.316 117.871,299.335 117.222,300.917 116.185 C 302.291 115.282,302.421 115.201,303.269 114.704 C 303.625 114.495,304.142 114.178,304.417 113.999 C 304.942 113.659,305.502 113.333,306.645 112.705 C 307.024 112.497,307.333 112.253,307.333 112.163 C 307.333 112.073,307.412 112.000,307.508 112.000 C 307.604 112.000,308.135 111.700,308.687 111.333 C 309.239 110.967,309.741 110.665,309.803 110.663 C 309.866 110.661,310.104 110.513,310.333 110.333 C 310.874 109.911,311.853 109.907,313.389 110.323 C 315.802 110.977,320.195 111.721,323.333 112.007 C 324.204 112.087,325.404 112.230,326.000 112.326 C 328.427 112.715,336.510 112.730,339.715 112.351 C 341.345 112.158,342.995 112.000,343.381 112.000 C 344.646 112.001,350.890 110.942,352.758 110.410 C 353.221 110.279,353.995 110.096,354.479 110.004 C 354.962 109.912,355.596 109.734,355.887 109.607 C 356.178 109.480,356.979 109.204,357.667 108.994 C 358.354 108.783,359.217 108.483,359.583 108.327 C 359.950 108.171,360.438 107.986,360.667 107.915 C 361.527 107.651,366.112 105.437,367.333 104.696 C 367.654 104.501,368.179 104.188,368.500 104.000 C 369.822 103.224,372.839 101.044,373.333 100.507 C 373.379 100.457,373.904 100.005,374.500 99.502 C 375.973 98.258,377.578 96.652,378.748 95.250 C 379.284 94.608,379.766 94.046,379.819 94.000 C 379.873 93.954,379.992 93.797,380.083 93.650 C 380.346 93.230,381.569 91.435,381.718 91.250 C 382.657 90.090,385.632 84.090,386.014 82.586 C 386.084 82.309,386.368 81.441,386.646 80.655 C 386.923 79.870,387.270 78.670,387.416 77.989 C 387.563 77.307,387.872 75.887,388.102 74.833 C 388.832 71.498,389.028 59.667,388.354 59.667 C 388.277 59.667,388.163 60.848,388.099 62.292 M10.613 60.750 C 10.340 61.420,10.303 66.891,10.548 70.250 C 10.937 75.566,12.861 82.969,14.816 86.667 C 14.967 86.953,15.254 87.511,15.506 88.007 C 16.017 89.016,17.234 91.185,17.882 92.245 C 18.809 93.758,22.945 98.407,23.530 98.593 C 23.984 98.737,23.986 98.732,24.172 97.066 C 24.264 96.251,24.370 95.395,24.408 95.164 C 24.460 94.843,24.293 94.548,23.696 93.908 C 14.947 84.517,11.893 76.958,10.870 62.167 C 10.789 61.005,10.703 60.529,10.613 60.750 M143.946 60.750 C 143.674 61.420,143.636 66.891,143.882 70.250 C 144.270 75.566,146.195 82.969,148.149 86.667 C 148.300 86.953,148.588 87.511,148.839 88.007 C 149.351 89.016,150.567 91.185,151.216 92.245 C 152.142 93.758,156.278 98.407,156.863 98.593 C 157.317 98.737,157.319 98.732,157.506 97.066 C 157.597 96.251,157.703 95.395,157.741 95.164 C 157.793 94.843,157.626 94.548,157.030 93.908 C 148.281 84.517,145.226 76.958,144.203 62.167 C 144.123 61.005,144.036 60.529,143.946 60.750 M277.280 60.750 C 277.007 61.420,276.970 66.891,277.215 70.250 C 277.603 75.566,279.528 82.969,281.482 86.667 C 281.634 86.953,281.921 87.511,282.173 88.007 C 282.684 89.016,283.900 91.185,284.549 92.245 C 285.476 93.758,289.612 98.407,290.197 98.593 C 290.650 98.737,290.652 98.732,290.839 97.066 C 290.931 96.251,291.036 95.395,291.074 95.164 C 291.127 94.843,290.959 94.548,290.363 93.908 C 281.614 84.517,278.559 76.958,277.536 62.167 C 277.456 61.005,277.370 60.529,277.280 60.750 M34.600 62.944 C 34.754 63.583,34.833 63.643,34.833 63.121 C 34.833 62.882,34.755 62.638,34.660 62.579 C 34.546 62.509,34.526 62.635,34.600 62.944 M301.267 62.944 C 301.420 63.583,301.500 63.643,301.500 63.121 C 301.500 62.882,301.422 62.638,301.327 62.579 C 301.213 62.509,301.192 62.635,301.267 62.944 M29.000 65.397 C 29.000 65.576,29.496 66.500,29.592 66.500 C 29.638 66.500,29.551 66.256,29.400 65.958 C 29.090 65.350,29.000 65.223,29.000 65.397 M295.667 65.397 C 295.667 65.576,296.163 66.500,296.259 66.500 C 296.304 66.500,296.218 66.256,296.066 65.958 C 295.757 65.350,295.667 65.223,295.667 65.397 M60.803 68.097 C 61.010 68.242,61.409 68.768,61.690 69.265 C 63.628 72.699,68.889 72.728,70.358 69.313 C 71.256 67.226,73.256 67.325,73.245 69.456 C 73.238 70.656,72.761 71.547,71.474 72.763 C 69.727 74.414,69.290 74.574,66.360 74.643 L 63.804 74.703 62.566 74.091 C 60.387 73.014,58.795 71.000,58.764 69.282 C 58.742 68.049,59.830 67.416,60.803 68.097 M327.469 68.097 C 327.677 68.242,328.076 68.768,328.356 69.265 C 330.317 72.739,335.556 72.719,337.098 69.232 C 337.699 67.874,338.602 67.471,339.500 68.161 C 340.529 68.953,339.893 71.108,338.141 72.763 C 336.394 74.414,335.957 74.574,333.027 74.643 L 330.471 74.703 329.233 74.091 C 327.053 73.014,325.461 71.000,325.431 69.282 C 325.409 68.049,326.497 67.416,327.469 68.097 M100.167 69.417 C 99.762 69.829,99.468 70.167,99.514 70.167 C 99.560 70.167,99.928 69.829,100.333 69.417 C 100.738 69.004,101.032 68.667,100.986 68.667 C 100.940 68.667,100.572 69.004,100.167 69.417 M366.833 69.417 C 366.428 69.829,366.135 70.167,366.181 70.167 C 366.226 70.167,366.595 69.829,367.000 69.417 C 367.405 69.004,367.699 68.667,367.653 68.667 C 367.607 68.667,367.238 69.004,366.833 69.417 M195.319 69.153 C 195.495 69.328,195.783 69.797,195.960 70.194 C 196.816 72.123,198.093 72.917,200.333 72.916 C 202.671 72.916,203.497 72.392,204.799 70.083 C 205.446 68.938,205.471 68.916,206.193 68.867 C 209.060 68.675,207.676 73.262,204.266 75.251 C 199.782 77.868,193.249 75.181,192.866 70.563 C 192.744 69.088,194.338 68.171,195.319 69.153 M31.833 69.583 C 32.144 69.904,32.436 70.167,32.482 70.167 C 32.528 70.167,32.311 69.904,32.000 69.583 C 31.689 69.262,31.397 69.000,31.351 69.000 C 31.305 69.000,31.522 69.262,31.833 69.583 M298.500 69.583 C 298.811 69.904,299.103 70.167,299.149 70.167 C 299.195 70.167,298.978 69.904,298.667 69.583 C 298.356 69.262,298.064 69.000,298.018 69.000 C 297.972 69.000,298.189 69.262,298.500 69.583 M169.335 72.491 C 172.173 73.527,174.005 75.506,174.281 77.833 C 174.404 78.869,174.154 78.931,173.324 78.071 C 170.262 74.893,164.651 73.717,159.875 75.252 C 158.728 75.620,160.470 73.700,161.939 72.977 C 164.190 71.868,167.105 71.677,169.335 72.491 M236.454 72.249 C 237.978 72.609,238.863 73.082,240.036 74.165 C 241.312 75.343,241.243 75.469,239.617 74.923 C 236.029 73.718,230.655 74.944,227.826 77.613 C 226.481 78.882,226.254 78.865,226.377 77.507 C 226.701 73.931,231.957 71.189,236.454 72.249 " stroke="none" fill="#f25a74" fill-rule="evenodd"></path><path id="path2" d="M39.250 47.016 C 28.405 48.457,24.120 62.062,32.110 69.682 C 33.274 70.793,33.447 70.892,34.837 71.247 C 35.431 71.399,36.517 71.844,37.250 72.237 C 38.814 73.073,39.690 73.216,42.000 73.011 C 44.716 72.769,47.652 71.683,45.618 71.672 C 41.025 71.647,36.278 68.265,35.081 64.167 C 35.014 63.938,34.888 63.661,34.802 63.552 C 34.715 63.444,34.621 62.994,34.592 62.552 C 34.564 62.111,34.488 61.300,34.424 60.750 C 34.026 57.309,36.462 52.455,39.508 50.622 C 41.823 49.229,42.794 48.959,45.542 48.946 C 46.710 48.941,47.667 48.916,47.667 48.892 C 47.667 48.867,47.348 48.662,46.958 48.435 C 44.934 47.256,41.794 46.678,39.250 47.016 M305.917 47.016 C 295.072 48.457,290.786 62.062,298.777 69.682 C 299.941 70.793,300.114 70.892,301.504 71.247 C 302.098 71.399,303.183 71.844,303.917 72.237 C 305.481 73.073,306.356 73.216,308.667 73.011 C 311.383 72.769,314.318 71.683,312.285 71.672 C 307.692 71.647,302.944 68.265,301.748 64.167 C 301.681 63.938,301.555 63.661,301.468 63.552 C 301.381 63.444,301.287 62.994,301.259 62.552 C 301.230 62.111,301.155 61.300,301.091 60.750 C 300.692 57.309,303.129 52.455,306.175 50.622 C 308.490 49.229,309.461 48.959,312.208 48.946 C 313.377 48.941,314.333 48.916,314.333 48.892 C 314.333 48.867,314.015 48.662,313.625 48.435 C 311.601 47.256,308.461 46.678,305.917 47.016 M88.750 47.113 C 87.865 47.311,86.164 47.924,85.417 48.315 L 84.583 48.750 86.750 48.847 C 87.942 48.901,89.127 49.031,89.384 49.138 C 89.640 49.244,90.090 49.373,90.384 49.424 C 90.975 49.526,92.514 50.531,93.667 51.567 C 101.544 58.654,96.711 71.559,86.134 71.681 L 84.917 71.695 85.628 72.022 C 86.918 72.615,88.858 73.009,91.000 73.113 L 93.083 73.214 94.157 72.519 C 94.765 72.126,95.890 71.619,96.750 71.350 C 101.948 69.725,105.015 63.610,103.735 57.421 C 102.309 50.527,95.236 45.662,88.750 47.113 M355.417 47.113 C 354.532 47.311,352.831 47.924,352.083 48.315 L 351.250 48.750 353.417 48.847 C 354.608 48.901,355.793 49.031,356.050 49.138 C 356.307 49.244,356.757 49.373,357.050 49.424 C 357.642 49.526,359.181 50.531,360.333 51.567 C 368.211 58.654,363.378 71.559,352.800 71.681 L 351.583 71.695 352.295 72.022 C 353.585 72.615,355.525 73.009,357.667 73.113 L 359.750 73.214 360.824 72.519 C 361.432 72.126,362.557 71.619,363.416 71.350 C 368.615 69.725,371.682 63.610,370.402 57.421 C 368.976 50.527,361.903 45.662,355.417 47.113 M40.076 52.813 C 37.681 53.901,37.533 57.614,39.837 58.792 C 42.087 59.941,44.665 58.402,44.666 55.908 C 44.668 53.488,42.222 51.839,40.076 52.813 M81.814 52.726 C 78.287 54.009,78.902 59.221,82.579 59.212 C 84.758 59.207,86.102 57.830,85.969 55.740 C 85.831 53.564,83.720 52.033,81.814 52.726 M306.743 52.813 C 304.348 53.901,304.199 57.614,306.503 58.792 C 308.753 59.941,311.331 58.402,311.333 55.908 C 311.334 53.488,308.889 51.839,306.743 52.813 M348.481 52.726 C 344.953 54.009,345.568 59.221,349.246 59.212 C 351.425 59.207,352.769 57.830,352.636 55.740 C 352.497 53.564,350.386 52.033,348.481 52.726 M48.203 64.593 C 47.199 65.296,47.186 66.468,48.173 67.171 C 49.212 67.911,50.667 67.227,50.667 65.998 C 50.667 64.662,49.255 63.857,48.203 64.593 M89.242 64.742 C 88.503 65.482,88.731 66.766,89.690 67.262 C 90.665 67.766,92.000 66.964,92.000 65.873 C 92.000 64.547,90.183 63.802,89.242 64.742 M314.869 64.593 C 313.866 65.296,313.852 66.468,314.839 67.171 C 315.879 67.911,317.333 67.227,317.333 65.998 C 317.333 64.662,315.921 63.857,314.869 64.593 M355.909 64.742 C 355.170 65.482,355.398 66.766,356.356 67.262 C 357.332 67.766,358.667 66.964,358.667 65.873 C 358.667 64.547,356.850 63.802,355.909 64.742 " stroke="none" fill="#fbf3e3" fill-rule="evenodd"></path><path id="path3" d="M65.800 18.957 C 66.560 18.988,67.760 18.988,68.466 18.957 C 69.172 18.926,68.550 18.901,67.083 18.901 C 65.617 18.901,65.039 18.927,65.800 18.957 M198.792 18.957 C 199.365 18.989,200.302 18.989,200.875 18.957 C 201.448 18.924,200.979 18.898,199.833 18.898 C 198.688 18.898,198.219 18.924,198.792 18.957 M332.292 18.957 C 332.956 18.989,334.044 18.989,334.708 18.957 C 335.373 18.925,334.829 18.900,333.500 18.900 C 332.171 18.900,331.627 18.925,332.292 18.957 M59.621 19.120 C 59.917 19.157,60.442 19.158,60.788 19.122 C 61.134 19.086,60.892 19.055,60.250 19.055 C 59.608 19.054,59.325 19.083,59.621 19.120 M72.044 19.120 C 72.297 19.158,72.672 19.157,72.877 19.117 C 73.082 19.078,72.875 19.046,72.417 19.048 C 71.958 19.049,71.791 19.081,72.044 19.120 M192.955 19.120 C 193.250 19.157,193.775 19.158,194.121 19.122 C 194.467 19.086,194.225 19.055,193.583 19.055 C 192.942 19.054,192.659 19.083,192.955 19.120 M205.377 19.120 C 205.631 19.158,206.006 19.157,206.211 19.117 C 206.416 19.078,206.208 19.046,205.750 19.048 C 205.292 19.049,205.124 19.081,205.377 19.120 M326.288 19.120 C 326.584 19.157,327.109 19.158,327.455 19.122 C 327.800 19.086,327.558 19.055,326.917 19.055 C 326.275 19.054,325.992 19.083,326.288 19.120 M338.711 19.120 C 338.964 19.158,339.339 19.157,339.544 19.117 C 339.749 19.078,339.542 19.046,339.083 19.048 C 338.625 19.049,338.457 19.081,338.711 19.120 M26.573 32.208 L 26.083 32.750 26.625 32.260 C 27.130 31.804,27.243 31.667,27.115 31.667 C 27.086 31.667,26.842 31.910,26.573 32.208 M159.906 32.208 L 159.417 32.750 159.958 32.260 C 160.256 31.991,160.500 31.748,160.500 31.719 C 160.500 31.590,160.362 31.703,159.906 32.208 M293.240 32.208 L 292.750 32.750 293.292 32.260 C 293.797 31.804,293.910 31.667,293.781 31.667 C 293.752 31.667,293.509 31.910,293.240 32.208 M40.131 44.790 C 40.615 44.824,41.365 44.823,41.797 44.789 C 42.230 44.755,41.833 44.727,40.917 44.728 C 40.000 44.728,39.646 44.756,40.131 44.790 M90.711 44.786 C 90.964 44.825,91.339 44.824,91.544 44.784 C 91.749 44.744,91.542 44.713,91.083 44.714 C 90.625 44.716,90.457 44.748,90.711 44.786 M306.797 44.790 C 307.282 44.824,308.032 44.823,308.464 44.789 C 308.896 44.755,308.500 44.727,307.583 44.728 C 306.667 44.728,306.313 44.756,306.797 44.790 M357.377 44.786 C 357.631 44.825,358.006 44.824,358.211 44.784 C 358.416 44.744,358.208 44.713,357.750 44.714 C 357.292 44.716,357.124 44.748,357.377 44.786 M89.542 46.948 C 89.702 46.990,89.965 46.990,90.125 46.948 C 90.285 46.906,90.154 46.872,89.833 46.872 C 89.513 46.872,89.381 46.906,89.542 46.948 M356.208 46.948 C 356.369 46.990,356.631 46.990,356.792 46.948 C 356.952 46.906,356.821 46.872,356.500 46.872 C 356.179 46.872,356.048 46.906,356.208 46.948 M81.073 48.542 L 80.583 49.083 81.125 48.594 C 81.423 48.325,81.667 48.081,81.667 48.052 C 81.667 47.923,81.529 48.037,81.073 48.542 M347.740 48.542 L 347.250 49.083 347.792 48.594 C 348.297 48.138,348.410 48.000,348.281 48.000 C 348.252 48.000,348.009 48.244,347.740 48.542 M100.083 50.500 C 100.441 50.867,100.772 51.167,100.818 51.167 C 100.863 51.167,100.608 50.867,100.250 50.500 C 99.892 50.133,99.562 49.833,99.516 49.833 C 99.470 49.833,99.725 50.133,100.083 50.500 M366.750 50.500 C 367.108 50.867,367.438 51.167,367.484 51.167 C 367.530 51.167,367.275 50.867,366.917 50.500 C 366.559 50.133,366.228 49.833,366.182 49.833 C 366.137 49.833,366.392 50.133,366.750 50.500 M116.879 56.333 C 116.879 56.746,116.911 56.915,116.951 56.708 C 116.991 56.502,116.991 56.165,116.951 55.958 C 116.911 55.752,116.879 55.921,116.879 56.333 M250.212 56.333 C 250.212 56.746,250.245 56.915,250.284 56.708 C 250.324 56.502,250.324 56.165,250.284 55.958 C 250.245 55.752,250.212 55.921,250.212 56.333 M383.545 56.333 C 383.545 56.746,383.578 56.915,383.618 56.708 C 383.657 56.502,383.657 56.165,383.618 55.958 C 383.578 55.752,383.545 55.921,383.545 56.333 M76.212 58.333 C 76.212 58.746,76.245 58.915,76.284 58.708 C 76.324 58.502,76.324 58.165,76.284 57.958 C 76.245 57.752,76.212 57.921,76.212 58.333 M342.879 58.333 C 342.879 58.746,342.911 58.915,342.951 58.708 C 342.991 58.502,342.991 58.165,342.951 57.958 C 342.911 57.752,342.879 57.921,342.879 58.333 M211.625 58.284 C 211.831 58.324,212.169 58.324,212.375 58.284 C 212.581 58.245,212.412 58.212,212.000 58.212 C 211.588 58.212,211.419 58.245,211.625 58.284 M237.125 58.284 C 237.331 58.324,237.669 58.324,237.875 58.284 C 238.081 58.245,237.912 58.212,237.500 58.212 C 237.088 58.212,236.919 58.245,237.125 58.284 M55.888 59.917 C 55.889 60.558,55.919 60.800,55.955 60.455 C 55.991 60.109,55.990 59.584,55.954 59.288 C 55.917 58.992,55.887 59.275,55.888 59.917 M117.045 59.500 C 117.045 59.913,117.078 60.081,117.118 59.875 C 117.157 59.669,117.157 59.331,117.118 59.125 C 117.078 58.919,117.045 59.087,117.045 59.500 M250.379 59.500 C 250.379 59.913,250.411 60.081,250.451 59.875 C 250.491 59.669,250.491 59.331,250.451 59.125 C 250.411 58.919,250.379 59.087,250.379 59.500 M322.555 59.917 C 322.555 60.558,322.586 60.800,322.622 60.455 C 322.658 60.109,322.657 59.584,322.620 59.288 C 322.583 58.992,322.554 59.275,322.555 59.917 M383.712 59.500 C 383.712 59.913,383.745 60.081,383.784 59.875 C 383.824 59.669,383.824 59.331,383.784 59.125 C 383.745 58.919,383.712 59.087,383.712 59.500 M15.039 60.167 C 15.039 60.487,15.073 60.619,15.115 60.458 C 15.157 60.298,15.157 60.035,15.115 59.875 C 15.073 59.715,15.039 59.846,15.039 60.167 M76.221 60.750 C 76.222 61.392,76.252 61.634,76.288 61.288 C 76.324 60.942,76.324 60.417,76.287 60.121 C 76.250 59.825,76.221 60.108,76.221 60.750 M148.372 60.167 C 148.372 60.487,148.406 60.619,148.448 60.458 C 148.490 60.298,148.490 60.035,148.448 59.875 C 148.406 59.715,148.372 59.846,148.372 60.167 M281.705 60.167 C 281.705 60.487,281.740 60.619,281.782 60.458 C 281.823 60.298,281.823 60.035,281.782 59.875 C 281.740 59.715,281.705 59.846,281.705 60.167 M342.888 60.750 C 342.889 61.392,342.919 61.634,342.955 61.288 C 342.991 60.942,342.990 60.417,342.954 60.121 C 342.917 59.825,342.887 60.108,342.888 60.750 M190.372 60.833 C 190.372 61.154,190.406 61.285,190.448 61.125 C 190.490 60.965,190.490 60.702,190.448 60.542 C 190.406 60.381,190.372 60.512,190.372 60.833 M10.881 61.750 C 10.882 62.208,10.915 62.376,10.953 62.123 C 10.991 61.869,10.990 61.494,10.951 61.289 C 10.911 61.084,10.880 61.292,10.881 61.750 M144.214 61.750 C 144.216 62.208,144.248 62.376,144.286 62.123 C 144.325 61.869,144.324 61.494,144.284 61.289 C 144.244 61.084,144.213 61.292,144.214 61.750 M277.548 61.750 C 277.549 62.208,277.581 62.376,277.620 62.123 C 277.658 61.869,277.657 61.494,277.617 61.289 C 277.578 61.084,277.546 61.292,277.548 61.750 M121.375 62.083 C 121.377 62.450,121.411 62.580,121.451 62.373 C 121.491 62.166,121.490 61.866,121.448 61.706 C 121.406 61.547,121.374 61.717,121.375 62.083 M254.709 62.083 C 254.711 62.450,254.745 62.580,254.785 62.373 C 254.824 62.166,254.823 61.866,254.781 61.706 C 254.739 61.547,254.707 61.717,254.709 62.083 M388.042 62.083 C 388.044 62.450,388.078 62.580,388.118 62.373 C 388.158 62.166,388.156 61.866,388.115 61.706 C 388.073 61.547,388.040 61.717,388.042 62.083 M183.494 64.625 L 182.583 65.583 183.542 64.672 C 184.432 63.826,184.576 63.667,184.453 63.667 C 184.427 63.667,183.995 64.098,183.494 64.625 M216.167 64.052 C 216.167 64.081,216.410 64.325,216.708 64.594 L 217.250 65.083 216.760 64.542 C 216.304 64.037,216.167 63.923,216.167 64.052 M11.039 64.667 C 11.039 64.987,11.073 65.119,11.115 64.958 C 11.157 64.798,11.157 64.535,11.115 64.375 C 11.073 64.215,11.039 64.346,11.039 64.667 M117.045 64.833 C 117.045 65.246,117.078 65.415,117.118 65.208 C 117.157 65.002,117.157 64.665,117.118 64.458 C 117.078 64.252,117.045 64.421,117.045 64.833 M144.372 64.667 C 144.372 64.987,144.406 65.119,144.448 64.958 C 144.490 64.798,144.490 64.535,144.448 64.375 C 144.406 64.215,144.372 64.346,144.372 64.667 M250.379 64.833 C 250.379 65.246,250.411 65.415,250.451 65.208 C 250.491 65.002,250.491 64.665,250.451 64.458 C 250.411 64.252,250.379 64.421,250.379 64.833 M277.705 64.667 C 277.705 64.987,277.740 65.119,277.782 64.958 C 277.823 64.798,277.823 64.535,277.782 64.375 C 277.740 64.215,277.705 64.346,277.705 64.667 M383.712 64.833 C 383.712 65.246,383.745 65.415,383.784 65.208 C 383.824 65.002,383.824 64.665,383.784 64.458 C 383.745 64.252,383.712 64.421,383.712 64.833 M231.833 65.362 C 231.397 65.758,231.292 65.902,231.583 65.706 C 232.044 65.396,232.808 64.657,232.651 64.674 C 232.614 64.678,232.246 64.987,231.833 65.362 M230.333 66.333 C 230.012 66.509,229.810 66.656,229.883 66.660 C 230.060 66.669,231.000 66.180,231.000 66.079 C 231.000 65.970,230.990 65.974,230.333 66.333 M164.583 67.833 C 165.220 68.475,165.779 69.000,165.824 69.000 C 165.870 69.000,165.387 68.475,164.750 67.833 C 164.113 67.192,163.555 66.667,163.509 66.667 C 163.463 66.667,163.947 67.192,164.583 67.833 M121.039 67.333 C 121.039 67.654,121.073 67.785,121.115 67.625 C 121.157 67.465,121.157 67.202,121.115 67.042 C 121.073 66.881,121.039 67.012,121.039 67.333 M235.661 67.792 L 234.750 68.750 235.708 67.839 C 236.599 66.993,236.743 66.833,236.619 66.833 C 236.593 66.833,236.162 67.265,235.661 67.792 M254.372 67.333 C 254.372 67.654,254.406 67.785,254.448 67.625 C 254.490 67.465,254.490 67.202,254.448 67.042 C 254.406 66.881,254.372 67.012,254.372 67.333 M387.705 67.333 C 387.705 67.654,387.740 67.785,387.782 67.625 C 387.823 67.465,387.823 67.202,387.782 67.042 C 387.740 66.881,387.705 67.012,387.705 67.333 M213.833 68.083 C 214.144 68.404,214.436 68.667,214.482 68.667 C 214.528 68.667,214.311 68.404,214.000 68.083 C 213.689 67.762,213.397 67.500,213.351 67.500 C 213.305 67.500,213.522 67.762,213.833 68.083 M79.417 68.500 C 79.868 68.958,80.275 69.333,80.321 69.333 C 80.367 69.333,80.035 68.958,79.583 68.500 C 79.132 68.042,78.725 67.667,78.679 67.667 C 78.633 67.667,78.965 68.042,79.417 68.500 M174.208 67.782 C 174.369 67.823,174.631 67.823,174.792 67.782 C 174.952 67.740,174.821 67.705,174.500 67.705 C 174.179 67.705,174.048 67.740,174.208 67.782 M223.042 67.782 C 223.202 67.823,223.465 67.823,223.625 67.782 C 223.785 67.740,223.654 67.705,223.333 67.705 C 223.012 67.705,222.881 67.740,223.042 67.782 M346.083 68.500 C 346.535 68.958,346.942 69.333,346.987 69.333 C 347.033 69.333,346.701 68.958,346.250 68.500 C 345.799 68.042,345.392 67.667,345.346 67.667 C 345.300 67.667,345.632 68.042,346.083 68.500 M100.406 69.375 L 99.917 69.917 100.458 69.427 C 100.756 69.158,101.000 68.914,101.000 68.885 C 101.000 68.757,100.862 68.870,100.406 69.375 M206.774 68.999 C 206.970 69.078,207.252 69.315,207.399 69.525 C 207.546 69.735,207.667 69.829,207.667 69.733 C 207.667 69.476,206.934 68.832,206.656 68.844 C 206.524 68.850,206.577 68.919,206.774 68.999 M367.073 69.375 L 366.583 69.917 367.125 69.427 C 367.630 68.971,367.743 68.833,367.615 68.833 C 367.586 68.833,367.342 69.077,367.073 69.375 M167.500 70.152 C 167.729 70.339,167.992 70.493,168.083 70.494 C 168.262 70.495,167.960 70.264,167.417 69.983 C 167.195 69.869,167.223 69.925,167.500 70.152 M170.356 71.489 C 170.686 71.698,172.620 72.166,173.083 72.150 C 173.267 72.143,172.854 72.008,172.167 71.850 C 171.479 71.692,170.729 71.507,170.500 71.440 C 170.179 71.345,170.146 71.357,170.356 71.489 M203.573 71.875 L 203.083 72.417 203.625 71.927 C 204.130 71.471,204.243 71.333,204.115 71.333 C 204.086 71.333,203.842 71.577,203.573 71.875 M229.333 71.583 C 229.012 71.707,228.862 71.810,229.000 71.813 C 229.137 71.816,229.475 71.715,229.750 71.589 C 230.394 71.295,230.094 71.290,229.333 71.583 M65.875 71.948 C 66.035 71.990,66.298 71.990,66.458 71.948 C 66.619 71.906,66.487 71.872,66.167 71.872 C 65.846 71.872,65.715 71.906,65.875 71.948 M165.083 72.098 C 165.837 72.217,168.679 72.258,168.393 72.145 C 168.223 72.078,167.333 72.028,166.417 72.034 C 165.500 72.040,164.900 72.069,165.083 72.098 M233.625 72.122 C 234.015 72.157,234.652 72.157,235.042 72.122 C 235.431 72.087,235.112 72.058,234.333 72.058 C 233.554 72.058,233.235 72.087,233.625 72.122 M173.875 72.282 C 174.035 72.323,174.298 72.323,174.458 72.282 C 174.619 72.240,174.487 72.205,174.167 72.205 C 173.846 72.205,173.715 72.240,173.875 72.282 M222.711 72.286 C 222.964 72.325,223.339 72.324,223.544 72.284 C 223.749 72.244,223.542 72.213,223.083 72.214 C 222.625 72.216,222.457 72.248,222.711 72.286 M226.208 72.282 C 226.369 72.323,226.631 72.323,226.792 72.282 C 226.952 72.240,226.821 72.205,226.500 72.205 C 226.179 72.205,226.048 72.240,226.208 72.282 M199.792 73.121 C 200.090 73.158,200.577 73.158,200.875 73.121 C 201.173 73.084,200.929 73.053,200.333 73.053 C 199.737 73.053,199.494 73.084,199.792 73.121 M206.000 73.750 C 205.595 74.162,205.301 74.500,205.347 74.500 C 205.393 74.500,205.762 74.162,206.167 73.750 C 206.572 73.337,206.865 73.000,206.819 73.000 C 206.774 73.000,206.405 73.337,206.000 73.750 M100.882 73.290 C 101.504 73.323,102.479 73.322,103.049 73.290 C 103.618 73.257,103.108 73.231,101.917 73.231 C 100.725 73.232,100.259 73.258,100.882 73.290 M367.549 73.290 C 368.171 73.323,369.146 73.322,369.715 73.290 C 370.284 73.257,369.775 73.231,368.583 73.231 C 367.392 73.232,366.926 73.258,367.549 73.290 M194.500 73.917 C 194.811 74.237,195.103 74.500,195.149 74.500 C 195.195 74.500,194.978 74.237,194.667 73.917 C 194.356 73.596,194.064 73.333,194.018 73.333 C 193.972 73.333,194.189 73.596,194.500 73.917 M160.242 74.208 L 159.583 74.917 160.292 74.258 C 160.950 73.645,161.077 73.500,160.950 73.500 C 160.923 73.500,160.605 73.819,160.242 74.208 M240.162 74.375 C 240.569 74.810,240.868 75.167,240.826 75.167 C 240.784 75.167,240.355 75.017,239.873 74.833 C 239.391 74.650,238.866 74.502,238.707 74.504 C 238.547 74.507,238.970 74.697,239.646 74.927 C 241.181 75.450,241.280 75.358,240.244 74.369 L 239.422 73.583 240.162 74.375 M227.606 74.826 C 227.181 75.281,226.833 75.706,226.833 75.771 C 226.833 75.836,226.857 75.858,226.886 75.819 C 226.916 75.781,227.301 75.356,227.743 74.875 C 228.184 74.394,228.508 74.000,228.462 74.000 C 228.416 74.000,228.031 74.372,227.606 74.826 M163.121 74.454 C 163.417 74.490,163.942 74.491,164.288 74.455 C 164.634 74.419,164.392 74.389,163.750 74.388 C 163.108 74.387,162.825 74.417,163.121 74.454 M235.792 74.456 C 236.273 74.490,237.060 74.490,237.542 74.456 C 238.023 74.423,237.629 74.395,236.667 74.395 C 235.704 74.395,235.310 74.423,235.792 74.456 M165.375 74.615 C 165.535 74.657,165.798 74.657,165.958 74.615 C 166.119 74.573,165.987 74.539,165.667 74.539 C 165.346 74.539,165.215 74.573,165.375 74.615 M160.124 75.014 C 159.963 75.108,159.756 75.139,159.665 75.083 C 159.574 75.026,159.500 75.060,159.500 75.157 C 159.500 75.394,159.689 75.379,160.356 75.090 C 160.664 74.956,160.804 74.846,160.667 74.845 C 160.529 74.844,160.285 74.920,160.124 75.014 M170.667 76.063 C 170.667 76.102,170.934 76.291,171.260 76.484 C 171.586 76.676,171.807 76.758,171.749 76.666 C 171.638 76.485,170.667 75.944,170.667 76.063 M199.208 76.282 C 199.369 76.323,199.631 76.323,199.792 76.282 C 199.952 76.240,199.821 76.205,199.500 76.205 C 199.179 76.205,199.048 76.240,199.208 76.282 M200.792 76.284 C 200.998 76.324,201.335 76.324,201.542 76.284 C 201.748 76.245,201.579 76.212,201.167 76.212 C 200.754 76.212,200.585 76.245,200.792 76.284 M40.019 76.651 C 40.000 77.049,39.998 77.050,39.625 76.734 L 39.250 76.417 39.571 76.796 C 39.924 77.212,40.250 77.071,40.118 76.559 C 40.057 76.320,40.034 76.340,40.019 76.651 M306.686 76.651 C 306.667 77.049,306.664 77.050,306.292 76.734 L 305.917 76.417 306.238 76.796 C 306.590 77.212,306.917 77.071,306.785 76.559 C 306.723 76.320,306.701 76.340,306.686 76.651 M227.583 77.667 C 226.573 78.693,226.507 78.695,226.471 77.708 L 226.442 76.917 226.377 77.648 C 226.271 78.836,226.547 78.866,227.626 77.787 C 228.151 77.262,228.540 76.833,228.492 76.833 C 228.444 76.833,228.035 77.208,227.583 77.667 M173.242 77.958 C 174.070 78.848,174.342 78.870,174.307 78.042 C 174.280 77.426,174.279 77.425,174.213 77.958 C 174.128 78.640,174.077 78.636,173.257 77.875 L 172.583 77.250 173.242 77.958 M26.830 91.208 C 27.791 92.194,28.597 93.000,28.622 93.000 C 28.742 93.000,28.539 92.786,26.875 91.164 L 25.083 89.417 26.830 91.208 M160.164 91.208 C 161.125 92.194,161.931 93.000,161.955 93.000 C 162.076 93.000,161.872 92.786,160.208 91.164 L 158.417 89.417 160.164 91.208 M293.497 91.208 C 295.120 92.872,295.333 93.076,295.333 92.955 C 295.333 92.931,294.527 92.125,293.542 91.164 L 291.750 89.417 293.497 91.208 M108.909 93.375 L 108.250 94.083 108.958 93.425 C 109.617 92.812,109.743 92.667,109.617 92.667 C 109.590 92.667,109.271 92.985,108.909 93.375 M242.242 93.375 L 241.583 94.083 242.292 93.425 C 242.681 93.062,243.000 92.743,243.000 92.716 C 243.000 92.590,242.855 92.716,242.242 93.375 M375.575 93.375 L 374.917 94.083 375.625 93.425 C 376.284 92.812,376.410 92.667,376.284 92.667 C 376.257 92.667,375.938 92.985,375.575 93.375 M23.833 94.083 C 24.144 94.404,24.436 94.667,24.482 94.667 C 24.528 94.667,24.311 94.404,24.000 94.083 C 23.689 93.763,23.397 93.500,23.351 93.500 C 23.305 93.500,23.522 93.763,23.833 94.083 M157.167 94.083 C 157.478 94.404,157.770 94.667,157.815 94.667 C 157.861 94.667,157.644 94.404,157.333 94.083 C 157.022 93.763,156.730 93.500,156.685 93.500 C 156.639 93.500,156.856 93.763,157.167 94.083 M290.500 94.083 C 290.811 94.404,291.103 94.667,291.149 94.667 C 291.195 94.667,290.978 94.404,290.667 94.083 C 290.356 93.763,290.064 93.500,290.018 93.500 C 289.972 93.500,290.189 93.763,290.500 94.083 M55.792 102.951 C 55.998 102.991,56.335 102.991,56.542 102.951 C 56.748 102.911,56.579 102.879,56.167 102.879 C 55.754 102.879,55.585 102.911,55.792 102.951 M75.708 102.948 C 75.869 102.990,76.131 102.990,76.292 102.948 C 76.452 102.906,76.321 102.872,76.000 102.872 C 75.679 102.872,75.548 102.906,75.708 102.948 M189.125 102.951 C 189.331 102.991,189.669 102.991,189.875 102.951 C 190.081 102.911,189.912 102.879,189.500 102.879 C 189.088 102.879,188.919 102.911,189.125 102.951 M208.958 102.951 C 209.165 102.991,209.502 102.991,209.708 102.951 C 209.915 102.911,209.746 102.879,209.333 102.879 C 208.921 102.879,208.752 102.911,208.958 102.951 M322.458 102.951 C 322.665 102.991,323.002 102.991,323.208 102.951 C 323.415 102.911,323.246 102.879,322.833 102.879 C 322.421 102.879,322.252 102.911,322.458 102.951 M342.208 102.948 C 342.369 102.990,342.631 102.990,342.792 102.948 C 342.952 102.906,342.821 102.872,342.500 102.872 C 342.179 102.872,342.048 102.906,342.208 102.948 M73.542 103.115 C 73.702 103.157,73.965 103.157,74.125 103.115 C 74.285 103.073,74.154 103.039,73.833 103.039 C 73.512 103.039,73.381 103.073,73.542 103.115 M70.794 103.285 C 71.001 103.324,71.301 103.323,71.460 103.281 C 71.620 103.239,71.450 103.207,71.083 103.209 C 70.717 103.211,70.586 103.245,70.794 103.285 M64.375 103.456 C 64.810 103.490,65.523 103.490,65.958 103.456 C 66.394 103.422,66.037 103.393,65.167 103.393 C 64.296 103.393,63.940 103.422,64.375 103.456 M197.708 103.456 C 198.144 103.490,198.856 103.490,199.292 103.456 C 199.727 103.422,199.371 103.393,198.500 103.393 C 197.629 103.393,197.273 103.422,197.708 103.456 M331.042 103.456 C 331.477 103.490,332.190 103.490,332.625 103.456 C 333.060 103.422,332.704 103.393,331.833 103.393 C 330.962 103.393,330.606 103.422,331.042 103.456 M76.042 107.115 C 76.202 107.157,76.465 107.157,76.625 107.115 C 76.785 107.073,76.654 107.039,76.333 107.039 C 76.012 107.039,75.881 107.073,76.042 107.115 M63.458 107.623 C 63.940 107.657,64.727 107.657,65.208 107.623 C 65.690 107.589,65.296 107.562,64.333 107.562 C 63.371 107.562,62.977 107.589,63.458 107.623 M68.625 107.621 C 68.923 107.658,69.410 107.658,69.708 107.621 C 70.006 107.584,69.762 107.553,69.167 107.553 C 68.571 107.553,68.327 107.584,68.625 107.621 M196.792 107.623 C 197.273 107.657,198.060 107.657,198.542 107.623 C 199.023 107.589,198.629 107.562,197.667 107.562 C 196.704 107.562,196.310 107.589,196.792 107.623 M200.708 107.623 C 201.144 107.657,201.856 107.657,202.292 107.623 C 202.727 107.588,202.371 107.560,201.500 107.560 C 200.629 107.560,200.273 107.588,200.708 107.623 M330.125 107.623 C 330.606 107.657,331.394 107.657,331.875 107.623 C 332.356 107.589,331.962 107.562,331.000 107.562 C 330.037 107.562,329.644 107.589,330.125 107.623 M335.375 107.619 C 335.627 107.658,336.040 107.658,336.292 107.619 C 336.544 107.581,336.337 107.550,335.833 107.550 C 335.329 107.550,335.123 107.581,335.375 107.619 " stroke="none" fill="#95394b" fill-rule="evenodd"></path><path id="path4" d="M62.708 18.955 C 63.052 18.991,63.615 18.991,63.958 18.955 C 64.302 18.919,64.021 18.889,63.333 18.889 C 62.646 18.889,62.365 18.919,62.708 18.955 M69.875 18.948 C 70.035 18.990,70.298 18.990,70.458 18.948 C 70.619 18.906,70.487 18.872,70.167 18.872 C 69.846 18.872,69.715 18.906,69.875 18.948 M196.042 18.955 C 196.385 18.991,196.948 18.991,197.292 18.955 C 197.635 18.919,197.354 18.889,196.667 18.889 C 195.979 18.889,195.698 18.919,196.042 18.955 M202.211 18.953 C 202.464 18.991,202.839 18.990,203.044 18.951 C 203.249 18.911,203.042 18.880,202.583 18.881 C 202.125 18.882,201.957 18.915,202.211 18.953 M329.375 18.955 C 329.719 18.991,330.281 18.991,330.625 18.955 C 330.969 18.919,330.688 18.889,330.000 18.889 C 329.313 18.889,329.031 18.919,329.375 18.955 M336.127 18.951 C 336.334 18.991,336.634 18.990,336.794 18.948 C 336.953 18.906,336.783 18.874,336.417 18.875 C 336.050 18.877,335.920 18.911,336.127 18.951 M90.708 46.953 C 90.960 46.991,91.373 46.991,91.625 46.953 C 91.877 46.915,91.671 46.883,91.167 46.883 C 90.662 46.883,90.456 46.915,90.708 46.953 M357.375 46.953 C 357.627 46.991,358.040 46.991,358.292 46.953 C 358.544 46.915,358.337 46.883,357.833 46.883 C 357.329 46.883,357.123 46.915,357.375 46.953 M106.212 59.667 C 106.212 60.079,106.245 60.248,106.284 60.042 C 106.324 59.835,106.324 59.498,106.284 59.292 C 106.245 59.085,106.212 59.254,106.212 59.667 M372.879 59.667 C 372.879 60.079,372.911 60.248,372.951 60.042 C 372.991 59.835,372.991 59.498,372.951 59.292 C 372.911 59.085,372.879 59.254,372.879 59.667 M104.048 60.250 C 104.049 60.708,104.081 60.876,104.120 60.623 C 104.158 60.369,104.157 59.994,104.117 59.789 C 104.078 59.584,104.046 59.792,104.048 60.250 M370.714 60.250 C 370.716 60.708,370.748 60.876,370.786 60.623 C 370.825 60.369,370.824 59.994,370.784 59.789 C 370.744 59.584,370.713 59.792,370.714 60.250 M106.209 61.083 C 106.211 61.450,106.245 61.580,106.285 61.373 C 106.324 61.166,106.323 60.866,106.281 60.706 C 106.239 60.547,106.207 60.717,106.209 61.083 M372.875 61.083 C 372.877 61.450,372.911 61.580,372.951 61.373 C 372.991 61.166,372.990 60.866,372.948 60.706 C 372.906 60.547,372.874 60.717,372.875 61.083 M15.048 61.417 C 15.049 61.875,15.081 62.043,15.120 61.789 C 15.158 61.536,15.157 61.161,15.117 60.956 C 15.078 60.751,15.046 60.958,15.048 61.417 M148.381 61.417 C 148.382 61.875,148.415 62.043,148.453 61.789 C 148.491 61.536,148.490 61.161,148.451 60.956 C 148.411 60.751,148.380 60.958,148.381 61.417 M281.714 61.417 C 281.716 61.875,281.748 62.043,281.786 61.789 C 281.825 61.536,281.824 61.161,281.784 60.956 C 281.744 60.751,281.713 60.958,281.714 61.417 M48.875 64.282 C 49.035 64.323,49.298 64.323,49.458 64.282 C 49.619 64.240,49.487 64.205,49.167 64.205 C 48.846 64.205,48.715 64.240,48.875 64.282 M90.042 64.282 C 90.202 64.323,90.465 64.323,90.625 64.282 C 90.785 64.240,90.654 64.205,90.333 64.205 C 90.013 64.205,89.881 64.240,90.042 64.282 M315.542 64.282 C 315.702 64.323,315.965 64.323,316.125 64.282 C 316.285 64.240,316.154 64.205,315.833 64.205 C 315.512 64.205,315.381 64.240,315.542 64.282 M356.708 64.282 C 356.869 64.323,357.131 64.323,357.292 64.282 C 357.452 64.240,357.321 64.205,357.000 64.205 C 356.679 64.205,356.548 64.240,356.708 64.282 M44.788 71.620 C 45.084 71.657,45.609 71.658,45.955 71.622 C 46.300 71.586,46.058 71.555,45.417 71.555 C 44.775 71.554,44.492 71.583,44.788 71.620 M85.547 71.623 C 85.985 71.657,86.660 71.657,87.047 71.622 C 87.434 71.587,87.075 71.559,86.250 71.559 C 85.425 71.560,85.109 71.588,85.547 71.623 M311.455 71.620 C 311.750 71.657,312.275 71.658,312.621 71.622 C 312.967 71.586,312.725 71.555,312.083 71.555 C 311.442 71.554,311.159 71.583,311.455 71.620 M352.213 71.623 C 352.652 71.657,353.327 71.657,353.713 71.622 C 354.100 71.587,353.742 71.559,352.917 71.559 C 352.092 71.560,351.775 71.588,352.213 71.623 M224.127 72.285 C 224.334 72.324,224.634 72.323,224.794 72.281 C 224.953 72.239,224.783 72.207,224.417 72.209 C 224.050 72.211,223.920 72.245,224.127 72.285 M66.455 107.620 C 66.750 107.657,67.275 107.658,67.621 107.622 C 67.967 107.586,67.725 107.555,67.083 107.555 C 66.442 107.554,66.159 107.583,66.455 107.620 M333.208 107.621 C 333.552 107.657,334.115 107.657,334.458 107.621 C 334.802 107.585,334.521 107.556,333.833 107.556 C 333.146 107.556,332.865 107.585,333.208 107.621 " stroke="none" fill="#6c6464" fill-rule="evenodd"></path></g></svg>