<svg id="svg" version="1.1" xmlns="http://www.w3.org/2000/svg" xmlns:xlink="http://www.w3.org/1999/xlink" width="400" height="66.68017014381203" viewBox="0, 0, 400,66.68017014381203"><g id="svgg"><path id="path0" d="M25.917 7.748 C 21.838 8.469,18.126 9.888,15.101 11.881 C 3.963 19.221,2.069 35.970,11.221 46.202 C 12.298 47.406,12.501 48.220,11.974 49.214 C 11.808 49.526,11.201 53.515,11.050 55.283 C 10.965 56.289,10.978 56.332,11.561 56.949 C 12.653 58.107,13.047 57.990,17.672 55.136 C 19.829 53.806,21.744 52.637,21.926 52.539 C 22.178 52.405,22.651 52.456,23.878 52.753 C 26.744 53.446,29.439 53.721,33.333 53.720 C 48.154 53.714,57.834 47.279,60.155 35.889 C 60.498 34.206,60.940 28.475,60.751 28.168 C 60.696 28.080,60.541 27.324,60.406 26.489 C 59.944 23.630,58.846 20.441,57.780 18.860 C 57.554 18.525,57.170 17.928,56.928 17.536 C 56.294 16.507,53.651 13.648,52.804 13.076 C 52.408 12.808,51.708 12.316,51.250 11.983 C 45.872 8.079,34.657 6.204,25.917 7.748 M92.551 7.749 C 89.299 8.317,84.626 9.963,82.833 11.174 C 82.604 11.328,82.004 11.719,81.500 12.042 C 70.704 18.956,68.841 36.033,77.788 46.079 C 79.092 47.544,79.099 47.572,78.578 49.417 C 78.319 50.336,77.837 53.640,77.716 55.333 C 77.640 56.402,77.647 56.425,78.245 57.000 C 79.370 58.081,79.759 57.962,84.339 55.136 C 86.496 53.806,88.410 52.637,88.593 52.539 C 88.845 52.405,89.318 52.456,90.545 52.753 C 103.325 55.843,117.087 52.292,123.097 44.355 C 126.221 40.229,128.226 32.140,127.255 27.583 C 127.118 26.942,127.004 26.186,127.003 25.904 C 126.985 22.726,122.567 15.063,119.704 13.244 C 119.454 13.086,118.872 12.669,118.409 12.317 C 112.935 8.160,101.637 6.164,92.551 7.749 M159.250 7.750 C 154.815 8.530,150.000 10.495,147.333 12.612 C 140.295 18.200,137.630 25.642,139.255 35.167 C 139.985 39.445,141.615 42.872,144.448 46.087 L 145.620 47.417 145.501 48.250 C 145.435 48.708,145.305 49.271,145.212 49.500 C 144.737 50.665,144.258 56.254,144.594 56.714 C 145.655 58.167,146.344 57.994,151.064 55.093 C 153.203 53.779,155.097 52.627,155.272 52.533 C 155.505 52.408,156.034 52.467,157.253 52.754 C 165.329 54.654,175.830 53.754,182.083 50.627 C 189.979 46.678,193.836 40.026,194.041 30.000 C 194.168 23.768,190.305 15.549,186.087 13.077 C 185.688 12.843,185.266 12.537,185.150 12.396 C 184.432 11.531,180.213 9.538,177.083 8.584 C 172.772 7.271,164.240 6.872,159.250 7.750 M225.917 7.744 C 211.643 10.366,203.931 20.402,205.742 34.000 C 206.393 38.883,208.017 42.549,211.092 46.075 C 212.360 47.528,212.408 47.721,211.924 49.417 C 211.687 50.246,211.185 53.752,211.052 55.500 C 210.990 56.313,211.032 56.470,211.424 56.885 C 212.577 58.108,213.048 57.974,217.715 55.101 C 219.843 53.792,221.735 52.639,221.921 52.541 C 222.179 52.404,222.643 52.454,223.878 52.753 C 238.613 56.315,253.919 51.108,258.479 40.982 C 259.957 37.701,261.373 29.620,260.749 28.027 C 260.690 27.875,260.531 27.075,260.397 26.250 C 258.799 16.416,251.288 9.628,239.922 7.746 C 236.430 7.168,229.058 7.167,225.917 7.744 M292.583 7.744 C 288.065 8.582,284.197 10.122,281.120 12.308 C 279.609 13.380,276.000 16.920,276.000 17.328 C 276.000 17.422,275.736 17.867,275.413 18.316 C 270.178 25.604,271.253 38.580,277.710 46.021 C 279.081 47.601,279.007 47.167,278.449 50.333 C 277.516 55.625,277.491 56.257,278.182 56.964 C 279.238 58.044,279.913 57.889,283.250 55.801 C 284.350 55.113,286.075 54.054,287.083 53.449 L 288.917 52.347 290.540 52.746 C 298.368 54.668,309.158 53.750,315.417 50.629 C 325.953 45.375,330.094 33.397,325.591 21.193 C 324.686 18.740,321.834 14.897,319.759 13.333 C 319.333 13.012,318.781 12.591,318.534 12.397 C 313.244 8.253,301.346 6.119,292.583 7.744 M359.250 7.744 C 355.087 8.471,350.662 10.237,347.750 12.335 C 346.364 13.334,342.898 16.752,342.679 17.337 C 342.626 17.476,342.349 17.926,342.064 18.337 C 340.428 20.686,339.377 23.921,338.759 28.506 C 338.620 29.536,339.085 34.639,339.482 36.446 C 340.299 40.167,341.798 43.058,344.534 46.189 C 345.570 47.374,345.741 48.014,345.321 49.114 C 345.119 49.642,344.513 53.679,344.387 55.333 C 344.308 56.375,344.325 56.437,344.834 56.954 C 345.905 58.040,346.462 57.918,349.766 55.876 C 350.949 55.144,352.742 54.051,353.750 53.447 L 355.583 52.347 357.207 52.746 C 363.713 54.343,372.263 54.037,378.648 51.979 C 386.805 49.349,392.339 43.154,393.580 35.264 C 393.875 33.390,394.234 28.410,394.090 28.178 C 394.032 28.084,393.873 27.312,393.736 26.462 C 392.893 21.233,389.573 15.386,386.138 13.079 C 385.741 12.812,385.138 12.381,384.797 12.121 C 379.640 8.178,368.094 6.200,359.250 7.744 M38.636 9.766 C 50.740 11.361,57.958 18.557,58.598 29.667 C 59.283 41.574,51.632 49.887,38.582 51.414 C 33.848 51.967,27.845 51.685,23.880 50.721 C 21.625 50.174,22.194 49.974,17.297 53.027 C 12.729 55.874,13.149 55.912,13.600 52.691 C 13.805 51.224,14.050 49.255,14.145 48.315 L 14.316 46.605 13.229 45.453 C 10.293 42.341,8.584 38.966,7.936 35.000 C 5.150 17.961,18.368 7.096,38.636 9.766 M102.485 9.503 C 116.277 10.341,124.604 17.716,125.253 29.667 C 125.838 40.429,119.545 48.469,108.681 50.839 C 103.232 52.028,95.717 51.977,90.531 50.717 L 88.645 50.259 87.781 50.714 C 87.305 50.965,85.418 52.106,83.586 53.251 C 80.104 55.428,79.772 55.582,79.910 54.958 C 80.018 54.467,80.611 50.174,80.843 48.204 L 81.026 46.657 79.768 45.320 C 75.853 41.159,73.868 35.462,74.227 29.415 C 74.933 17.483,83.620 10.108,97.750 9.443 C 98.300 9.418,98.975 9.383,99.250 9.366 C 99.525 9.350,100.981 9.411,102.485 9.503 M169.151 9.503 C 183.513 10.376,191.838 18.219,191.882 30.917 C 191.928 44.552,182.299 51.999,165.110 51.621 C 160.949 51.530,160.375 51.464,157.197 50.708 L 155.311 50.259 154.447 50.714 C 153.972 50.965,152.085 52.106,150.253 53.251 C 146.787 55.417,146.399 55.597,146.556 54.958 C 146.638 54.629,147.284 49.982,147.590 47.537 L 147.699 46.656 146.549 45.445 C 142.672 41.364,140.955 36.874,140.930 30.750 C 140.877 18.129,149.688 10.136,164.417 9.443 C 164.967 9.418,165.642 9.383,165.917 9.366 C 166.192 9.350,167.647 9.411,169.151 9.503 M235.818 9.503 C 249.297 10.322,257.642 17.451,258.509 28.887 C 259.287 39.164,254.280 46.909,244.821 50.059 C 239.064 51.975,230.190 52.254,223.864 50.717 L 221.978 50.259 221.114 50.714 C 220.639 50.965,218.751 52.106,216.919 53.251 C 213.348 55.484,213.088 55.599,213.231 54.875 C 213.373 54.159,213.979 49.744,214.160 48.101 L 214.324 46.620 213.083 45.301 C 209.131 41.100,207.234 35.642,207.563 29.417 C 208.186 17.597,217.002 10.086,231.000 9.447 C 231.596 9.420,232.308 9.384,232.583 9.367 C 232.858 9.350,234.314 9.411,235.818 9.503 M302.485 9.503 C 316.848 10.376,325.163 18.216,325.196 30.917 C 325.222 40.705,319.984 47.609,310.417 50.393 C 304.915 51.993,296.159 52.131,290.450 50.706 L 288.649 50.257 287.783 50.713 C 287.307 50.964,285.418 52.106,283.586 53.251 C 280.015 55.484,279.753 55.599,279.900 54.875 C 280.049 54.135,280.667 49.538,280.822 48.008 L 280.965 46.598 279.710 45.258 C 271.163 36.130,272.736 20.222,282.826 13.755 C 287.289 10.894,291.652 9.727,299.250 9.360 C 299.525 9.347,300.981 9.411,302.485 9.503 M371.982 9.766 C 384.610 11.442,391.858 19.146,391.879 30.917 C 391.897 40.837,386.650 47.621,376.742 50.488 C 371.545 51.991,362.657 52.089,357.108 50.704 L 355.299 50.252 354.338 50.777 C 353.809 51.065,351.966 52.181,350.242 53.257 C 346.753 55.435,346.436 55.584,346.573 54.980 C 346.669 54.560,347.423 48.624,347.549 47.305 C 347.619 46.565,347.586 46.491,346.883 45.805 C 337.848 36.991,339.178 20.399,349.451 13.772 C 355.167 10.085,363.379 8.625,371.982 9.766 M111.167 22.136 C 105.973 23.493,103.599 30.351,106.987 34.209 C 108.842 36.322,112.481 36.255,114.495 34.070 C 117.932 30.341,115.506 24.132,110.618 24.147 C 109.308 24.151,109.376 23.945,110.869 23.391 C 113.723 22.331,117.421 23.966,118.753 26.875 C 120.339 30.340,118.936 34.662,115.897 35.673 C 114.599 36.105,114.046 36.531,113.649 37.404 C 113.122 38.564,113.226 38.747,114.051 38.117 C 115.639 36.904,118.492 36.283,120.021 36.816 L 120.562 37.004 120.177 36.594 C 119.965 36.368,119.464 36.030,119.065 35.842 L 118.338 35.501 119.004 34.625 C 123.348 28.913,117.978 20.355,111.167 22.136 M152.711 22.090 C 147.001 23.628,144.726 30.453,148.423 34.949 L 148.861 35.480 148.055 35.889 C 147.612 36.114,147.100 36.468,146.917 36.677 L 146.583 37.057 146.917 36.903 C 148.304 36.266,151.777 36.932,153.138 38.098 C 153.769 38.637,153.833 38.660,153.833 38.341 C 153.833 37.219,152.861 36.182,151.371 35.716 C 148.086 34.688,146.723 29.489,148.859 26.134 C 150.517 23.528,153.773 22.404,156.538 23.482 C 157.839 23.990,157.860 24.145,156.628 24.151 C 150.134 24.181,149.037 33.778,155.319 35.610 C 159.230 36.750,162.590 32.794,161.588 28.230 C 160.618 23.813,156.609 21.041,152.711 22.090 M19.029 22.517 C 13.655 23.222,11.061 30.095,14.434 34.690 C 15.040 35.516,15.035 35.821,14.414 35.831 C 14.175 35.834,12.957 36.679,13.053 36.775 C 13.097 36.819,13.602 36.769,14.177 36.665 C 15.974 36.339,18.151 36.912,19.451 38.052 L 20.057 38.583 19.953 37.917 C 19.813 37.020,18.673 35.958,17.550 35.678 C 15.246 35.103,13.546 31.910,14.010 29.030 C 14.699 24.756,19.312 22.177,23.049 23.975 L 24.083 24.473 22.818 24.486 C 16.891 24.550,15.188 32.802,20.592 35.275 C 24.435 37.035,28.716 33.263,27.834 28.895 C 26.941 24.470,23.445 21.937,19.029 22.517 M285.696 22.504 C 280.372 23.279,277.838 29.659,280.939 34.479 L 281.645 35.577 280.839 35.960 C 279.786 36.461,279.365 36.920,280.087 36.781 C 281.443 36.518,282.044 36.491,282.923 36.654 C 284.106 36.872,285.591 37.537,286.231 38.134 L 286.712 38.583 286.612 37.932 C 286.463 36.958,285.013 35.667,284.068 35.667 C 283.541 35.667,282.627 34.947,281.900 33.960 C 277.920 28.553,283.782 21.184,289.800 24.029 L 290.583 24.399 289.167 24.500 C 282.127 25.001,282.367 35.780,289.417 35.730 C 294.648 35.693,296.331 28.176,291.983 24.267 C 290.258 22.715,288.203 22.139,285.696 22.504 M310.896 22.496 C 305.508 23.312,302.847 30.547,306.569 34.263 C 310.883 38.571,317.638 32.822,314.678 27.361 C 313.616 25.402,311.205 24.094,309.291 24.439 C 308.433 24.594,309.188 24.109,310.422 23.712 C 313.733 22.650,317.322 24.626,318.419 28.115 C 319.353 31.084,317.690 35.036,315.248 35.649 C 313.705 36.037,312.667 37.020,312.667 38.093 L 312.667 38.562 313.125 38.124 C 314.173 37.122,315.387 36.750,317.613 36.750 C 319.850 36.750,320.014 36.585,318.453 35.907 C 318.067 35.739,317.724 35.583,317.691 35.561 C 317.659 35.540,317.939 35.094,318.313 34.572 C 322.300 29.004,317.672 21.469,310.896 22.496 M43.075 22.794 C 41.218 23.591,39.874 24.773,39.108 26.284 C 36.031 32.356,41.200 38.256,46.440 34.651 C 50.737 31.694,48.486 24.527,43.250 24.496 C 41.841 24.488,42.025 24.211,43.807 23.661 C 47.127 22.636,50.604 24.590,51.755 28.128 C 52.686 30.990,51.144 34.823,48.761 35.572 C 47.160 36.076,46.000 37.154,46.000 38.139 L 46.000 38.562 46.458 38.124 C 47.506 37.122,48.721 36.750,50.947 36.750 C 53.183 36.750,53.347 36.585,51.787 35.907 C 51.400 35.739,51.064 35.590,51.039 35.576 C 51.015 35.562,51.326 35.058,51.730 34.456 C 54.423 30.440,53.116 25.310,48.863 23.207 C 47.322 22.444,44.380 22.235,43.075 22.794 M109.815 26.427 C 111.064 27.478,110.308 29.507,108.671 29.496 C 107.359 29.488,106.606 28.078,107.250 26.833 C 107.741 25.884,108.943 25.693,109.815 26.427 M159.679 26.487 C 160.786 27.594,160.040 29.500,158.500 29.500 C 157.957 29.500,157.703 29.395,157.321 29.013 C 156.214 27.906,156.960 26.000,158.500 26.000 C 159.043 26.000,159.297 26.105,159.679 26.487 M21.508 26.421 C 22.089 26.721,22.554 27.709,22.414 28.347 C 22.075 29.890,19.657 30.068,19.167 28.586 C 18.643 26.998,20.070 25.677,21.508 26.421 M42.028 26.404 C 43.121 26.861,43.448 28.382,42.609 29.104 C 40.950 30.530,38.874 28.738,40.071 26.913 C 40.539 26.197,41.152 26.038,42.028 26.404 M86.417 26.275 C 83.177 26.949,80.862 28.973,80.410 31.526 C 80.095 33.303,81.981 33.261,82.589 31.477 C 83.871 27.712,90.067 27.293,92.110 30.833 C 93.104 32.555,93.256 32.750,93.641 32.805 C 95.300 33.042,94.812 30.449,92.821 28.456 C 91.073 26.704,88.524 25.836,86.417 26.275 M178.250 26.340 C 174.888 27.029,171.357 31.024,172.818 32.484 C 173.514 33.181,174.010 32.913,174.723 31.458 C 176.726 27.362,183.129 27.336,184.584 31.417 C 185.242 33.261,187.058 33.304,186.764 31.468 C 186.230 28.129,181.988 25.574,178.250 26.340 M288.542 26.836 C 289.391 27.768,289.074 29.118,287.916 29.500 C 287.034 29.791,286.205 29.466,285.887 28.705 C 285.108 26.841,287.203 25.366,288.542 26.836 M309.334 26.956 C 310.072 27.894,309.549 29.382,308.407 29.596 C 307.167 29.829,306.222 28.999,306.381 27.817 C 306.591 26.255,308.374 25.735,309.334 26.956 M347.167 27.121 C 345.835 28.815,349.380 32.834,352.801 33.507 C 356.879 34.309,361.491 31.282,361.498 27.798 C 361.502 26.115,360.251 26.266,359.437 28.046 C 357.340 32.630,350.738 32.624,349.071 28.037 C 348.573 26.665,347.813 26.299,347.167 27.121 M371.818 26.979 C 370.970 27.666,371.771 29.929,373.411 31.480 C 375.792 33.731,379.177 34.285,382.103 32.900 C 384.653 31.694,386.817 28.275,385.787 27.078 C 385.139 26.324,384.598 26.585,383.988 27.943 C 381.909 32.576,375.213 32.667,373.582 28.083 C 373.109 26.754,372.538 26.396,371.818 26.979 M213.706 29.017 C 211.965 29.665,214.220 33.722,217.072 35.071 C 221.244 37.044,226.502 34.909,227.661 30.770 C 228.274 28.579,226.425 28.178,225.623 30.329 C 224.335 33.780,219.428 34.817,216.655 32.223 C 215.968 31.580,215.695 31.151,214.936 29.517 C 214.709 29.031,214.212 28.829,213.706 29.017 M237.929 29.262 C 237.238 29.952,237.935 31.932,239.413 33.482 C 243.353 37.613,250.851 35.934,252.175 30.626 C 252.683 28.591,251.116 28.346,250.142 30.308 C 247.951 34.721,241.218 34.761,239.826 30.369 C 239.404 29.037,238.614 28.577,237.929 29.262 M46.010 32.686 C 46.227 33.091,45.665 33.833,45.141 33.833 C 44.729 33.833,44.278 33.105,44.418 32.664 C 44.649 31.936,45.616 31.949,46.010 32.686 M113.270 32.423 C 113.832 33.281,112.748 34.260,111.993 33.577 C 111.594 33.216,111.574 32.712,111.942 32.305 C 112.338 31.868,112.941 31.921,113.270 32.423 M155.238 32.262 C 155.578 32.602,155.572 33.144,155.224 33.529 C 154.457 34.376,153.267 33.134,154.000 32.251 C 154.270 31.924,154.906 31.930,155.238 32.262 M291.969 32.977 C 292.013 33.415,291.948 33.528,291.571 33.671 C 290.724 33.993,290.001 33.149,290.542 32.468 C 291.056 31.819,291.883 32.114,291.969 32.977 M25.158 32.407 C 25.431 32.735,25.314 33.510,24.957 33.733 C 24.281 34.156,23.329 33.025,23.841 32.407 C 24.098 32.097,24.901 32.097,25.158 32.407 M312.467 32.367 C 312.740 32.640,312.718 33.250,312.427 33.492 C 311.740 34.062,310.597 33.103,311.158 32.427 C 311.414 32.119,312.183 32.083,312.467 32.367 M365.083 33.145 C 363.459 33.887,362.318 35.787,362.200 37.945 C 361.881 43.804,367.618 46.056,369.982 41.000 C 371.843 37.020,368.464 31.601,365.083 33.145 M298.919 33.705 C 297.940 33.971,296.476 35.494,296.072 36.668 C 294.388 41.560,298.883 46.089,302.223 42.867 C 305.643 39.568,303.118 32.564,298.919 33.705 M347.555 34.081 C 346.525 34.601,345.999 35.117,346.667 34.952 C 348.880 34.405,351.519 35.003,352.980 36.384 L 353.544 36.917 353.443 36.254 C 353.119 34.133,349.844 32.924,347.555 34.081 M382.083 33.873 C 380.678 34.378,379.669 35.432,379.667 36.396 L 379.667 36.876 380.389 36.210 C 381.689 35.012,384.371 34.401,386.250 34.876 L 386.750 35.003 386.202 34.526 C 385.276 33.719,383.357 33.415,382.083 33.873 M29.618 34.104 C 29.364 34.358,29.520 35.285,29.913 35.864 C 31.488 38.181,35.935 37.576,36.589 34.956 C 36.856 33.888,35.877 33.673,35.253 34.662 C 34.176 36.369,31.977 36.427,30.872 34.779 C 30.435 34.128,29.889 33.833,29.618 34.104 M96.778 34.111 C 96.194 34.695,97.215 36.412,98.538 37.071 C 100.518 38.058,103.312 37.071,103.915 35.173 C 104.299 33.963,103.132 33.487,102.547 34.616 C 101.597 36.446,99.226 36.477,98.087 34.673 C 97.684 34.034,97.104 33.785,96.778 34.111 M163.347 34.375 C 163.168 34.845,163.515 35.736,164.134 36.396 C 165.913 38.294,169.486 37.615,170.491 35.189 C 170.981 34.006,169.810 33.518,169.114 34.615 C 167.941 36.460,165.708 36.499,164.696 34.692 C 164.243 33.883,163.592 33.730,163.347 34.375 M229.367 34.367 C 227.761 35.972,231.917 38.582,234.333 37.486 C 236.226 36.628,237.209 34.167,235.658 34.167 C 235.577 34.167,235.251 34.571,234.935 35.066 C 233.858 36.749,231.651 36.775,230.669 35.116 C 230.084 34.128,229.780 33.953,229.367 34.367 M214.162 36.089 C 213.746 36.217,213.187 36.551,212.919 36.831 L 212.431 37.340 212.975 37.150 C 214.618 36.578,217.849 37.309,219.125 38.542 L 219.667 39.065 219.667 38.608 C 219.667 36.656,216.710 35.304,214.162 36.089 M248.283 36.064 C 246.850 36.598,246.108 37.337,245.902 38.436 L 245.781 39.080 246.425 38.515 C 247.861 37.254,250.338 36.604,252.046 37.039 C 253.168 37.325,253.111 37.108,251.876 36.384 C 250.972 35.854,249.256 35.701,248.283 36.064 M368.338 39.234 C 369.126 39.755,369.170 40.098,368.576 41.111 C 367.462 43.012,365.049 42.928,364.000 40.951 C 363.043 39.147,366.275 37.868,368.338 39.234 M301.511 39.508 C 302.515 40.016,302.578 40.191,302.099 41.136 C 300.979 43.346,297.980 43.089,297.262 40.721 C 296.897 39.517,299.859 38.671,301.511 39.508 " stroke="none" fill="#0b0404" fill-rule="evenodd"></path><path id="path1" d="M28.417 9.684 C 15.288 11.276,7.572 19.039,7.635 30.593 C 7.668 36.721,9.408 41.342,13.138 45.203 L 14.380 46.489 14.264 47.786 C 14.200 48.500,13.959 50.381,13.730 51.968 C 13.500 53.555,13.336 54.965,13.365 55.103 C 13.403 55.284,14.051 54.958,15.750 53.903 C 22.085 49.967,21.723 50.112,23.811 50.668 C 27.420 51.627,34.954 51.921,39.417 51.276 C 52.825 49.336,60.107 40.078,58.321 27.239 C 56.619 14.997,44.288 7.759,28.417 9.684 M95.083 9.684 C 85.383 10.860,78.762 15.226,75.844 22.371 C 72.602 30.307,74.362 39.952,80.063 45.494 C 81.192 46.592,81.167 46.260,80.493 51.187 C 80.215 53.225,80.009 54.996,80.035 55.123 C 80.067 55.278,80.987 54.794,82.833 53.652 C 88.951 49.865,88.346 50.101,90.478 50.668 C 95.404 51.978,104.356 51.937,109.575 50.581 C 120.711 47.688,126.627 38.735,124.994 27.250 C 123.248 14.968,110.970 7.757,95.083 9.684 M161.325 9.749 C 148.529 11.301,140.972 19.074,140.993 30.663 C 141.004 36.775,142.664 41.242,146.354 45.085 L 147.713 46.500 147.599 47.625 C 147.536 48.244,147.298 50.133,147.070 51.823 C 146.841 53.514,146.676 54.998,146.702 55.122 C 146.734 55.270,147.452 54.913,148.833 54.060 C 155.709 49.815,155.011 50.100,157.144 50.668 C 162.062 51.976,171.031 51.935,176.242 50.581 C 187.530 47.648,193.483 38.421,191.594 26.785 C 189.622 14.638,177.461 7.793,161.325 9.749 M227.873 9.757 C 215.078 11.402,207.667 19.076,207.667 30.679 C 207.667 36.747,209.342 41.253,213.024 45.089 L 214.387 46.508 214.185 48.379 C 214.074 49.408,213.834 51.291,213.650 52.564 C 213.209 55.632,213.122 55.526,215.083 54.314 C 222.284 49.864,221.702 50.107,223.811 50.668 C 228.705 51.969,237.708 51.932,242.877 50.589 C 252.966 47.968,258.500 40.970,258.500 30.833 C 258.500 16.081,245.936 7.435,227.873 9.757 M294.500 9.762 C 281.844 11.383,274.281 19.160,274.311 30.520 C 274.327 36.707,276.050 41.362,279.714 45.120 L 281.049 46.489 280.936 47.703 C 280.874 48.371,280.634 50.257,280.403 51.895 C 279.863 55.726,279.761 55.543,281.750 54.314 C 288.943 49.868,288.345 50.119,290.463 50.666 C 298.652 52.780,309.545 51.635,315.918 47.989 C 328.168 40.979,328.467 21.535,316.444 13.707 C 311.122 10.242,302.646 8.718,294.500 9.762 M361.206 9.757 C 350.653 11.114,343.752 16.533,341.579 25.167 C 339.730 32.518,341.700 40.516,346.548 45.335 L 347.715 46.495 347.603 47.706 C 347.541 48.372,347.301 50.257,347.070 51.895 C 346.530 55.726,346.428 55.542,348.417 54.315 C 355.746 49.792,355.010 50.100,357.144 50.668 C 362.038 51.969,371.042 51.932,376.210 50.589 C 387.481 47.661,393.350 38.659,391.593 26.999 C 389.740 14.711,377.352 7.682,361.206 9.757 M115.167 22.224 C 120.300 24.041,122.274 30.107,119.171 34.529 L 118.507 35.474 119.253 35.835 C 119.942 36.168,120.766 36.956,120.600 37.122 C 120.561 37.162,120.376 37.112,120.189 37.012 C 118.768 36.252,115.669 36.871,114.041 38.241 C 113.262 38.897,113.062 38.471,113.575 37.245 L 113.816 36.667 113.149 36.667 C 112.373 36.667,110.271 36.219,109.667 35.925 C 109.438 35.813,108.809 35.508,108.270 35.246 C 105.403 33.853,104.508 29.616,106.321 26.024 C 108.021 22.657,111.802 21.033,115.167 22.224 M156.078 22.089 C 161.294 23.447,163.638 30.300,160.255 34.300 C 159.794 34.845,158.400 35.667,157.936 35.667 C 157.803 35.667,157.669 35.736,157.639 35.821 C 157.553 36.060,155.036 36.667,154.131 36.667 L 153.325 36.667 153.559 37.125 C 154.295 38.565,154.095 38.887,152.976 38.065 C 151.124 36.706,148.649 36.319,146.762 37.093 C 146.106 37.362,147.038 36.376,147.875 35.915 C 148.811 35.400,148.793 35.472,148.175 34.699 C 143.665 29.059,149.162 20.288,156.078 22.089 M23.000 22.739 C 27.756 24.462,29.553 31.191,26.114 34.401 C 25.432 35.038,24.321 35.656,23.844 35.663 C 23.713 35.665,23.266 35.831,22.851 36.032 C 22.326 36.286,21.679 36.419,20.719 36.469 L 19.340 36.541 19.670 37.005 C 19.852 37.260,20.000 37.709,20.000 38.004 L 20.000 38.540 19.458 38.127 C 17.818 36.877,15.366 36.320,13.622 36.801 C 12.536 37.101,13.222 36.243,14.412 35.812 L 14.959 35.615 14.318 34.623 C 10.134 28.149,15.951 20.186,23.000 22.739 M48.756 23.060 C 53.230 25.184,54.663 31.288,51.527 34.860 C 50.926 35.545,50.888 35.667,51.277 35.667 C 51.677 35.667,52.942 36.443,53.066 36.764 C 53.148 36.979,53.108 37.008,52.877 36.899 C 51.527 36.263,48.515 36.776,46.844 37.925 C 45.836 38.618,45.653 38.445,46.208 37.323 L 46.616 36.500 45.501 36.500 C 42.384 36.500,39.309 34.617,38.399 32.151 C 36.224 26.257,42.988 20.320,48.756 23.060 M290.258 23.016 C 295.672 25.682,296.013 34.401,290.750 35.589 C 290.475 35.651,289.916 35.858,289.507 36.049 C 289.010 36.282,288.307 36.421,287.385 36.469 L 286.007 36.541 286.337 37.005 C 286.518 37.260,286.667 37.707,286.667 37.998 L 286.667 38.528 285.847 37.926 C 284.291 36.785,281.256 36.280,279.750 36.913 C 279.454 37.038,279.461 37.004,279.814 36.617 C 280.032 36.378,280.528 36.050,280.917 35.890 L 281.622 35.598 280.960 34.628 C 278.205 30.592,279.477 25.207,283.689 23.072 C 285.569 22.119,288.387 22.095,290.258 23.016 M315.456 23.087 C 319.832 25.249,321.213 30.821,318.321 34.643 C 317.538 35.677,317.546 35.614,318.171 35.751 C 318.448 35.812,318.898 36.049,319.171 36.279 C 319.733 36.752,319.842 37.106,319.344 36.839 C 318.202 36.228,314.983 36.828,313.479 37.932 C 313.024 38.266,312.610 38.499,312.560 38.449 C 312.398 38.287,312.680 37.362,313.024 36.924 L 313.358 36.500 312.137 36.497 C 307.927 36.485,304.844 33.778,304.787 30.042 C 304.701 24.394,310.479 20.627,315.456 23.087 M89.590 26.425 C 92.143 27.090,94.700 29.783,94.700 31.807 C 94.700 33.314,93.321 33.202,92.493 31.627 C 90.308 27.471,84.194 27.374,82.660 31.472 C 81.947 33.377,80.123 33.405,80.378 31.507 C 80.866 27.867,85.440 25.345,89.590 26.425 M181.979 26.481 C 185.081 27.446,187.849 31.102,186.558 32.529 C 185.898 33.257,185.118 32.882,184.589 31.581 C 182.924 27.485,176.560 27.419,174.794 31.480 C 174.049 33.193,172.497 33.397,172.502 31.780 C 172.513 28.224,177.901 25.211,181.979 26.481 M348.439 26.794 C 348.543 26.862,348.855 27.420,349.134 28.035 C 351.136 32.462,357.315 32.593,359.265 28.250 C 359.835 26.980,360.111 26.667,360.659 26.667 C 361.734 26.667,361.861 28.334,360.906 29.926 C 357.705 35.268,349.898 34.882,347.231 29.250 C 346.435 27.570,347.209 25.997,348.439 26.794 M373.134 26.877 C 373.230 26.993,373.468 27.514,373.663 28.036 C 375.326 32.479,381.748 32.550,383.829 28.148 C 384.439 26.859,384.615 26.667,385.183 26.667 C 387.247 26.667,385.731 30.757,383.029 32.478 C 378.632 35.279,372.016 32.752,371.383 28.030 C 371.243 26.987,372.524 26.143,373.134 26.877 M214.600 28.961 C 214.700 29.028,215.016 29.571,215.300 30.167 C 217.530 34.835,223.448 34.861,225.597 30.213 C 226.223 28.860,226.670 28.579,227.418 29.069 C 227.967 29.429,227.976 30.439,227.440 31.583 C 224.754 37.316,216.372 37.361,213.522 31.659 C 212.610 29.832,213.304 28.094,214.600 28.961 M239.210 29.042 C 239.360 29.156,239.641 29.678,239.834 30.201 C 241.144 33.750,246.143 34.786,248.896 32.079 C 249.491 31.494,250.328 30.020,250.332 29.551 C 250.334 29.281,250.999 28.833,251.399 28.833 C 253.415 28.833,251.954 32.817,249.266 34.652 C 245.016 37.551,238.486 35.135,237.587 30.329 C 237.389 29.270,238.428 28.446,239.210 29.042 M60.794 30.417 C 60.726 30.783,60.669 31.533,60.668 32.083 C 60.646 39.664,55.968 47.085,49.010 50.576 C 42.580 53.803,32.289 54.716,23.831 52.808 L 22.180 52.436 20.049 53.742 C 13.849 57.539,13.619 57.667,13.013 57.666 C 12.401 57.665,11.333 57.138,11.333 56.836 C 11.333 56.743,11.258 56.667,11.167 56.667 C 10.850 56.667,10.975 58.709,11.324 59.239 C 12.287 60.699,13.569 60.425,17.417 57.936 C 18.333 57.343,19.791 56.431,20.657 55.909 L 22.230 54.961 24.323 55.394 C 44.211 59.512,60.081 50.609,60.974 34.833 C 61.114 32.347,60.992 29.343,60.794 30.417 M260.790 30.167 C 260.725 30.396,260.670 31.146,260.668 31.833 C 260.647 39.759,255.968 47.158,248.750 50.678 C 242.305 53.821,232.202 54.685,223.808 52.811 L 222.182 52.448 221.049 53.117 C 220.426 53.485,218.492 54.665,216.750 55.740 C 213.174 57.946,212.447 58.137,211.559 57.105 C 211.032 56.491,211.000 56.529,211.000 57.770 C 211.000 58.829,211.026 58.898,211.647 59.520 C 212.734 60.607,213.606 60.379,217.167 58.074 C 219.638 56.474,222.134 55.000,222.371 55.000 C 222.489 55.000,223.410 55.183,224.418 55.407 C 231.080 56.888,239.573 56.522,245.356 54.506 C 248.668 53.351,249.377 53.011,251.678 51.479 C 257.105 47.865,260.459 41.945,261.016 35.000 C 261.200 32.703,261.041 29.289,260.790 30.167 M327.456 30.500 C 327.397 30.912,327.311 31.972,327.264 32.854 C 326.835 40.915,322.034 47.783,314.515 51.093 C 308.096 53.918,298.502 54.604,290.475 52.811 L 288.848 52.448 287.716 53.117 C 287.093 53.485,285.158 54.665,283.417 55.740 C 279.840 57.946,279.114 58.137,278.226 57.105 C 277.697 56.489,277.667 56.527,277.667 57.814 C 277.667 58.941,277.678 58.972,278.334 59.564 C 279.441 60.564,280.412 60.308,283.750 58.134 C 286.233 56.518,288.794 55.000,289.037 55.000 C 289.155 55.000,290.077 55.183,291.084 55.407 C 299.862 57.358,310.707 56.084,316.963 52.367 C 323.441 48.518,327.130 42.478,327.672 34.833 C 327.832 32.567,327.659 29.082,327.456 30.500 M127.467 30.500 C 127.403 30.821,127.312 31.810,127.264 32.699 C 126.703 43.110,119.516 50.868,108.480 52.977 C 102.668 54.087,95.909 54.025,90.467 52.810 L 88.833 52.445 86.292 53.998 C 84.894 54.852,82.969 56.027,82.014 56.609 C 79.803 57.956,79.012 58.006,78.042 56.859 L 77.668 56.417 77.644 57.000 C 77.496 60.590,79.506 61.113,83.263 58.461 C 83.714 58.143,85.162 57.224,86.480 56.420 L 88.876 54.957 90.980 55.392 C 100.715 57.408,113.067 55.743,117.983 51.752 C 118.221 51.558,118.908 51.054,119.508 50.632 C 120.878 49.668,123.266 47.173,124.014 45.923 C 126.840 41.202,127.709 38.066,127.629 32.879 C 127.603 31.186,127.534 30.167,127.467 30.500 M394.126 30.333 C 394.059 30.563,394.004 31.228,394.002 31.812 C 393.987 38.961,389.928 46.120,383.848 49.724 C 377.393 53.549,366.888 54.874,358.000 52.983 C 355.302 52.409,355.557 52.389,354.083 53.290 C 353.350 53.738,351.438 54.911,349.833 55.896 C 346.429 57.987,345.756 58.133,344.798 56.986 L 344.333 56.429 344.333 57.689 C 344.333 60.937,346.005 60.960,351.000 57.779 C 355.985 54.605,355.320 54.866,357.255 55.325 C 365.511 57.286,376.014 56.288,382.682 52.909 C 389.841 49.281,394.083 42.343,394.292 33.917 C 394.374 30.573,394.331 29.631,394.126 30.333 M194.000 31.520 C 194.000 47.635,177.911 57.088,157.631 52.889 L 155.512 52.450 154.381 53.118 C 153.759 53.486,151.831 54.659,150.096 55.727 C 147.612 57.254,146.814 57.667,146.346 57.666 C 145.734 57.665,144.667 57.138,144.667 56.836 C 144.667 56.743,144.592 56.667,144.500 56.667 C 144.236 56.667,144.303 58.625,144.586 59.172 C 145.373 60.694,146.900 60.446,150.250 58.253 C 152.609 56.709,155.471 55.000,155.698 55.000 C 155.820 55.000,156.743 55.183,157.751 55.407 C 166.189 57.283,176.720 56.171,182.961 52.745 C 188.598 49.651,192.175 45.055,193.781 38.845 C 194.255 37.014,194.576 30.167,194.189 30.167 C 194.064 30.167,194.000 30.624,194.000 31.520 M5.214 33.435 C 5.399 39.735,7.280 44.695,10.945 48.542 C 11.835 49.476,11.925 49.498,12.063 48.813 C 12.299 47.629,12.203 47.334,11.240 46.294 C 7.830 42.610,5.858 37.807,5.558 32.452 C 5.374 29.161,5.111 29.912,5.214 33.435 M71.871 33.436 C 72.030 39.749,73.991 44.817,77.815 48.792 C 78.481 49.483,78.600 49.473,78.726 48.708 C 78.924 47.510,78.861 47.324,77.893 46.279 C 74.458 42.569,72.507 37.794,72.217 32.391 C 72.044 29.167,71.784 29.953,71.871 33.436 M138.591 30.904 C 138.515 31.263,138.504 32.714,138.567 34.129 C 138.821 39.832,140.743 44.770,144.120 48.398 C 145.149 49.503,145.257 49.530,145.393 48.708 C 145.591 47.510,145.527 47.324,144.560 46.279 C 141.069 42.509,139.257 38.003,138.856 32.102 C 138.748 30.519,138.710 30.345,138.591 30.904 M205.256 30.558 C 205.007 31.115,205.285 36.124,205.664 37.917 C 206.559 42.143,208.184 45.565,210.440 47.970 C 211.948 49.579,211.981 49.585,212.116 48.272 L 212.212 47.341 211.193 46.252 C 207.792 42.616,205.921 37.966,205.525 32.160 C 205.440 30.921,205.346 30.358,205.256 30.558 M338.560 33.417 C 338.673 39.152,340.444 44.226,343.583 47.814 C 345.178 49.636,345.272 49.660,345.434 48.287 L 345.545 47.341 344.564 46.292 C 341.183 42.676,339.196 37.886,338.884 32.598 C 338.705 29.578,338.494 30.112,338.560 33.417 M271.879 33.517 C 272.066 39.562,274.008 44.785,277.356 48.246 C 278.622 49.555,278.651 49.556,278.783 48.275 L 278.878 47.348 277.804 46.187 C 274.474 42.591,272.525 37.823,272.223 32.536 C 272.040 29.340,271.774 30.100,271.879 33.517 M367.750 33.231 C 372.170 35.320,371.013 43.833,366.309 43.833 C 362.729 43.833,360.725 38.537,362.985 35.045 C 364.318 32.984,365.930 32.370,367.750 33.231 M301.087 33.812 C 304.060 35.162,304.874 39.930,302.592 42.628 C 299.971 45.728,295.667 43.334,295.667 38.776 C 295.667 35.315,298.561 32.664,301.087 33.812 M351.531 33.960 C 352.488 34.383,353.279 35.198,353.523 36.010 C 353.786 36.889,353.646 36.966,352.886 36.358 C 351.294 35.085,348.468 34.505,346.583 35.065 L 346.083 35.214 346.500 34.758 C 347.605 33.548,349.810 33.198,351.531 33.960 M384.651 33.679 C 385.245 33.806,385.691 34.050,386.201 34.525 C 386.604 34.902,386.771 35.139,386.583 35.069 C 384.924 34.451,381.839 35.027,380.577 36.190 C 379.762 36.942,379.419 36.914,379.595 36.112 C 379.983 34.346,382.381 33.192,384.651 33.679 M30.359 34.042 C 30.500 34.156,30.788 34.503,31.000 34.813 C 32.071 36.375,34.343 36.282,35.180 34.641 C 35.824 33.378,37.044 34.020,36.499 35.335 C 35.297 38.239,30.004 37.896,29.400 34.875 C 29.250 34.124,29.835 33.615,30.359 34.042 M97.753 34.125 C 97.892 34.285,98.236 34.697,98.518 35.040 C 99.169 35.831,99.994 36.104,100.953 35.846 C 101.606 35.670,101.935 35.374,102.716 34.260 C 103.247 33.503,104.000 33.801,104.000 34.770 C 104.000 35.483,103.121 36.627,102.159 37.166 C 100.283 38.218,97.409 37.202,96.656 35.221 C 96.262 34.186,97.089 33.360,97.753 34.125 M164.337 34.042 C 164.437 34.156,164.662 34.490,164.835 34.783 C 165.790 36.394,168.159 36.315,169.012 34.644 C 169.552 33.586,170.667 33.628,170.667 34.707 C 170.667 37.514,165.731 38.562,163.827 36.159 C 162.833 34.904,163.319 32.884,164.337 34.042 M230.614 34.860 C 231.916 36.783,233.896 36.783,234.971 34.860 C 235.843 33.300,236.988 34.389,236.168 35.998 C 234.790 38.698,229.928 38.327,229.157 35.463 C 228.786 34.085,229.804 33.663,230.614 34.860 M217.584 36.094 C 218.786 36.596,219.833 37.871,219.833 38.832 C 219.833 39.135,219.738 39.099,219.000 38.516 C 217.496 37.327,214.975 36.721,213.358 37.159 C 212.165 37.482,212.282 36.955,213.546 36.310 C 214.832 35.654,216.337 35.573,217.584 36.094 M251.583 36.162 C 251.950 36.323,252.438 36.664,252.667 36.919 L 253.083 37.383 252.667 37.259 C 250.643 36.661,247.709 37.284,246.513 38.567 C 245.976 39.142,245.833 39.113,245.833 38.429 C 245.833 36.488,249.251 35.140,251.583 36.162 M297.568 41.137 C 297.702 41.396,297.942 41.715,298.101 41.845 C 298.264 41.980,298.187 41.776,297.923 41.375 C 297.388 40.564,297.210 40.445,297.568 41.137 " stroke="none" fill="#f05774" fill-rule="evenodd"></path><path id="path2" d="M111.083 23.390 C 109.475 23.920,109.383 24.093,110.708 24.093 C 111.622 24.094,112.106 24.186,112.694 24.472 C 118.304 27.196,116.670 35.806,110.536 35.838 C 109.376 35.845,109.614 36.022,111.283 36.397 C 113.022 36.788,113.695 36.746,114.711 36.185 C 115.191 35.920,115.858 35.616,116.193 35.510 C 118.744 34.705,120.155 29.975,118.732 27.000 C 117.309 24.027,113.954 22.443,111.083 23.390 M152.667 23.315 C 149.496 24.370,147.657 27.099,147.871 30.432 C 148.018 32.723,149.519 35.033,151.213 35.578 C 151.692 35.732,152.377 36.049,152.736 36.282 C 153.505 36.784,154.789 36.766,156.667 36.227 L 157.750 35.917 156.500 35.826 C 149.246 35.297,149.324 24.051,156.581 24.096 L 157.745 24.103 156.831 23.686 C 155.854 23.240,153.517 23.032,152.667 23.315 M18.383 23.846 C 13.214 25.484,12.470 34.124,17.374 35.580 C 17.838 35.718,18.473 35.981,18.785 36.165 C 19.503 36.589,21.075 36.613,22.345 36.220 L 23.250 35.939 22.250 35.805 C 15.312 34.869,15.702 24.605,22.682 24.445 C 23.542 24.425,23.639 24.392,23.384 24.206 C 22.396 23.483,20.060 23.315,18.383 23.846 M43.821 23.730 C 42.564 24.093,42.283 24.322,43.083 24.330 C 50.299 24.407,50.754 34.854,43.583 35.807 L 42.583 35.939 43.489 36.220 C 44.848 36.641,46.457 36.592,47.354 36.102 C 47.755 35.883,48.383 35.612,48.750 35.499 C 51.504 34.655,52.836 30.260,51.287 27.125 C 49.913 24.345,46.720 22.893,43.821 23.730 M285.214 23.732 C 279.839 25.485,279.012 33.959,284.057 35.595 C 284.530 35.749,285.151 36.015,285.436 36.187 C 286.104 36.589,287.769 36.604,289.011 36.220 L 289.917 35.939 288.940 35.807 C 281.990 34.863,282.391 24.558,289.382 24.451 L 290.569 24.432 289.660 24.017 C 288.550 23.511,286.329 23.369,285.214 23.732 M310.197 23.807 C 309.192 24.165,308.718 24.508,309.410 24.375 C 310.143 24.235,311.871 24.665,312.704 25.195 C 317.459 28.221,315.786 35.057,310.102 35.824 L 309.250 35.938 310.155 36.219 C 311.435 36.616,313.160 36.591,313.882 36.165 C 314.194 35.981,314.825 35.719,315.285 35.582 C 316.975 35.080,318.446 32.888,318.618 30.615 C 318.972 25.928,314.467 22.286,310.197 23.807 M108.065 26.163 C 107.092 26.556,106.758 27.684,107.334 28.629 C 108.242 30.119,110.333 29.446,110.333 27.664 C 110.333 26.458,109.197 25.706,108.065 26.163 M157.898 26.157 C 156.312 26.826,156.649 29.170,158.371 29.444 C 159.218 29.578,160.167 28.694,160.167 27.769 C 160.167 26.662,158.876 25.744,157.898 26.157 M19.576 26.742 C 18.615 27.703,19.272 29.500,20.584 29.500 C 22.077 29.500,22.749 28.453,22.082 27.163 C 21.599 26.230,20.305 26.013,19.576 26.742 M40.486 26.547 C 39.429 27.358,39.668 29.088,40.893 29.492 C 42.537 30.035,43.741 28.048,42.513 26.821 C 41.982 26.289,40.995 26.156,40.486 26.547 M286.242 26.742 C 285.242 27.743,285.941 29.500,287.339 29.500 C 288.267 29.500,289.000 28.801,289.000 27.917 C 289.000 26.548,287.203 25.782,286.242 26.742 M307.131 26.592 C 306.439 26.968,306.191 27.974,306.611 28.696 C 307.597 30.390,309.960 29.531,309.599 27.609 C 309.392 26.507,308.196 26.014,307.131 26.592 M112.000 32.333 C 111.817 32.517,111.667 32.779,111.667 32.917 C 111.667 33.616,112.605 34.029,113.058 33.529 C 113.858 32.644,112.840 31.494,112.000 32.333 M154.109 32.305 C 153.714 32.741,153.769 33.283,154.239 33.591 C 155.040 34.116,155.892 33.043,155.244 32.327 C 154.874 31.918,154.466 31.910,154.109 32.305 M23.942 32.471 C 23.582 32.870,23.595 33.095,24.000 33.500 C 24.544 34.044,25.333 33.748,25.333 33.000 C 25.333 32.265,24.437 31.925,23.942 32.471 M44.700 32.367 C 44.233 32.834,44.585 33.667,45.250 33.667 C 45.952 33.667,46.241 32.932,45.738 32.429 C 45.426 32.117,44.977 32.090,44.700 32.367 M290.590 32.493 C 289.941 33.210,290.945 34.118,291.706 33.502 C 292.022 33.246,292.052 33.131,291.910 32.726 C 291.698 32.120,291.034 32.002,290.590 32.493 M311.262 32.429 C 310.955 32.736,310.938 32.906,311.173 33.344 C 311.368 33.710,312.150 33.784,312.467 33.467 C 312.908 33.025,312.489 32.167,311.833 32.167 C 311.663 32.167,311.406 32.285,311.262 32.429 " stroke="none" fill="#faf3e2" fill-rule="evenodd"></path><path id="path3" d="M20.127 23.451 C 20.334 23.491,20.634 23.490,20.794 23.448 C 20.953 23.406,20.783 23.374,20.417 23.375 C 20.050 23.377,19.920 23.411,20.127 23.451 M207.558 30.500 C 207.558 31.279,207.587 31.598,207.622 31.208 C 207.657 30.819,207.657 30.181,207.622 29.792 C 207.587 29.402,207.558 29.721,207.558 30.500 M119.372 29.833 C 119.372 30.154,119.406 30.285,119.448 30.125 C 119.490 29.965,119.490 29.702,119.448 29.542 C 119.406 29.381,119.372 29.512,119.372 29.833 M140.887 31.000 C 140.887 31.596,140.917 31.840,140.954 31.542 C 140.991 31.244,140.991 30.756,140.954 30.458 C 140.917 30.160,140.887 30.404,140.887 31.000 M191.881 31.083 C 191.882 31.542,191.915 31.709,191.953 31.456 C 191.991 31.203,191.990 30.828,191.951 30.623 C 191.911 30.418,191.880 30.625,191.881 31.083 M125.209 31.083 C 125.211 31.450,125.245 31.580,125.285 31.373 C 125.324 31.166,125.323 30.866,125.281 30.706 C 125.239 30.547,125.207 30.717,125.209 31.083 M274.209 31.083 C 274.211 31.450,274.245 31.580,274.285 31.373 C 274.324 31.166,274.323 30.866,274.281 30.706 C 274.239 30.547,274.207 30.717,274.209 31.083 M7.539 31.167 C 7.539 31.488,7.573 31.619,7.615 31.458 C 7.657 31.298,7.657 31.035,7.615 30.875 C 7.573 30.715,7.539 30.846,7.539 31.167 M384.292 34.784 C 384.498 34.824,384.835 34.824,385.042 34.784 C 385.248 34.745,385.079 34.712,384.667 34.712 C 384.254 34.712,384.085 34.745,384.292 34.784 M220.211 35.953 C 220.464 35.991,220.839 35.990,221.044 35.951 C 221.249 35.911,221.042 35.880,220.583 35.881 C 220.125 35.882,219.957 35.915,220.211 35.953 M244.542 35.953 C 244.794 35.991,245.206 35.991,245.458 35.953 C 245.710 35.915,245.504 35.883,245.000 35.883 C 244.496 35.883,244.290 35.915,244.542 35.953 M380.240 36.375 L 379.750 36.917 380.292 36.427 C 380.797 35.971,380.910 35.833,380.781 35.833 C 380.752 35.833,380.509 36.077,380.240 36.375 M100.127 37.618 C 100.334 37.658,100.634 37.656,100.794 37.615 C 100.953 37.573,100.783 37.540,100.417 37.542 C 100.050 37.544,99.920 37.578,100.127 37.618 M166.458 37.618 C 166.665 37.657,167.002 37.657,167.208 37.618 C 167.415 37.578,167.246 37.545,166.833 37.545 C 166.421 37.545,166.252 37.578,166.458 37.618 M303.879 38.833 C 303.879 39.246,303.911 39.415,303.951 39.208 C 303.991 39.002,303.991 38.665,303.951 38.458 C 303.911 38.252,303.879 38.421,303.879 38.833 M365.292 38.860 C 365.040 38.952,364.833 39.109,364.833 39.208 C 364.833 39.308,364.793 39.349,364.744 39.300 C 364.695 39.251,364.432 39.419,364.160 39.673 C 363.639 40.160,363.638 40.549,364.156 40.953 C 364.300 41.065,364.358 41.158,364.286 41.161 C 364.009 41.173,365.333 42.327,365.739 42.429 C 366.868 42.712,368.174 41.944,368.755 40.655 L 369.069 39.960 368.543 39.490 C 367.711 38.746,366.334 38.480,365.292 38.860 M298.596 39.363 C 298.419 39.465,298.091 39.744,297.867 39.983 C 297.642 40.221,297.560 40.267,297.685 40.083 C 297.909 39.753,297.907 39.753,297.537 40.069 C 297.192 40.363,297.184 40.410,297.432 40.683 C 297.579 40.846,297.649 41.061,297.587 41.160 C 297.525 41.261,297.573 41.321,297.696 41.296 C 297.817 41.271,297.917 41.391,297.918 41.563 C 297.922 43.093,300.890 42.926,301.962 41.335 C 302.926 39.905,300.306 38.370,298.596 39.363 M80.083 45.667 C 80.535 46.125,80.942 46.500,80.987 46.500 C 81.033 46.500,80.701 46.125,80.250 45.667 C 79.799 45.208,79.392 44.833,79.346 44.833 C 79.300 44.833,79.632 45.208,80.083 45.667 M13.493 45.708 C 13.902 46.144,14.258 46.500,14.285 46.500 C 14.410 46.500,14.278 46.350,13.542 45.660 L 12.750 44.917 13.493 45.708 M146.826 45.708 C 147.235 46.144,147.591 46.500,147.618 46.500 C 147.743 46.500,147.611 46.350,146.875 45.660 L 146.083 44.917 146.826 45.708 M213.493 45.708 C 213.902 46.144,214.258 46.500,214.285 46.500 C 214.410 46.500,214.278 46.350,213.542 45.660 L 212.750 44.917 213.493 45.708 M280.160 45.708 C 280.850 46.444,281.000 46.577,281.000 46.451 C 281.000 46.425,280.644 46.068,280.208 45.660 L 279.417 44.917 280.160 45.708 M346.667 45.552 C 346.667 45.581,346.910 45.825,347.208 46.094 L 347.750 46.583 347.260 46.042 C 346.804 45.537,346.667 45.423,346.667 45.552 " stroke="none" fill="#943a4a" fill-rule="evenodd"></path><path id="path4" d="M32.542 9.455 C 32.885 9.491,33.448 9.491,33.792 9.455 C 34.135 9.419,33.854 9.389,33.167 9.389 C 32.479 9.389,32.198 9.419,32.542 9.455 M99.121 9.454 C 99.417 9.490,99.942 9.491,100.288 9.455 C 100.634 9.419,100.392 9.389,99.750 9.388 C 99.108 9.387,98.825 9.417,99.121 9.454 M165.788 9.454 C 166.084 9.490,166.609 9.491,166.955 9.455 C 167.300 9.419,167.058 9.389,166.417 9.388 C 165.775 9.387,165.492 9.417,165.788 9.454 M232.455 9.454 C 232.750 9.490,233.275 9.491,233.621 9.455 C 233.967 9.419,233.725 9.389,233.083 9.388 C 232.442 9.387,232.159 9.417,232.455 9.454 M299.121 9.454 C 299.417 9.490,299.942 9.491,300.288 9.455 C 300.634 9.419,300.392 9.389,299.750 9.388 C 299.108 9.387,298.825 9.417,299.121 9.454 M365.963 9.456 C 366.355 9.491,366.955 9.490,367.296 9.454 C 367.637 9.419,367.317 9.390,366.583 9.390 C 365.850 9.391,365.571 9.420,365.963 9.456 M45.208 22.453 C 45.460 22.491,45.873 22.491,46.125 22.453 C 46.377 22.415,46.171 22.383,45.667 22.383 C 45.163 22.383,44.956 22.415,45.208 22.453 M45.125 23.454 C 45.423 23.491,45.910 23.491,46.208 23.454 C 46.506 23.417,46.262 23.387,45.667 23.387 C 45.071 23.387,44.827 23.417,45.125 23.454 M294.548 29.917 C 294.549 30.375,294.581 30.543,294.620 30.289 C 294.658 30.036,294.657 29.661,294.617 29.456 C 294.578 29.251,294.546 29.458,294.548 29.917 M17.214 30.083 C 17.216 30.542,17.248 30.709,17.286 30.456 C 17.325 30.203,17.324 29.828,17.284 29.623 C 17.244 29.418,17.213 29.625,17.214 30.083 M58.562 31.000 C 58.562 31.962,58.589 32.356,58.623 31.875 C 58.657 31.394,58.657 30.606,58.623 30.125 C 58.589 29.644,58.562 30.037,58.562 31.000 M125.205 30.000 C 125.205 30.321,125.240 30.452,125.282 30.292 C 125.323 30.131,125.323 29.869,125.282 29.708 C 125.240 29.548,125.205 29.679,125.205 30.000 M283.875 30.083 C 283.877 30.450,283.911 30.580,283.951 30.373 C 283.991 30.166,283.990 29.866,283.948 29.706 C 283.906 29.547,283.874 29.717,283.875 30.083 M315.372 30.167 C 315.372 30.488,315.406 30.619,315.448 30.458 C 315.490 30.298,315.490 30.035,315.448 29.875 C 315.406 29.715,315.372 29.846,315.372 30.167 M391.885 31.083 C 391.886 31.633,391.917 31.838,391.954 31.539 C 391.991 31.239,391.990 30.789,391.952 30.539 C 391.914 30.288,391.884 30.533,391.885 31.083 M325.214 31.083 C 325.216 31.542,325.248 31.709,325.286 31.456 C 325.325 31.203,325.324 30.828,325.284 30.623 C 325.244 30.418,325.213 30.625,325.214 31.083 M125.205 32.167 C 125.205 32.487,125.240 32.619,125.282 32.458 C 125.323 32.298,125.323 32.035,125.282 31.875 C 125.240 31.715,125.205 31.846,125.205 32.167 M274.205 32.167 C 274.205 32.487,274.240 32.619,274.282 32.458 C 274.323 32.298,274.323 32.035,274.282 31.875 C 274.240 31.715,274.205 31.846,274.205 32.167 M347.958 34.784 C 348.165 34.824,348.502 34.824,348.708 34.784 C 348.915 34.745,348.746 34.712,348.333 34.712 C 347.921 34.712,347.752 34.745,347.958 34.784 M250.627 36.951 C 250.834 36.991,251.134 36.990,251.294 36.948 C 251.453 36.906,251.283 36.874,250.917 36.875 C 250.550 36.877,250.420 36.911,250.627 36.951 " stroke="none" fill="#7c2730" fill-rule="evenodd"></path></g></svg>