<svg id="svg" version="1.1" xmlns="http://www.w3.org/2000/svg" xmlns:xlink="http://www.w3.org/1999/xlink" width="400" height="133.33333333333334" viewBox="0, 0, 400,133.33333333333334"><g id="svgg"><path id="path0" d="M57.333 14.953 C 56.495 15.021,51.004 15.882,48.929 16.270 C 48.189 16.408,47.021 16.701,46.333 16.921 C 45.646 17.141,44.072 17.626,42.836 18.000 C 38.819 19.214,32.047 22.440,30.250 23.995 C 30.067 24.154,29.804 24.323,29.667 24.371 C 28.137 24.903,19.000 33.725,19.000 34.670 C 19.000 34.753,18.790 35.068,18.534 35.369 C 17.907 36.106,16.590 38.439,15.262 41.167 C 11.043 49.835,9.892 61.464,12.170 72.417 C 13.802 80.266,17.621 87.476,23.217 93.276 L 24.528 94.635 24.353 96.376 C 24.256 97.333,24.110 98.296,24.027 98.516 C 23.944 98.737,23.716 100.079,23.520 101.500 C 23.324 102.921,23.007 105.208,22.816 106.583 C 22.004 112.428,22.051 113.078,23.375 114.328 C 24.957 115.821,26.629 115.665,29.788 113.730 C 30.817 113.099,34.267 110.979,37.454 109.018 C 40.642 107.057,43.495 105.307,43.793 105.128 C 44.390 104.772,44.371 104.770,48.333 105.668 C 56.605 107.545,65.924 108.028,75.727 107.088 C 100.873 104.677,116.951 91.462,120.646 70.167 C 121.385 65.906,121.655 57.854,121.135 55.583 C 120.988 54.942,120.705 53.367,120.506 52.083 C 119.647 46.529,116.556 39.008,113.425 34.854 C 113.054 34.361,112.582 33.708,112.378 33.403 C 111.848 32.616,108.025 28.525,107.001 27.651 C 106.528 27.247,105.820 26.635,105.427 26.292 C 105.034 25.948,104.664 25.667,104.605 25.667 C 104.545 25.667,103.954 25.270,103.290 24.785 C 101.479 23.461,96.756 20.693,95.833 20.415 C 95.604 20.346,94.704 19.972,93.833 19.585 C 88.795 17.343,80.289 15.396,73.814 15.002 C 71.293 14.849,59.054 14.812,57.333 14.953 M190.667 14.953 C 189.828 15.021,184.337 15.882,182.262 16.270 C 181.522 16.408,180.354 16.701,179.667 16.921 C 178.979 17.141,177.405 17.626,176.169 18.000 C 172.152 19.214,165.380 22.440,163.583 23.995 C 163.400 24.154,163.137 24.323,163.000 24.371 C 161.471 24.903,152.333 33.725,152.333 34.670 C 152.333 34.753,152.124 35.068,151.867 35.369 C 151.240 36.106,149.923 38.439,148.595 41.167 C 144.376 49.835,143.226 61.464,145.503 72.417 C 147.135 80.266,150.954 87.476,156.550 93.276 L 157.861 94.635 157.686 96.376 C 157.590 97.333,157.443 98.296,157.360 98.516 C 157.277 98.737,157.049 100.079,156.853 101.500 C 156.657 102.921,156.341 105.208,156.149 106.583 C 155.337 112.428,155.384 113.078,156.708 114.328 C 158.290 115.821,159.963 115.665,163.121 113.730 C 164.150 113.099,167.600 110.979,170.788 109.018 C 173.975 107.057,176.828 105.307,177.127 105.128 C 177.724 104.772,177.704 104.770,181.667 105.668 C 190.948 107.774,202.277 108.131,212.750 106.647 C 235.746 103.389,250.476 90.356,253.979 70.167 C 254.718 65.906,254.988 57.854,254.468 55.583 C 254.321 54.942,254.038 53.367,253.839 52.083 C 252.980 46.529,249.889 39.008,246.759 34.854 C 246.387 34.361,245.916 33.708,245.711 33.403 C 245.181 32.616,241.358 28.525,240.334 27.651 C 239.861 27.247,239.153 26.635,238.760 26.292 C 238.367 25.948,237.997 25.667,237.938 25.667 C 237.879 25.667,237.287 25.270,236.623 24.785 C 234.812 23.461,230.089 20.693,229.167 20.415 C 228.938 20.346,228.037 19.972,227.167 19.585 C 222.250 17.398,213.803 15.440,207.417 15.008 C 205.120 14.852,192.408 14.811,190.667 14.953 M324.000 14.953 C 323.162 15.021,317.671 15.882,315.595 16.270 C 314.855 16.408,313.688 16.701,313.000 16.921 C 312.313 17.141,310.739 17.626,309.503 18.000 C 305.486 19.214,298.713 22.440,296.917 23.995 C 296.733 24.154,296.471 24.323,296.333 24.371 C 294.804 24.903,285.667 33.725,285.667 34.670 C 285.667 34.753,285.457 35.068,285.201 35.369 C 284.573 36.106,283.257 38.439,281.929 41.167 C 277.710 49.835,276.559 61.464,278.836 72.417 C 280.469 80.266,284.287 87.476,289.883 93.276 L 291.195 94.635 291.019 96.376 C 290.923 97.333,290.776 98.296,290.693 98.516 C 290.611 98.737,290.382 100.079,290.186 101.500 C 289.991 102.921,289.674 105.208,289.483 106.583 C 288.671 112.428,288.718 113.078,290.041 114.328 C 291.623 115.821,293.296 115.665,296.454 113.730 C 297.484 113.099,300.934 110.979,304.121 109.018 C 307.309 107.057,310.161 105.307,310.460 105.128 C 311.057 104.772,311.038 104.770,315.000 105.668 C 326.907 108.370,341.970 108.171,353.583 105.160 C 372.398 100.281,384.215 88.022,387.312 70.167 C 388.052 65.906,388.322 57.854,387.801 55.583 C 387.654 54.942,387.371 53.367,387.173 52.083 C 386.313 46.529,383.222 39.008,380.092 34.854 C 379.721 34.361,379.249 33.708,379.044 33.403 C 378.515 32.616,374.692 28.525,373.668 27.651 C 373.195 27.247,372.486 26.635,372.093 26.292 C 371.701 25.948,371.331 25.667,371.271 25.667 C 371.212 25.667,370.620 25.270,369.957 24.785 C 368.146 23.461,363.422 20.693,362.500 20.415 C 362.271 20.346,361.371 19.972,360.500 19.585 C 355.325 17.282,346.751 15.346,340.185 14.997 C 337.430 14.851,325.645 14.818,324.000 14.953 M71.417 19.001 C 96.228 20.216,112.949 32.975,116.607 53.484 C 117.550 58.769,117.262 67.628,115.980 72.750 C 112.424 86.963,102.380 96.616,86.500 101.081 C 75.832 104.081,56.779 104.205,47.250 101.337 C 44.151 100.404,43.660 100.464,40.982 102.102 C 37.267 104.375,35.689 105.347,33.168 106.917 C 29.330 109.306,26.780 110.833,26.630 110.833 C 26.439 110.833,26.470 110.148,26.739 108.437 C 26.974 106.943,27.387 104.038,27.928 100.083 C 28.078 98.983,28.301 96.958,28.423 95.583 L 28.644 93.083 26.765 91.167 C 18.804 83.044,15.150 73.599,15.125 61.083 C 15.077 36.542,33.392 19.922,61.500 19.001 C 66.581 18.835,68.023 18.835,71.417 19.001 M204.083 18.999 C 229.259 19.967,246.239 32.736,249.941 53.484 C 250.884 58.769,250.595 67.628,249.314 72.750 C 245.758 86.962,235.710 96.619,219.833 101.081 C 209.171 104.077,190.102 104.202,180.583 101.337 C 177.485 100.404,176.993 100.464,174.315 102.102 C 170.600 104.375,169.022 105.347,166.501 106.917 C 162.663 109.306,160.113 110.833,159.963 110.833 C 159.772 110.833,159.804 110.148,160.072 108.437 C 160.307 106.943,160.720 104.038,161.261 100.083 C 161.411 98.983,161.634 96.958,161.756 95.583 L 161.977 93.083 160.099 91.167 C 152.137 83.044,148.483 73.599,148.458 61.083 C 148.411 36.542,166.725 19.922,194.833 19.001 C 199.868 18.836,199.844 18.836,204.083 18.999 M337.833 19.001 C 362.834 20.162,379.599 32.884,383.274 53.484 C 384.217 58.769,383.928 67.628,382.647 72.750 C 379.058 87.096,368.466 97.133,352.583 101.239 C 341.529 104.097,323.241 104.143,313.917 101.337 C 310.818 100.404,310.327 100.464,307.649 102.102 C 303.934 104.375,302.355 105.347,299.834 106.917 C 295.997 109.306,293.447 110.833,293.297 110.833 C 293.106 110.833,293.137 110.148,293.406 108.437 C 293.640 106.943,294.054 104.038,294.594 100.083 C 294.745 98.983,294.968 96.958,295.089 95.583 L 295.311 93.083 293.432 91.167 C 285.471 83.044,281.816 73.599,281.792 61.083 C 281.744 36.542,300.058 19.922,328.167 19.001 C 333.312 18.833,334.210 18.832,337.833 19.001 M37.500 45.003 C 37.087 45.074,36.337 45.296,35.833 45.497 C 25.631 49.548,22.540 60.911,29.189 69.917 C 30.058 71.094,30.071 71.362,29.268 71.533 C 28.478 71.701,26.927 72.624,26.260 73.321 C 25.678 73.930,25.650 73.926,27.375 73.479 C 31.001 72.539,35.608 73.579,38.792 76.056 L 40.000 76.996 39.999 76.373 C 39.996 74.131,37.807 72.091,34.513 71.262 C 32.395 70.729,30.003 68.152,28.840 65.151 C 24.380 53.645,35.897 42.799,46.821 48.219 C 48.550 49.077,48.408 49.167,45.326 49.167 L 42.624 49.167 41.071 49.927 C 30.433 55.136,33.791 71.516,45.493 71.498 C 55.116 71.483,59.121 58.886,52.288 50.127 C 49.036 45.959,43.350 43.988,37.500 45.003 M88.083 44.996 C 79.305 46.516,73.605 57.649,77.515 65.636 C 80.779 72.303,88.900 73.498,94.256 68.100 C 101.420 60.879,95.631 48.071,85.586 48.918 C 83.886 49.061,84.098 48.671,86.165 47.854 C 98.671 42.912,109.493 57.345,101.439 68.226 C 99.942 70.249,99.226 70.752,96.880 71.432 C 94.322 72.173,92.744 73.487,92.065 75.441 C 91.529 76.985,91.853 77.177,93.163 76.089 C 96.164 73.598,101.658 72.387,104.935 73.494 C 106.153 73.905,106.271 73.890,105.905 73.368 C 105.517 72.813,104.197 71.969,103.092 71.569 C 101.838 71.115,101.838 71.113,102.803 69.915 C 105.277 66.844,106.232 64.143,106.221 60.250 C 106.199 53.060,102.347 47.704,95.500 45.340 C 94.292 44.923,89.728 44.711,88.083 44.996 M304.167 45.003 C 303.754 45.074,303.004 45.296,302.500 45.497 C 292.298 49.548,289.206 60.911,295.855 69.917 C 296.725 71.094,296.738 71.362,295.935 71.533 C 295.145 71.701,293.593 72.624,292.927 73.321 C 292.345 73.930,292.317 73.926,294.042 73.479 C 297.667 72.539,302.275 73.579,305.458 76.056 L 306.667 76.996 306.666 76.373 C 306.662 74.131,304.473 72.091,301.180 71.262 C 299.062 70.729,296.670 68.152,295.507 65.151 C 291.046 53.645,302.564 42.799,313.487 48.219 C 315.217 49.077,315.074 49.167,311.992 49.167 L 309.290 49.167 307.738 49.927 C 297.100 55.136,300.458 71.516,312.160 71.498 C 321.783 71.483,325.788 58.886,318.955 50.127 C 315.703 45.959,310.017 43.988,304.167 45.003 M354.750 44.996 C 345.976 46.515,340.273 57.653,344.182 65.636 C 347.446 72.303,355.567 73.498,360.923 68.100 C 368.087 60.879,362.298 48.071,352.252 48.918 C 350.552 49.061,350.764 48.671,352.831 47.854 C 365.338 42.912,376.159 57.345,368.106 68.226 C 366.609 70.249,365.893 70.752,363.546 71.432 C 360.988 72.173,359.411 73.487,358.732 75.441 C 358.196 76.985,358.520 77.177,359.830 76.089 C 362.831 73.598,368.325 72.387,371.602 73.494 C 372.820 73.905,372.938 73.890,372.572 73.368 C 372.183 72.813,370.864 71.969,369.759 71.569 C 368.505 71.115,368.504 71.113,369.470 69.915 C 371.944 66.844,372.899 64.143,372.887 60.250 C 372.866 53.060,369.014 47.704,362.167 45.340 C 360.959 44.923,356.395 44.711,354.750 44.996 M42.464 52.591 C 44.983 53.641,45.626 56.630,43.704 58.364 C 40.895 60.899,36.889 57.822,38.395 54.286 C 39.024 52.811,41.007 51.985,42.464 52.591 M84.360 52.877 C 85.875 53.706,86.572 55.842,85.848 57.436 C 84.961 59.388,81.997 59.988,80.437 58.531 C 77.554 55.838,80.916 50.992,84.360 52.877 M309.130 52.591 C 311.650 53.641,312.292 56.630,310.371 58.364 C 307.562 60.899,303.555 57.822,305.062 54.286 C 305.691 52.811,307.674 51.985,309.130 52.591 M351.027 52.877 C 352.541 53.706,353.238 55.842,352.514 57.436 C 351.628 59.388,348.664 59.988,347.104 58.531 C 344.220 55.838,347.583 50.992,351.027 52.877 M162.005 58.372 C 159.658 59.606,161.082 64.286,164.944 68.026 C 172.667 75.507,186.014 72.710,189.832 62.812 C 190.748 60.436,190.556 59.047,189.224 58.416 C 187.915 57.794,186.850 58.504,186.193 60.436 C 182.971 69.910,169.058 70.395,165.341 61.162 C 164.607 59.340,164.338 58.844,163.940 58.583 C 163.373 58.212,162.492 58.116,162.005 58.372 M211.167 58.453 C 209.688 59.206,209.575 60.946,210.828 63.625 C 214.703 71.905,225.385 74.863,233.162 69.810 C 238.115 66.592,241.160 59.846,238.292 58.445 C 237.020 57.823,236.080 58.422,235.348 60.321 C 233.792 64.356,231.412 66.494,227.336 67.521 C 222.082 68.844,215.811 65.622,214.321 60.835 C 213.587 58.477,212.592 57.726,211.167 58.453 M49.901 64.356 C 51.364 65.023,50.786 67.667,49.176 67.667 C 48.368 67.667,47.347 66.714,47.339 65.952 C 47.325 64.720,48.750 63.832,49.901 64.356 M91.614 64.705 C 92.517 65.607,92.132 66.962,90.818 67.506 C 89.484 68.059,88.078 66.082,88.934 64.858 C 89.491 64.063,90.892 63.983,91.614 64.705 M316.567 64.356 C 318.031 65.023,317.452 67.667,315.843 67.667 C 315.035 67.667,314.014 66.714,314.005 65.952 C 313.991 64.720,315.417 63.832,316.567 64.356 M358.281 64.705 C 359.183 65.607,358.798 66.962,357.485 67.506 C 356.151 68.059,354.744 66.082,355.601 64.858 C 356.158 64.063,357.559 63.983,358.281 64.705 M59.242 68.242 C 57.965 69.520,59.787 72.636,62.630 74.035 C 66.855 76.115,73.167 73.333,73.167 69.390 C 73.167 67.354,71.355 67.400,70.376 69.461 C 68.828 72.718,63.627 72.787,61.814 69.575 C 60.888 67.934,60.007 67.478,59.242 68.242 M325.909 68.242 C 324.631 69.520,326.453 72.636,329.296 74.035 C 333.521 76.115,339.833 73.333,339.833 69.390 C 339.833 67.538,337.957 67.379,337.211 69.167 C 335.759 72.647,330.360 72.905,328.486 69.585 C 327.555 67.934,326.675 67.476,325.909 68.242 M193.384 69.236 C 192.121 70.324,193.515 73.405,195.988 74.992 C 200.443 77.851,207.044 75.357,207.602 70.604 C 207.856 68.446,205.861 68.130,204.834 70.166 C 202.801 74.192,197.862 74.173,195.817 70.131 C 195.119 68.753,194.297 68.450,193.384 69.236 M164.704 72.191 C 162.782 72.467,160.739 73.477,159.940 74.547 C 159.486 75.155,159.654 75.244,160.609 74.901 C 164.034 73.672,169.690 74.916,172.879 77.599 C 174.274 78.773,174.463 78.739,174.157 77.372 C 173.367 73.846,169.177 71.550,164.704 72.191 M232.583 72.262 C 229.064 72.958,226.405 75.361,226.533 77.730 L 226.583 78.670 227.912 77.474 C 230.907 74.778,236.580 73.531,239.792 74.863 C 240.895 75.320,240.927 75.319,240.670 74.839 C 239.660 72.953,235.612 71.663,232.583 72.262 " stroke="none" fill="#0c0505" fill-rule="evenodd"></path><path id="path1" d="M59.417 19.106 C 31.453 21.233,14.644 37.674,15.219 62.333 C 15.498 74.278,18.837 82.709,26.511 90.841 C 27.651 92.049,28.609 93.105,28.639 93.187 C 28.792 93.594,28.191 98.669,26.986 107.143 C 26.708 109.101,26.516 110.738,26.558 110.781 C 26.656 110.879,29.736 109.023,37.250 104.338 C 44.085 100.076,43.336 100.287,47.684 101.402 C 57.489 103.918,73.146 104.026,83.892 101.653 C 103.649 97.290,115.803 84.023,117.029 65.479 C 118.484 43.485,107.366 27.551,86.278 21.409 C 79.677 19.486,67.803 18.468,59.417 19.106 M192.750 19.106 C 164.787 21.233,147.977 37.674,148.552 62.333 C 148.831 74.278,152.171 82.709,159.845 90.841 C 160.984 92.049,161.942 93.105,161.973 93.187 C 162.125 93.594,161.524 98.669,160.320 107.143 C 160.041 109.101,159.849 110.738,159.892 110.781 C 159.990 110.879,163.069 109.023,170.583 104.338 C 177.425 100.072,176.661 100.285,181.071 101.416 C 189.138 103.485,203.085 103.956,212.750 102.485 C 235.246 99.062,249.039 85.492,250.363 65.479 C 252.035 40.199,237.193 23.189,210.228 19.482 C 207.696 19.134,195.758 18.877,192.750 19.106 M326.083 19.106 C 298.120 21.233,281.310 37.674,281.886 62.333 C 282.164 74.278,285.504 82.709,293.178 90.841 C 294.318 92.049,295.275 93.105,295.306 93.187 C 295.458 93.594,294.857 98.669,293.653 107.143 C 293.375 109.101,293.182 110.738,293.225 110.781 C 293.323 110.879,296.402 109.023,303.917 104.338 C 310.759 100.072,309.994 100.285,314.404 101.416 C 320.959 103.097,333.499 103.846,341.500 103.034 C 369.882 100.153,384.998 84.312,383.701 58.812 C 382.595 37.094,368.024 22.838,343.500 19.482 C 341.027 19.144,329.001 18.884,326.083 19.106 M44.410 45.035 C 54.712 47.209,59.681 62.077,52.325 68.716 C 50.824 70.070,48.219 71.485,47.208 71.496 C 47.002 71.498,46.690 71.643,46.515 71.819 C 45.791 72.543,43.446 73.068,40.899 73.076 L 38.548 73.083 39.098 73.755 C 39.798 74.612,40.000 75.153,40.000 76.178 C 40.000 77.172,39.996 77.172,39.026 76.317 C 36.015 73.664,30.716 72.456,27.030 73.582 C 25.813 73.954,25.630 73.826,26.384 73.129 C 27.125 72.444,28.512 71.656,29.239 71.508 C 29.987 71.354,29.942 71.024,28.996 69.739 C 20.207 57.799,30.060 42.007,44.410 45.035 M311.077 45.035 C 321.379 47.209,326.348 62.077,318.991 68.716 C 317.491 70.070,314.886 71.485,313.875 71.496 C 313.669 71.498,313.357 71.643,313.181 71.819 C 312.457 72.543,310.112 73.068,307.566 73.076 L 305.214 73.083 305.764 73.755 C 306.465 74.612,306.667 75.153,306.667 76.178 C 306.667 77.172,306.663 77.172,305.692 76.317 C 302.682 73.664,297.383 72.456,293.697 73.582 C 292.480 73.954,292.297 73.826,293.051 73.129 C 293.792 72.444,295.179 71.656,295.905 71.508 C 296.654 71.354,296.608 71.024,295.662 69.739 C 286.873 57.799,296.727 42.007,311.077 45.035 M95.816 45.391 C 106.056 49.040,109.666 61.348,102.968 69.777 C 101.821 71.220,101.849 71.092,102.625 71.343 C 103.822 71.731,105.116 72.481,105.664 73.106 C 106.318 73.850,106.139 73.979,105.042 73.556 C 101.957 72.365,95.812 73.753,93.009 76.273 C 92.550 76.686,92.097 76.977,92.004 76.919 C 91.593 76.665,92.011 74.913,92.696 74.019 C 93.272 73.266,93.155 73.211,90.792 73.124 C 85.496 72.928,80.050 70.114,77.854 66.439 C 75.126 61.874,75.865 55.122,79.635 50.155 C 81.448 47.766,85.109 45.484,88.000 44.940 C 89.467 44.664,94.608 44.960,95.816 45.391 M362.483 45.391 C 372.723 49.040,376.332 61.348,369.635 69.777 C 368.487 71.220,368.516 71.092,369.292 71.343 C 370.489 71.731,371.783 72.481,372.330 73.106 C 372.984 73.850,372.806 73.979,371.708 73.556 C 368.624 72.365,362.479 73.753,359.676 76.273 C 359.217 76.686,358.764 76.977,358.670 76.919 C 358.259 76.665,358.677 74.913,359.362 74.019 C 359.939 73.266,359.821 73.211,357.458 73.124 C 352.162 72.928,346.716 70.114,344.520 66.439 C 341.793 61.874,342.531 55.122,346.302 50.155 C 348.114 47.766,351.776 45.484,354.667 44.940 C 356.134 44.664,361.275 44.960,362.483 45.391 M164.175 58.758 C 164.450 59.021,164.803 59.659,164.998 60.243 C 165.669 62.261,168.744 66.281,169.336 65.915 C 169.426 65.859,169.500 65.877,169.500 65.954 C 169.500 66.182,170.395 66.630,170.667 66.538 C 170.804 66.492,170.859 66.516,170.788 66.592 C 170.094 67.334,175.760 68.088,178.197 67.578 C 181.450 66.898,185.755 63.233,185.847 61.067 C 185.907 59.633,187.561 58.016,188.741 58.237 C 192.707 58.981,189.054 67.239,183.430 70.243 C 174.722 74.894,164.793 71.438,161.150 62.487 C 160.885 61.834,160.706 61.238,160.753 61.162 C 160.800 61.085,160.763 60.976,160.669 60.918 C 160.232 60.648,160.971 58.953,161.736 58.472 C 162.459 58.017,163.533 58.143,164.175 58.758 M213.370 58.790 C 213.648 59.053,213.991 59.723,214.256 60.517 C 215.943 65.584,221.918 68.877,227.059 67.574 C 231.394 66.474,233.703 64.486,235.176 60.584 C 236.651 56.676,240.269 57.718,239.249 61.757 C 236.847 71.262,224.711 75.338,215.861 69.612 C 214.621 68.811,212.160 66.442,212.020 65.917 C 211.996 65.825,211.807 65.525,211.600 65.250 C 211.393 64.975,210.984 64.150,210.690 63.417 C 210.396 62.683,210.093 61.969,210.016 61.828 C 208.873 59.740,211.685 57.191,213.370 58.790 M121.435 62.250 C 120.957 70.661,120.037 75.015,117.473 80.998 C 116.443 83.404,113.998 87.727,113.325 88.333 C 113.274 88.379,112.791 88.974,112.252 89.654 C 102.849 101.531,87.160 107.616,66.083 107.561 C 58.941 107.543,53.702 106.980,47.611 105.576 C 46.221 105.256,44.941 104.962,44.766 104.923 C 44.328 104.824,44.378 104.795,35.659 110.166 C 31.379 112.803,27.594 115.053,27.248 115.167 C 25.767 115.656,23.817 115.077,22.895 113.873 L 22.373 113.192 22.272 113.805 C 21.599 117.870,23.451 120.526,26.652 120.085 C 27.414 119.981,30.215 118.512,32.789 116.868 C 35.008 115.450,36.268 114.666,37.833 113.727 C 38.796 113.150,39.883 112.461,40.250 112.197 C 40.617 111.933,41.353 111.462,41.885 111.150 C 42.418 110.838,43.130 110.416,43.469 110.211 C 44.234 109.748,44.855 109.742,46.845 110.178 C 49.238 110.703,51.605 111.146,53.083 111.345 C 53.817 111.444,55.504 111.673,56.833 111.855 C 64.499 112.901,76.702 112.304,84.917 110.481 C 97.885 107.602,108.533 100.758,114.709 91.333 C 118.370 85.745,121.034 78.279,121.695 71.750 C 121.932 69.417,121.941 61.481,121.708 60.750 C 121.579 60.346,121.527 60.632,121.435 62.250 M254.768 62.250 C 254.290 70.661,253.370 75.015,250.807 80.998 C 249.776 83.404,247.331 87.727,246.658 88.333 C 246.607 88.379,246.124 88.974,245.586 89.654 C 238.389 98.744,227.368 104.503,213.038 106.661 C 202.667 108.222,190.670 107.817,180.945 105.576 C 179.554 105.256,178.274 104.962,178.099 104.923 C 177.661 104.824,177.712 104.795,168.992 110.166 C 164.712 112.803,160.928 115.053,160.581 115.167 C 159.100 115.656,157.151 115.077,156.228 113.873 L 155.706 113.192 155.605 113.805 C 154.933 117.870,156.785 120.526,159.985 120.085 C 160.747 119.981,163.549 118.512,166.123 116.868 C 168.342 115.450,169.601 114.666,171.167 113.727 C 172.129 113.150,173.217 112.461,173.583 112.197 C 173.950 111.933,174.686 111.462,175.219 111.150 C 175.751 110.838,176.464 110.416,176.802 110.211 C 177.567 109.748,178.189 109.742,180.178 110.178 C 182.575 110.704,184.940 111.146,186.417 111.345 C 187.150 111.443,188.803 111.668,190.089 111.846 C 197.913 112.922,209.861 112.343,218.250 110.481 C 231.218 107.602,241.866 100.758,248.042 91.333 C 251.704 85.745,254.367 78.279,255.029 71.750 C 255.265 69.417,255.274 61.481,255.041 60.750 C 254.912 60.346,254.860 60.632,254.768 62.250 M388.101 62.250 C 387.625 70.634,386.700 75.006,384.138 81.000 C 383.111 83.400,380.666 87.726,379.991 88.333 C 379.940 88.379,379.458 88.974,378.919 89.654 C 369.530 101.514,353.915 107.591,332.917 107.559 C 325.623 107.548,320.445 106.997,314.278 105.576 C 312.888 105.256,311.607 104.962,311.433 104.923 C 310.994 104.824,311.045 104.795,302.325 110.166 C 298.046 112.803,294.261 115.053,293.915 115.167 C 292.433 115.656,290.484 115.077,289.561 113.873 L 289.039 113.192 288.938 113.805 C 288.266 117.870,290.118 120.526,293.318 120.085 C 294.080 119.981,296.882 118.512,299.456 116.868 C 301.675 115.450,302.935 114.666,304.500 113.727 C 305.462 113.150,306.550 112.461,306.917 112.197 C 307.283 111.933,308.019 111.462,308.552 111.150 C 309.085 110.838,309.797 110.416,310.135 110.211 C 310.901 109.748,311.522 109.742,313.512 110.178 C 315.904 110.703,318.272 111.146,319.750 111.345 C 320.483 111.444,322.171 111.672,323.500 111.853 C 326.617 112.276,333.246 112.511,336.810 112.325 C 361.587 111.032,377.817 101.648,385.080 84.417 C 386.552 80.925,387.998 75.345,388.362 71.750 C 388.598 69.417,388.607 61.481,388.374 60.750 C 388.246 60.346,388.193 60.632,388.101 62.250 M10.576 62.614 C 10.317 66.393,10.832 73.543,11.509 75.542 C 11.687 76.070,11.833 76.659,11.833 76.852 C 11.833 77.045,12.100 78.189,12.426 79.393 C 14.389 86.643,18.384 93.669,22.886 97.792 C 24.049 98.856,24.047 98.859,24.329 96.267 L 24.491 94.785 23.845 94.017 C 23.490 93.595,22.996 93.063,22.747 92.833 C 16.196 86.804,11.799 75.820,11.011 63.521 C 10.813 60.421,10.738 60.264,10.576 62.614 M143.910 62.614 C 143.650 66.393,144.166 73.543,144.842 75.542 C 145.021 76.070,145.167 76.659,145.167 76.852 C 145.167 77.045,145.434 78.189,145.760 79.393 C 147.723 86.643,151.717 93.669,156.219 97.792 C 157.382 98.856,157.380 98.859,157.662 96.267 L 157.824 94.785 157.179 94.017 C 156.824 93.595,156.330 93.063,156.081 92.833 C 149.530 86.804,145.132 75.820,144.345 63.521 C 144.146 60.421,144.071 60.264,143.910 62.614 M277.243 62.614 C 276.983 66.393,277.499 73.543,278.176 75.542 C 278.354 76.070,278.500 76.659,278.500 76.852 C 278.500 77.045,278.767 78.189,279.093 79.393 C 281.056 86.643,285.050 93.669,289.552 97.792 C 290.715 98.856,290.713 98.859,290.996 96.267 L 291.157 94.785 290.512 94.017 C 290.157 93.595,289.663 93.063,289.414 92.833 C 282.863 86.804,278.465 75.820,277.678 63.521 C 277.480 60.421,277.405 60.264,277.243 62.614 M60.771 68.112 C 61.005 68.266,61.422 68.791,61.698 69.280 C 63.702 72.831,68.670 72.757,70.505 69.149 C 71.077 68.024,71.697 67.667,72.499 68.000 C 74.445 68.806,72.567 72.696,69.500 74.212 C 68.245 74.833,63.960 74.768,62.617 74.109 C 59.810 72.731,57.878 69.388,59.220 68.234 C 59.768 67.762,60.187 67.730,60.771 68.112 M327.437 68.112 C 327.672 68.266,328.089 68.791,328.365 69.280 C 330.394 72.875,335.382 72.754,337.223 69.066 C 338.283 66.944,340.526 67.919,339.842 70.205 C 339.419 71.614,337.759 73.425,336.167 74.212 C 334.912 74.833,330.627 74.768,329.284 74.109 C 326.477 72.731,324.544 69.388,325.887 68.234 C 326.435 67.762,326.853 67.730,327.437 68.112 M195.133 69.095 C 195.339 69.239,195.724 69.783,195.989 70.304 C 197.907 74.075,202.592 74.091,204.703 70.333 C 205.632 68.681,206.378 68.362,207.258 69.242 C 208.913 70.897,205.929 75.038,202.371 76.024 C 198.236 77.171,193.327 74.396,192.885 70.663 C 192.721 69.280,194.062 68.345,195.133 69.095 M168.090 72.182 C 171.142 72.746,173.629 74.922,174.185 77.512 C 174.467 78.829,174.216 78.857,172.894 77.654 C 169.716 74.761,164.405 73.718,159.958 75.114 C 159.518 75.252,159.607 74.913,160.183 74.257 C 161.580 72.666,165.352 71.676,168.090 72.182 M236.059 72.240 C 237.605 72.536,238.867 73.139,239.982 74.115 C 241.166 75.151,241.102 75.405,239.792 74.864 C 236.562 73.529,230.725 74.849,227.839 77.567 L 226.583 78.750 226.534 77.718 C 226.368 74.254,231.415 71.352,236.059 72.240 " stroke="none" fill="#f25a74" fill-rule="evenodd"></path><path id="path2" d="M0.000 66.667 L 0.000 133.333 200.000 133.333 L 400.000 133.333 400.000 66.667 L 400.000 0.000 200.000 0.000 L 0.000 0.000 0.000 66.667 M72.083 14.826 C 74.192 14.909,76.667 15.097,77.583 15.243 C 83.497 16.190,84.187 16.324,86.167 16.915 C 86.671 17.066,87.608 17.329,88.250 17.500 C 89.939 17.951,92.551 18.884,94.051 19.571 C 94.766 19.899,95.439 20.167,95.546 20.167 C 96.116 20.167,103.243 24.422,103.913 25.162 C 104.081 25.348,104.311 25.500,104.424 25.500 C 105.027 25.500,111.356 31.649,112.295 33.148 C 112.445 33.387,112.836 33.921,113.164 34.333 C 117.448 39.724,121.132 50.275,121.455 58.081 C 121.493 59.010,121.611 59.849,121.720 59.981 C 121.984 60.300,121.976 70.887,121.710 72.751 C 120.088 84.122,114.683 93.875,106.250 100.649 C 92.618 111.599,70.011 115.343,47.434 110.391 C 44.412 109.728,44.397 109.729,42.671 110.805 C 41.984 111.233,41.233 111.696,41.002 111.833 C 40.771 111.971,40.226 112.308,39.791 112.583 C 28.864 119.491,27.652 120.167,26.209 120.166 C 23.510 120.163,22.100 118.644,22.112 115.750 C 22.133 110.689,22.177 109.652,22.405 108.740 C 22.541 108.196,22.736 106.962,22.837 106.000 C 22.939 105.037,23.196 103.030,23.408 101.539 L 23.794 98.827 22.355 97.371 C 17.209 92.161,13.740 85.587,11.826 77.417 C 11.547 76.225,11.249 74.979,11.163 74.647 C 10.700 72.848,10.310 65.928,10.510 63.083 C 11.007 56.048,11.067 55.537,11.949 50.857 C 12.739 46.667,15.283 40.098,17.217 37.251 C 17.464 36.887,17.667 36.522,17.667 36.440 C 17.667 36.358,17.929 36.000,18.250 35.645 C 18.571 35.290,18.833 34.914,18.833 34.810 C 18.833 33.822,27.365 25.435,29.469 24.353 C 29.715 24.227,30.067 23.995,30.250 23.839 C 30.756 23.407,33.409 21.860,34.298 21.480 C 34.730 21.294,35.199 21.038,35.340 20.910 C 35.482 20.782,36.251 20.414,37.049 20.093 C 37.847 19.771,38.669 19.402,38.875 19.273 C 39.281 19.019,42.225 18.031,45.417 17.077 C 47.771 16.374,48.122 16.293,50.750 15.851 C 51.850 15.666,53.462 15.389,54.333 15.236 C 57.389 14.697,64.554 14.532,72.083 14.826 M205.167 14.825 C 207.703 14.909,210.055 15.077,211.000 15.241 C 211.871 15.392,213.521 15.668,214.667 15.854 C 216.828 16.205,217.939 16.449,219.500 16.915 C 220.004 17.066,220.942 17.329,221.583 17.500 C 223.272 17.951,225.884 18.884,227.384 19.571 C 228.100 19.899,228.773 20.167,228.880 20.167 C 229.449 20.167,236.576 24.422,237.246 25.162 C 237.414 25.348,237.644 25.500,237.758 25.500 C 238.361 25.500,244.689 31.649,245.629 33.148 C 245.779 33.387,246.170 33.921,246.498 34.333 C 250.782 39.724,254.465 50.275,254.788 58.081 C 254.827 59.010,254.944 59.849,255.054 59.981 C 255.318 60.300,255.309 70.887,255.043 72.751 C 253.421 84.122,248.016 93.875,239.583 100.649 C 225.947 111.602,203.352 115.345,180.767 110.391 C 177.746 109.728,177.730 109.729,176.004 110.805 C 175.317 111.233,174.566 111.696,174.335 111.833 C 174.104 111.971,173.559 112.308,173.124 112.583 C 162.197 119.491,160.986 120.167,159.542 120.166 C 156.843 120.163,155.434 118.644,155.446 115.750 C 155.467 110.689,155.510 109.652,155.738 108.740 C 155.874 108.196,156.069 106.962,156.171 106.000 C 156.272 105.037,156.529 103.030,156.741 101.539 L 157.127 98.827 155.688 97.371 C 150.542 92.161,147.073 85.587,145.159 77.417 C 144.880 76.225,144.582 74.979,144.497 74.647 C 144.034 72.848,143.643 65.928,143.844 63.083 C 144.340 56.048,144.401 55.537,145.283 50.857 C 146.072 46.667,148.616 40.098,150.551 37.251 C 150.798 36.887,151.000 36.522,151.000 36.440 C 151.000 36.358,151.262 36.000,151.583 35.645 C 151.904 35.290,152.167 34.914,152.167 34.810 C 152.167 33.822,160.698 25.435,162.803 24.353 C 163.049 24.227,163.400 23.995,163.583 23.839 C 164.089 23.407,166.743 21.860,167.631 21.480 C 168.063 21.294,168.532 21.038,168.674 20.910 C 168.815 20.782,169.584 20.414,170.382 20.093 C 171.181 19.771,172.003 19.402,172.209 19.273 C 172.614 19.019,175.558 18.031,178.750 17.077 C 181.105 16.374,181.455 16.293,184.083 15.851 C 185.183 15.666,186.796 15.389,187.667 15.236 C 190.720 14.697,196.939 14.551,205.167 14.825 M338.583 14.825 C 340.795 14.901,343.328 15.085,344.250 15.236 C 345.167 15.387,346.854 15.664,348.000 15.851 C 350.165 16.206,351.279 16.451,352.833 16.915 C 353.337 17.066,354.275 17.329,354.917 17.500 C 356.605 17.951,359.218 18.884,360.718 19.571 C 361.433 19.899,362.106 20.167,362.213 20.167 C 362.783 20.167,369.909 24.422,370.579 25.162 C 370.747 25.348,370.978 25.500,371.091 25.500 C 371.694 25.500,378.023 31.649,378.962 33.148 C 379.112 33.387,379.503 33.921,379.831 34.333 C 384.115 39.724,387.798 50.275,388.122 58.081 C 388.160 59.010,388.277 59.849,388.387 59.981 C 388.651 60.300,388.643 70.887,388.377 72.751 C 386.754 84.122,381.350 93.875,372.917 100.649 C 359.282 111.601,336.682 115.344,314.101 110.391 C 311.079 109.728,311.063 109.729,309.337 110.805 C 308.651 111.233,307.900 111.696,307.669 111.833 C 307.437 111.971,306.892 112.308,306.457 112.583 C 295.530 119.491,294.319 120.167,292.875 120.166 C 290.177 120.163,288.767 118.644,288.779 115.750 C 288.800 110.689,288.843 109.652,289.072 108.740 C 289.208 108.196,289.402 106.962,289.504 106.000 C 289.606 105.037,289.862 103.030,290.075 101.539 L 290.460 98.827 289.022 97.371 C 283.875 92.161,280.407 85.587,278.493 77.417 C 278.214 76.225,277.915 74.979,277.830 74.647 C 277.367 72.848,276.976 65.928,277.177 63.083 C 277.674 56.048,277.734 55.537,278.616 50.857 C 279.406 46.667,281.949 40.098,283.884 37.251 C 284.131 36.887,284.333 36.522,284.333 36.440 C 284.333 36.358,284.596 36.000,284.917 35.645 C 285.237 35.290,285.500 34.914,285.500 34.810 C 285.500 33.822,294.031 25.435,296.136 24.353 C 296.382 24.227,296.733 23.995,296.917 23.839 C 297.422 23.407,300.076 21.860,300.964 21.480 C 301.396 21.294,301.866 21.038,302.007 20.910 C 302.148 20.782,302.917 20.414,303.716 20.093 C 304.514 19.771,305.336 19.402,305.542 19.273 C 305.948 19.019,308.892 18.031,312.083 17.077 C 314.438 16.374,314.788 16.293,317.417 15.851 C 318.517 15.666,320.129 15.389,321.000 15.236 C 324.033 14.701,330.553 14.549,338.583 14.825 M38.917 47.088 C 28.521 48.779,24.303 61.591,31.635 69.201 C 33.070 70.690,33.345 70.854,35.333 71.401 C 35.837 71.540,36.700 71.937,37.250 72.285 L 38.250 72.917 40.833 72.917 C 43.217 72.917,43.529 72.880,44.874 72.444 C 46.639 71.871,46.826 71.667,45.586 71.667 C 41.223 71.667,36.761 68.605,35.263 64.583 C 35.093 64.125,34.878 63.654,34.786 63.538 C 34.694 63.421,34.586 62.858,34.545 62.288 C 34.271 58.465,34.792 56.173,36.520 53.602 C 37.281 52.470,38.824 50.808,39.009 50.922 C 39.074 50.962,39.305 50.860,39.522 50.694 C 41.238 49.385,42.725 48.953,45.533 48.946 C 48.171 48.940,48.090 48.969,47.003 48.418 C 44.192 46.994,41.858 46.610,38.917 47.088 M305.583 47.088 C 295.188 48.779,290.969 61.591,298.302 69.201 C 299.737 70.690,300.012 70.854,302.000 71.401 C 302.504 71.540,303.367 71.937,303.917 72.285 L 304.917 72.917 307.500 72.917 C 309.884 72.917,310.196 72.880,311.541 72.444 C 313.305 71.871,313.493 71.667,312.253 71.667 C 307.890 71.667,303.428 68.605,301.930 64.583 C 301.759 64.125,301.545 63.654,301.453 63.538 C 301.361 63.421,301.252 62.858,301.211 62.288 C 300.937 58.465,301.459 56.173,303.187 53.602 C 303.948 52.470,305.491 50.808,305.675 50.922 C 305.741 50.962,305.972 50.860,306.189 50.694 C 307.905 49.385,309.392 48.953,312.200 48.946 C 314.837 48.940,314.757 48.969,313.670 48.418 C 310.859 46.994,308.524 46.610,305.583 47.088 M88.750 47.118 C 88.032 47.266,85.929 48.030,85.274 48.381 L 84.583 48.750 86.750 48.848 C 88.131 48.911,89.128 49.039,89.500 49.202 C 89.821 49.342,90.171 49.425,90.279 49.385 C 90.501 49.304,91.833 49.941,91.834 50.128 C 91.834 50.195,92.169 50.462,92.578 50.720 C 96.847 53.417,98.687 59.577,96.735 64.631 C 95.190 68.629,90.718 71.626,86.217 71.680 L 85.083 71.694 85.917 72.073 C 86.967 72.550,88.016 72.791,89.917 72.991 C 92.902 73.306,93.221 73.284,93.942 72.713 C 94.766 72.060,95.714 71.632,97.532 71.092 C 100.221 70.293,102.852 66.953,103.683 63.282 C 105.182 56.652,101.709 50.075,95.426 47.647 C 94.127 47.145,90.144 46.829,88.750 47.118 M355.417 47.118 C 354.698 47.266,352.596 48.030,351.941 48.381 L 351.250 48.750 353.417 48.848 C 354.798 48.911,355.795 49.039,356.167 49.202 C 356.488 49.342,356.838 49.425,356.946 49.385 C 357.167 49.304,358.500 49.941,358.500 50.128 C 358.500 50.195,358.836 50.462,359.245 50.720 C 360.572 51.559,362.223 53.505,363.053 55.208 C 363.747 56.634,363.912 57.236,364.256 59.605 C 365.100 65.417,359.213 71.667,352.892 71.667 C 349.912 71.667,354.170 72.843,358.191 73.130 L 359.965 73.256 360.524 72.782 C 361.333 72.096,362.161 71.705,363.801 71.234 C 365.532 70.736,365.918 70.478,367.454 68.784 C 373.549 62.063,370.740 50.989,362.092 47.647 C 360.794 47.145,356.810 46.829,355.417 47.118 M40.000 52.826 C 37.675 54.065,37.581 57.659,39.843 58.785 C 42.656 60.184,45.743 57.447,44.487 54.667 C 43.682 52.884,41.539 52.005,40.000 52.826 M81.451 52.902 C 79.217 54.103,78.747 56.505,80.393 58.308 C 81.462 59.478,83.851 59.517,85.034 58.384 C 87.675 55.853,84.630 51.194,81.451 52.902 M306.667 52.826 C 304.342 54.065,304.247 57.659,306.510 58.785 C 309.323 60.184,312.410 57.447,311.154 54.667 C 310.349 52.884,308.206 52.005,306.667 52.826 M348.118 52.902 C 345.883 54.103,345.413 56.505,347.060 58.308 C 348.129 59.478,350.518 59.517,351.701 58.384 C 354.342 55.853,351.296 51.194,348.118 52.902 M48.002 64.831 C 47.197 65.693,47.183 66.082,47.929 66.846 C 49.109 68.054,50.672 67.533,50.663 65.934 C 50.655 64.428,49.014 63.748,48.002 64.831 M89.272 64.679 C 88.279 65.460,89.057 67.500,90.349 67.500 C 91.081 67.500,92.056 66.548,92.056 65.833 C 92.056 64.603,90.296 63.874,89.272 64.679 M314.668 64.831 C 313.863 65.693,313.849 66.082,314.596 66.846 C 315.775 68.054,317.338 67.533,317.330 65.934 C 317.321 64.428,315.681 63.748,314.668 64.831 M355.939 64.679 C 354.946 65.460,355.724 67.500,357.015 67.500 C 357.748 67.500,358.722 66.548,358.722 65.833 C 358.722 64.603,356.963 63.874,355.939 64.679 " stroke="none" fill="#fbfbfb" fill-rule="evenodd"></path><path id="path3" d="M62.042 14.791 C 63.394 14.819,65.606 14.819,66.958 14.791 C 68.310 14.763,67.204 14.740,64.500 14.740 C 61.796 14.740,60.690 14.763,62.042 14.791 M195.302 14.791 C 196.614 14.820,198.714 14.819,199.968 14.791 C 201.223 14.763,200.150 14.740,197.583 14.740 C 195.017 14.740,193.990 14.763,195.302 14.791 M328.635 14.791 C 329.947 14.820,332.047 14.819,333.302 14.791 C 334.557 14.763,333.483 14.740,330.917 14.740 C 328.350 14.740,327.323 14.763,328.635 14.791 M57.127 14.951 C 57.334 14.991,57.634 14.990,57.794 14.948 C 57.953 14.906,57.783 14.874,57.417 14.875 C 57.050 14.877,56.920 14.911,57.127 14.951 M72.621 14.954 C 72.917 14.990,73.442 14.991,73.788 14.955 C 74.134 14.919,73.892 14.889,73.250 14.888 C 72.608 14.887,72.325 14.917,72.621 14.954 M190.460 14.951 C 190.668 14.991,190.968 14.990,191.127 14.948 C 191.286 14.906,191.117 14.874,190.750 14.875 C 190.383 14.877,190.253 14.911,190.460 14.951 M206.288 14.954 C 206.584 14.990,207.109 14.991,207.455 14.955 C 207.800 14.919,207.558 14.889,206.917 14.888 C 206.275 14.887,205.992 14.917,206.288 14.954 M323.794 14.951 C 324.001 14.991,324.301 14.990,324.460 14.948 C 324.620 14.906,324.450 14.874,324.083 14.875 C 323.717 14.877,323.586 14.911,323.794 14.951 M339.131 14.956 C 339.615 14.990,340.365 14.990,340.797 14.956 C 341.230 14.921,340.833 14.894,339.917 14.894 C 339.000 14.895,338.646 14.923,339.131 14.956 M75.542 15.115 C 75.702 15.157,75.965 15.157,76.125 15.115 C 76.285 15.073,76.154 15.039,75.833 15.039 C 75.512 15.039,75.381 15.073,75.542 15.115 M208.960 15.118 C 209.168 15.158,209.468 15.156,209.627 15.115 C 209.786 15.073,209.617 15.040,209.250 15.042 C 208.883 15.044,208.753 15.078,208.960 15.118 M342.294 15.118 C 342.501 15.158,342.801 15.156,342.960 15.115 C 343.120 15.073,342.950 15.040,342.583 15.042 C 342.217 15.044,342.086 15.078,342.294 15.118 M65.792 18.957 C 66.456 18.989,67.544 18.989,68.208 18.957 C 68.873 18.925,68.329 18.900,67.000 18.900 C 65.671 18.900,65.127 18.925,65.792 18.957 M198.881 18.957 C 199.412 18.990,200.237 18.990,200.714 18.956 C 201.192 18.922,200.758 18.895,199.750 18.896 C 198.742 18.896,198.351 18.924,198.881 18.957 M332.375 18.957 C 332.994 18.989,334.006 18.989,334.625 18.957 C 335.244 18.925,334.737 18.899,333.500 18.899 C 332.262 18.899,331.756 18.925,332.375 18.957 M59.125 19.118 C 59.331 19.157,59.669 19.157,59.875 19.118 C 60.081 19.078,59.913 19.045,59.500 19.045 C 59.087 19.045,58.919 19.078,59.125 19.118 M72.708 19.115 C 72.869 19.157,73.131 19.157,73.292 19.115 C 73.452 19.073,73.321 19.039,73.000 19.039 C 72.679 19.039,72.548 19.073,72.708 19.115 M192.458 19.118 C 192.665 19.157,193.002 19.157,193.208 19.118 C 193.415 19.078,193.246 19.045,192.833 19.045 C 192.421 19.045,192.252 19.078,192.458 19.118 M206.042 19.115 C 206.202 19.157,206.465 19.157,206.625 19.115 C 206.785 19.073,206.654 19.039,206.333 19.039 C 206.012 19.039,205.881 19.073,206.042 19.115 M325.792 19.118 C 325.998 19.157,326.335 19.157,326.542 19.118 C 326.748 19.078,326.579 19.045,326.167 19.045 C 325.754 19.045,325.585 19.078,325.792 19.118 M105.333 26.250 C 105.644 26.571,105.936 26.833,105.982 26.833 C 106.028 26.833,105.811 26.571,105.500 26.250 C 105.189 25.929,104.897 25.667,104.851 25.667 C 104.805 25.667,105.022 25.929,105.333 26.250 M238.667 26.250 C 238.978 26.571,239.270 26.833,239.315 26.833 C 239.361 26.833,239.144 26.571,238.833 26.250 C 238.522 25.929,238.230 25.667,238.185 25.667 C 238.139 25.667,238.356 25.929,238.667 26.250 M372.000 26.250 C 372.311 26.571,372.603 26.833,372.649 26.833 C 372.695 26.833,372.478 26.571,372.167 26.250 C 371.856 25.929,371.564 25.667,371.518 25.667 C 371.472 25.667,371.689 25.929,372.000 26.250 M23.831 29.125 L 21.583 31.417 23.875 29.169 C 26.004 27.081,26.242 26.833,26.123 26.833 C 26.098 26.833,25.067 27.865,23.831 29.125 M157.164 29.125 L 154.917 31.417 157.208 29.169 C 158.469 27.933,159.500 26.902,159.500 26.877 C 159.500 26.758,159.252 26.996,157.164 29.125 M290.498 29.125 L 288.250 31.417 290.542 29.169 C 292.670 27.081,292.909 26.833,292.789 26.833 C 292.765 26.833,291.734 27.865,290.498 29.125 M110.493 31.208 C 110.902 31.644,111.258 32.000,111.285 32.000 C 111.410 32.000,111.278 31.850,110.542 31.160 L 109.750 30.417 110.493 31.208 M243.826 31.208 C 244.517 31.944,244.667 32.077,244.667 31.951 C 244.667 31.925,244.310 31.568,243.875 31.160 L 243.083 30.417 243.826 31.208 M377.160 31.208 C 377.568 31.644,377.925 32.000,377.951 32.000 C 378.077 32.000,377.944 31.850,377.208 31.160 L 376.417 30.417 377.160 31.208 M26.333 32.417 C 25.928 32.829,25.635 33.167,25.681 33.167 C 25.726 33.167,26.095 32.829,26.500 32.417 C 26.905 32.004,27.199 31.667,27.153 31.667 C 27.107 31.667,26.738 32.004,26.333 32.417 M159.667 32.417 C 159.262 32.829,158.968 33.167,159.014 33.167 C 159.060 33.167,159.428 32.829,159.833 32.417 C 160.238 32.004,160.532 31.667,160.486 31.667 C 160.440 31.667,160.072 32.004,159.667 32.417 M293.000 32.417 C 292.595 32.829,292.301 33.167,292.347 33.167 C 292.393 33.167,292.762 32.829,293.167 32.417 C 293.572 32.004,293.865 31.667,293.819 31.667 C 293.774 31.667,293.405 32.004,293.000 32.417 M40.628 44.787 C 40.928 44.825,41.378 44.824,41.628 44.786 C 41.878 44.748,41.633 44.717,41.083 44.718 C 40.533 44.719,40.328 44.750,40.628 44.787 M307.295 44.787 C 307.594 44.825,308.044 44.824,308.295 44.786 C 308.545 44.748,308.300 44.717,307.750 44.718 C 307.200 44.719,306.995 44.750,307.295 44.787 M39.208 46.948 C 39.369 46.990,39.631 46.990,39.792 46.948 C 39.952 46.906,39.821 46.872,39.500 46.872 C 39.179 46.872,39.048 46.906,39.208 46.948 M89.875 46.956 C 90.310 46.990,91.023 46.990,91.458 46.956 C 91.894 46.922,91.537 46.893,90.667 46.893 C 89.796 46.893,89.440 46.922,89.875 46.956 M305.875 46.948 C 306.035 46.990,306.298 46.990,306.458 46.948 C 306.619 46.906,306.487 46.872,306.167 46.872 C 305.846 46.872,305.715 46.906,305.875 46.948 M356.542 46.956 C 356.977 46.990,357.690 46.990,358.125 46.956 C 358.560 46.922,358.204 46.893,357.333 46.893 C 356.462 46.893,356.106 46.922,356.542 46.956 M84.718 48.578 L 84.250 48.989 84.917 48.975 C 85.541 48.961,85.552 48.953,85.083 48.848 L 84.583 48.735 85.083 48.458 C 85.358 48.305,85.494 48.177,85.384 48.173 C 85.275 48.170,84.975 48.352,84.718 48.578 M351.384 48.578 L 350.917 48.989 351.583 48.975 C 352.208 48.961,352.218 48.953,351.750 48.848 L 351.250 48.735 351.750 48.458 C 352.025 48.305,352.160 48.177,352.051 48.173 C 351.941 48.170,351.641 48.352,351.384 48.578 M347.242 49.042 L 346.583 49.750 347.292 49.091 C 347.950 48.478,348.077 48.333,347.950 48.333 C 347.923 48.333,347.605 48.652,347.242 49.042 M44.208 49.124 C 44.919 49.155,46.081 49.155,46.792 49.124 C 47.502 49.093,46.921 49.067,45.500 49.067 C 44.079 49.067,43.498 49.093,44.208 49.124 M310.875 49.124 C 311.585 49.155,312.748 49.155,313.458 49.124 C 314.169 49.093,313.587 49.067,312.167 49.067 C 310.746 49.067,310.165 49.093,310.875 49.124 M31.667 50.583 C 31.262 50.996,30.968 51.333,31.014 51.333 C 31.060 51.333,31.428 50.996,31.833 50.583 C 32.238 50.171,32.532 49.833,32.486 49.833 C 32.440 49.833,32.072 50.171,31.667 50.583 M298.333 50.583 C 297.928 50.996,297.635 51.333,297.681 51.333 C 297.726 51.333,298.095 50.996,298.500 50.583 C 298.905 50.171,299.199 49.833,299.153 49.833 C 299.107 49.833,298.738 50.171,298.333 50.583 M37.744 52.208 L 36.917 53.083 37.792 52.256 C 38.273 51.801,38.667 51.408,38.667 51.381 C 38.667 51.257,38.512 51.395,37.744 52.208 M304.410 52.208 L 303.583 53.083 304.458 52.256 C 304.940 51.801,305.333 51.408,305.333 51.381 C 305.333 51.257,305.179 51.395,304.410 52.208 M94.167 52.219 C 94.167 52.248,94.410 52.491,94.708 52.760 L 95.250 53.250 94.760 52.708 C 94.304 52.203,94.167 52.090,94.167 52.219 M360.833 52.219 C 360.833 52.248,361.077 52.491,361.375 52.760 L 361.917 53.250 361.427 52.708 C 360.971 52.203,360.833 52.090,360.833 52.219 M40.958 52.451 C 41.165 52.491,41.502 52.491,41.708 52.451 C 41.915 52.411,41.746 52.379,41.333 52.379 C 40.921 52.379,40.752 52.411,40.958 52.451 M307.625 52.451 C 307.831 52.491,308.169 52.491,308.375 52.451 C 308.581 52.411,308.412 52.379,308.000 52.379 C 307.587 52.379,307.419 52.411,307.625 52.451 M11.045 56.500 C 11.045 56.913,11.078 57.081,11.118 56.875 C 11.157 56.669,11.157 56.331,11.118 56.125 C 11.078 55.919,11.045 56.087,11.045 56.500 M144.379 56.500 C 144.379 56.913,144.411 57.081,144.451 56.875 C 144.491 56.669,144.491 56.331,144.451 56.125 C 144.411 55.919,144.379 56.087,144.379 56.500 M277.712 56.500 C 277.712 56.913,277.745 57.081,277.784 56.875 C 277.824 56.669,277.824 56.331,277.784 56.125 C 277.745 55.919,277.712 56.087,277.712 56.500 M121.381 57.417 C 121.382 57.875,121.415 58.043,121.453 57.789 C 121.491 57.536,121.490 57.161,121.451 56.956 C 121.411 56.751,121.380 56.958,121.381 57.417 M254.714 57.417 C 254.716 57.875,254.748 58.043,254.786 57.789 C 254.825 57.536,254.824 57.161,254.784 56.956 C 254.744 56.751,254.713 56.958,254.714 57.417 M388.048 57.417 C 388.049 57.875,388.081 58.043,388.120 57.789 C 388.158 57.536,388.157 57.161,388.117 56.956 C 388.078 56.751,388.046 56.958,388.048 57.417 M76.228 59.750 C 76.228 60.667,76.256 61.020,76.290 60.536 C 76.324 60.052,76.323 59.302,76.289 58.869 C 76.255 58.437,76.227 58.833,76.228 59.750 M80.703 58.708 C 80.961 58.960,81.264 59.164,81.378 59.162 C 81.491 59.159,81.433 59.074,81.250 58.972 C 81.067 58.871,80.763 58.667,80.575 58.519 C 80.388 58.371,80.445 58.456,80.703 58.708 M342.894 59.750 C 342.895 60.667,342.923 61.020,342.956 60.536 C 342.990 60.052,342.990 59.302,342.956 58.869 C 342.921 58.437,342.894 58.833,342.894 59.750 M347.370 58.708 C 347.628 58.960,347.931 59.164,348.044 59.162 C 348.157 59.159,348.100 59.074,347.917 58.972 C 347.733 58.871,347.430 58.667,347.242 58.519 C 347.054 58.371,347.112 58.456,347.370 58.708 M10.896 60.083 C 10.896 61.092,10.924 61.483,10.957 60.952 C 10.990 60.422,10.990 59.597,10.956 59.119 C 10.922 58.641,10.895 59.075,10.896 60.083 M144.229 60.083 C 144.229 61.092,144.257 61.483,144.290 60.952 C 144.323 60.422,144.323 59.597,144.289 59.119 C 144.256 58.641,144.229 59.075,144.229 60.083 M277.562 60.083 C 277.563 61.092,277.590 61.483,277.623 60.952 C 277.657 60.422,277.656 59.597,277.623 59.119 C 277.589 58.641,277.562 59.075,277.562 60.083 M34.542 59.417 C 34.544 59.783,34.578 59.914,34.618 59.706 C 34.658 59.499,34.656 59.199,34.615 59.040 C 34.573 58.880,34.540 59.050,34.542 59.417 M104.042 59.417 C 104.044 59.783,104.078 59.914,104.118 59.706 C 104.158 59.499,104.156 59.199,104.115 59.040 C 104.073 58.880,104.040 59.050,104.042 59.417 M301.209 59.417 C 301.211 59.783,301.245 59.914,301.285 59.706 C 301.324 59.499,301.323 59.199,301.281 59.040 C 301.239 58.880,301.207 59.050,301.209 59.417 M370.709 59.417 C 370.711 59.783,370.745 59.914,370.785 59.706 C 370.824 59.499,370.823 59.199,370.781 59.040 C 370.739 58.880,370.707 59.050,370.709 59.417 M15.061 60.750 C 15.061 61.667,15.089 62.020,15.123 61.536 C 15.157 61.052,15.156 60.302,15.122 59.869 C 15.088 59.437,15.060 59.833,15.061 60.750 M55.881 59.917 C 55.882 60.375,55.915 60.543,55.953 60.289 C 55.991 60.036,55.990 59.661,55.951 59.456 C 55.911 59.251,55.880 59.458,55.881 59.917 M148.394 60.750 C 148.395 61.667,148.423 62.020,148.456 61.536 C 148.490 61.052,148.490 60.302,148.456 59.869 C 148.421 59.437,148.394 59.833,148.394 60.750 M281.728 60.750 C 281.728 61.667,281.756 62.020,281.790 61.536 C 281.824 61.052,281.823 60.302,281.789 59.869 C 281.755 59.437,281.727 59.833,281.728 60.750 M322.548 59.917 C 322.549 60.375,322.581 60.543,322.620 60.289 C 322.658 60.036,322.657 59.661,322.617 59.456 C 322.578 59.251,322.546 59.458,322.548 59.917 M160.709 60.417 C 160.711 60.783,160.745 60.914,160.785 60.706 C 160.824 60.499,160.823 60.199,160.781 60.040 C 160.739 59.880,160.707 60.050,160.709 60.417 M34.542 60.917 C 34.544 61.283,34.578 61.414,34.618 61.206 C 34.658 60.999,34.656 60.699,34.615 60.540 C 34.573 60.380,34.540 60.550,34.542 60.917 M301.209 60.917 C 301.211 61.283,301.245 61.414,301.285 61.206 C 301.324 60.999,301.323 60.699,301.281 60.540 C 301.239 60.380,301.207 60.550,301.209 60.917 M104.042 61.083 C 104.044 61.450,104.078 61.580,104.118 61.373 C 104.158 61.166,104.156 60.866,104.115 60.706 C 104.073 60.547,104.040 60.717,104.042 61.083 M370.709 61.083 C 370.711 61.450,370.745 61.580,370.785 61.373 C 370.824 61.166,370.823 60.866,370.781 60.706 C 370.739 60.547,370.707 60.717,370.709 61.083 M121.372 61.667 C 121.372 61.987,121.406 62.119,121.448 61.958 C 121.490 61.798,121.490 61.535,121.448 61.375 C 121.406 61.215,121.372 61.346,121.372 61.667 M254.705 61.667 C 254.705 61.987,254.740 62.119,254.782 61.958 C 254.823 61.798,254.823 61.535,254.782 61.375 C 254.740 61.215,254.705 61.346,254.705 61.667 M388.039 61.667 C 388.039 61.987,388.073 62.119,388.115 61.958 C 388.157 61.798,388.157 61.535,388.115 61.375 C 388.073 61.215,388.039 61.346,388.039 61.667 M48.875 64.282 C 49.035 64.323,49.298 64.323,49.458 64.282 C 49.619 64.240,49.487 64.205,49.167 64.205 C 48.846 64.205,48.715 64.240,48.875 64.282 M90.042 64.282 C 90.202 64.323,90.465 64.323,90.625 64.282 C 90.785 64.240,90.654 64.205,90.333 64.205 C 90.013 64.205,89.881 64.240,90.042 64.282 M315.542 64.282 C 315.702 64.323,315.965 64.323,316.125 64.282 C 316.285 64.240,316.154 64.205,315.833 64.205 C 315.512 64.205,315.381 64.240,315.542 64.282 M356.708 64.282 C 356.869 64.323,357.131 64.323,357.292 64.282 C 357.452 64.240,357.321 64.205,357.000 64.205 C 356.679 64.205,356.548 64.240,356.708 64.282 M91.014 64.375 C 91.052 64.398,91.308 64.604,91.583 64.833 L 92.083 65.250 91.679 64.792 C 91.457 64.540,91.201 64.333,91.110 64.333 C 91.019 64.333,90.976 64.352,91.014 64.375 M357.681 64.375 C 357.719 64.398,357.975 64.604,358.250 64.833 L 358.750 65.250 358.346 64.792 C 358.124 64.540,357.867 64.333,357.777 64.333 C 357.686 64.333,357.642 64.352,357.681 64.375 M235.658 67.792 L 235.083 68.417 235.708 67.842 C 236.052 67.526,236.333 67.245,236.333 67.217 C 236.333 67.090,236.192 67.210,235.658 67.792 M37.667 68.250 C 38.165 68.754,38.609 69.167,38.655 69.167 C 38.701 69.167,38.331 68.754,37.833 68.250 C 37.335 67.746,36.891 67.333,36.845 67.333 C 36.799 67.333,37.169 67.746,37.667 68.250 M94.244 68.208 L 93.417 69.083 94.292 68.256 C 95.105 67.488,95.243 67.333,95.119 67.333 C 95.092 67.333,94.699 67.727,94.244 68.208 M164.167 67.385 C 164.167 67.414,164.410 67.658,164.708 67.927 L 165.250 68.417 164.760 67.875 C 164.304 67.370,164.167 67.257,164.167 67.385 M304.333 68.250 C 304.831 68.754,305.276 69.167,305.322 69.167 C 305.368 69.167,304.998 68.754,304.500 68.250 C 304.002 67.746,303.557 67.333,303.511 67.333 C 303.466 67.333,303.835 67.746,304.333 68.250 M360.910 68.208 L 360.083 69.083 360.958 68.256 C 361.771 67.488,361.910 67.333,361.785 67.333 C 361.759 67.333,361.365 67.727,360.910 68.208 M48.875 67.615 C 49.035 67.657,49.298 67.657,49.458 67.615 C 49.619 67.573,49.487 67.539,49.167 67.539 C 48.846 67.539,48.715 67.573,48.875 67.615 M315.542 67.615 C 315.702 67.657,315.965 67.657,316.125 67.615 C 316.285 67.573,316.154 67.539,315.833 67.539 C 315.512 67.539,315.381 67.573,315.542 67.615 M52.409 68.542 L 51.750 69.250 52.458 68.591 C 53.117 67.978,53.243 67.833,53.117 67.833 C 53.090 67.833,52.771 68.152,52.409 68.542 M319.075 68.542 L 318.417 69.250 319.125 68.591 C 319.515 68.229,319.833 67.910,319.833 67.883 C 319.833 67.757,319.688 67.883,319.075 68.542 M79.000 68.052 C 79.000 68.081,79.244 68.325,79.542 68.594 L 80.083 69.083 79.594 68.542 C 79.138 68.037,79.000 67.923,79.000 68.052 M345.667 68.052 C 345.667 68.081,345.910 68.325,346.208 68.594 L 346.750 69.083 346.260 68.542 C 345.804 68.037,345.667 67.923,345.667 68.052 M100.167 69.583 C 99.762 69.996,99.468 70.333,99.514 70.333 C 99.560 70.333,99.928 69.996,100.333 69.583 C 100.738 69.171,101.032 68.833,100.986 68.833 C 100.940 68.833,100.572 69.171,100.167 69.583 M366.833 69.583 C 366.428 69.996,366.135 70.333,366.181 70.333 C 366.226 70.333,366.595 69.996,367.000 69.583 C 367.405 69.171,367.699 68.833,367.653 68.833 C 367.607 68.833,367.238 69.171,366.833 69.583 M73.205 69.500 C 73.205 69.821,73.240 69.952,73.282 69.792 C 73.323 69.631,73.323 69.369,73.282 69.208 C 73.240 69.048,73.205 69.179,73.205 69.500 M339.872 69.500 C 339.872 69.821,339.906 69.952,339.948 69.792 C 339.990 69.631,339.990 69.369,339.948 69.208 C 339.906 69.048,339.872 69.179,339.872 69.500 M44.958 71.621 C 45.256 71.658,45.744 71.658,46.042 71.621 C 46.340 71.584,46.096 71.553,45.500 71.553 C 44.904 71.553,44.660 71.584,44.958 71.621 M85.208 71.615 C 85.369 71.657,85.631 71.657,85.792 71.615 C 85.952 71.573,85.821 71.539,85.500 71.539 C 85.179 71.539,85.048 71.573,85.208 71.615 M86.794 71.618 C 87.001 71.658,87.301 71.656,87.460 71.615 C 87.620 71.573,87.450 71.540,87.083 71.542 C 86.717 71.544,86.586 71.578,86.794 71.618 M311.625 71.621 C 311.923 71.658,312.410 71.658,312.708 71.621 C 313.006 71.584,312.762 71.553,312.167 71.553 C 311.571 71.553,311.327 71.584,311.625 71.621 M351.875 71.615 C 352.035 71.657,352.298 71.657,352.458 71.615 C 352.619 71.573,352.488 71.539,352.167 71.539 C 351.846 71.539,351.715 71.573,351.875 71.615 M353.460 71.618 C 353.668 71.658,353.968 71.656,354.127 71.615 C 354.286 71.573,354.117 71.540,353.750 71.542 C 353.383 71.544,353.253 71.578,353.460 71.618 M103.375 73.282 C 103.535 73.323,103.798 73.323,103.958 73.282 C 104.119 73.240,103.987 73.205,103.667 73.205 C 103.346 73.205,103.215 73.240,103.375 73.282 M370.042 73.282 C 370.202 73.323,370.465 73.323,370.625 73.282 C 370.785 73.240,370.654 73.205,370.333 73.205 C 370.012 73.205,369.881 73.240,370.042 73.282 M25.583 90.000 C 25.941 90.367,26.272 90.667,26.318 90.667 C 26.363 90.667,26.108 90.367,25.750 90.000 C 25.392 89.633,25.062 89.333,25.016 89.333 C 24.970 89.333,25.225 89.633,25.583 90.000 M158.917 90.000 C 159.275 90.367,159.605 90.667,159.651 90.667 C 159.697 90.667,159.441 90.367,159.083 90.000 C 158.725 89.633,158.395 89.333,158.349 89.333 C 158.303 89.333,158.559 89.633,158.917 90.000 M292.250 90.000 C 292.608 90.367,292.938 90.667,292.984 90.667 C 293.030 90.667,292.775 90.367,292.417 90.000 C 292.059 89.633,291.728 89.333,291.682 89.333 C 291.637 89.333,291.892 89.633,292.250 90.000 M64.375 103.457 C 65.085 103.488,66.248 103.488,66.958 103.457 C 67.669 103.426,67.087 103.400,65.667 103.400 C 64.246 103.400,63.665 103.426,64.375 103.457 M197.800 103.457 C 198.560 103.488,199.760 103.488,200.466 103.457 C 201.172 103.426,200.550 103.401,199.083 103.401 C 197.617 103.401,197.039 103.427,197.800 103.457 M331.133 103.457 C 331.894 103.488,333.094 103.488,333.800 103.457 C 334.506 103.426,333.883 103.401,332.417 103.401 C 330.950 103.401,330.372 103.427,331.133 103.457 M64.125 107.621 C 64.423 107.658,64.910 107.658,65.208 107.621 C 65.506 107.584,65.262 107.553,64.667 107.553 C 64.071 107.553,63.827 107.584,64.125 107.621 M68.542 107.615 C 68.702 107.657,68.965 107.657,69.125 107.615 C 69.285 107.573,69.154 107.539,68.833 107.539 C 68.512 107.539,68.381 107.573,68.542 107.615 M197.458 107.621 C 197.756 107.658,198.244 107.658,198.542 107.621 C 198.840 107.584,198.596 107.553,198.000 107.553 C 197.404 107.553,197.160 107.584,197.458 107.621 M200.795 107.621 C 201.094 107.658,201.544 107.657,201.795 107.619 C 202.045 107.581,201.800 107.551,201.250 107.552 C 200.700 107.553,200.495 107.584,200.795 107.621 M330.792 107.621 C 331.090 107.658,331.577 107.658,331.875 107.621 C 332.173 107.584,331.929 107.553,331.333 107.553 C 330.737 107.553,330.494 107.584,330.792 107.621 M22.218 110.417 C 22.219 110.967,22.250 111.172,22.287 110.872 C 22.325 110.572,22.324 110.122,22.286 109.872 C 22.248 109.622,22.217 109.867,22.218 110.417 M155.552 110.417 C 155.553 110.967,155.584 111.172,155.621 110.872 C 155.658 110.572,155.657 110.122,155.619 109.872 C 155.581 109.622,155.551 109.867,155.552 110.417 M288.885 110.417 C 288.886 110.967,288.917 111.172,288.954 110.872 C 288.991 110.572,288.990 110.122,288.952 109.872 C 288.914 109.622,288.884 109.867,288.885 110.417 M22.167 112.573 C 22.167 112.797,22.228 113.018,22.303 113.065 C 22.378 113.111,22.407 112.928,22.368 112.658 C 22.280 112.062,22.167 112.015,22.167 112.573 M155.500 112.573 C 155.500 112.797,155.561 113.018,155.637 113.065 C 155.712 113.111,155.741 112.928,155.701 112.658 C 155.614 112.062,155.500 112.015,155.500 112.573 M288.833 112.573 C 288.833 112.797,288.895 113.018,288.970 113.065 C 289.045 113.111,289.074 112.928,289.034 112.658 C 288.947 112.062,288.833 112.015,288.833 112.573 " stroke="none" fill="#979696" fill-rule="evenodd"></path><path id="path4" d="M92.875 47.115 C 93.035 47.157,93.298 47.157,93.458 47.115 C 93.619 47.073,93.487 47.039,93.167 47.039 C 92.846 47.039,92.715 47.073,92.875 47.115 M359.542 47.115 C 359.702 47.157,359.965 47.157,360.125 47.115 C 360.285 47.073,360.154 47.039,359.833 47.039 C 359.512 47.039,359.381 47.073,359.542 47.115 M45.211 48.953 C 45.464 48.991,45.839 48.990,46.044 48.951 C 46.249 48.911,46.042 48.880,45.583 48.881 C 45.125 48.882,44.957 48.915,45.211 48.953 M311.877 48.953 C 312.131 48.991,312.506 48.990,312.711 48.951 C 312.916 48.911,312.708 48.880,312.250 48.881 C 311.792 48.882,311.624 48.915,311.877 48.953 M100.083 50.667 C 100.535 51.125,100.942 51.500,100.987 51.500 C 101.033 51.500,100.701 51.125,100.250 50.667 C 99.799 50.208,99.392 49.833,99.346 49.833 C 99.300 49.833,99.632 50.208,100.083 50.667 M366.750 50.667 C 367.201 51.125,367.608 51.500,367.654 51.500 C 367.700 51.500,367.368 51.125,366.917 50.667 C 366.465 50.208,366.058 49.833,366.013 49.833 C 365.967 49.833,366.299 50.208,366.750 50.667 M37.994 51.785 L 37.083 52.736 38.000 51.913 C 38.836 51.162,39.130 50.833,38.967 50.833 C 38.933 50.833,38.495 51.262,37.994 51.785 M304.661 51.785 L 303.750 52.736 304.667 51.913 C 305.503 51.162,305.797 50.833,305.633 50.833 C 305.600 50.833,305.162 51.262,304.661 51.785 M27.881 59.750 C 27.882 60.208,27.915 60.376,27.953 60.123 C 27.991 59.869,27.990 59.494,27.951 59.289 C 27.911 59.084,27.880 59.292,27.881 59.750 M294.548 59.750 C 294.549 60.208,294.581 60.376,294.620 60.123 C 294.658 59.869,294.657 59.494,294.617 59.289 C 294.578 59.084,294.546 59.292,294.548 59.750 M34.385 60.250 C 34.386 60.800,34.417 61.005,34.454 60.705 C 34.491 60.406,34.490 59.956,34.452 59.705 C 34.414 59.455,34.384 59.700,34.385 60.250 M301.052 60.250 C 301.053 60.800,301.084 61.005,301.121 60.705 C 301.158 60.406,301.157 59.956,301.119 59.705 C 301.081 59.455,301.051 59.700,301.052 60.250 M97.539 60.167 C 97.539 60.487,97.573 60.619,97.615 60.458 C 97.657 60.298,97.657 60.035,97.615 59.875 C 97.573 59.715,97.539 59.846,97.539 60.167 M364.209 60.250 C 364.211 60.617,364.245 60.747,364.285 60.540 C 364.324 60.332,364.323 60.032,364.281 59.873 C 364.239 59.714,364.207 59.883,364.209 60.250 M121.517 60.032 C 121.566 60.686,121.800 61.090,121.817 60.552 C 121.826 60.259,121.758 59.973,121.667 59.917 C 121.575 59.860,121.507 59.912,121.517 60.032 M254.850 60.032 C 254.900 60.686,255.133 61.090,255.150 60.552 C 255.159 60.259,255.092 59.973,255.000 59.917 C 254.908 59.860,254.841 59.912,254.850 60.032 M388.183 60.032 C 388.233 60.686,388.467 61.090,388.483 60.552 C 388.493 60.259,388.425 59.973,388.333 59.917 C 388.242 59.860,388.174 59.912,388.183 60.032 M10.539 62.000 C 10.539 62.321,10.573 62.452,10.615 62.292 C 10.657 62.131,10.657 61.869,10.615 61.708 C 10.573 61.548,10.539 61.679,10.539 62.000 M143.872 62.000 C 143.872 62.321,143.906 62.452,143.948 62.292 C 143.990 62.131,143.990 61.869,143.948 61.708 C 143.906 61.548,143.872 61.679,143.872 62.000 M277.205 62.000 C 277.205 62.321,277.240 62.452,277.282 62.292 C 277.323 62.131,277.323 61.869,277.282 61.708 C 277.240 61.548,277.205 61.679,277.205 62.000 M121.879 62.833 C 121.879 63.246,121.911 63.415,121.951 63.208 C 121.991 63.002,121.991 62.665,121.951 62.458 C 121.911 62.252,121.879 62.421,121.879 62.833 M255.212 62.833 C 255.212 63.246,255.245 63.415,255.284 63.208 C 255.324 63.002,255.324 62.665,255.284 62.458 C 255.245 62.252,255.212 62.421,255.212 62.833 M388.545 62.833 C 388.545 63.246,388.578 63.415,388.618 63.208 C 388.657 63.002,388.657 62.665,388.618 62.458 C 388.578 62.252,388.545 62.421,388.545 62.833 M10.379 65.167 C 10.379 65.579,10.411 65.748,10.451 65.542 C 10.491 65.335,10.491 64.998,10.451 64.792 C 10.411 64.585,10.379 64.754,10.379 65.167 M143.712 65.167 C 143.712 65.579,143.745 65.748,143.784 65.542 C 143.824 65.335,143.824 64.998,143.784 64.792 C 143.745 64.585,143.712 64.754,143.712 65.167 M277.045 65.167 C 277.045 65.579,277.078 65.748,277.118 65.542 C 277.157 65.335,277.157 64.998,277.118 64.792 C 277.078 64.585,277.045 64.754,277.045 65.167 M121.883 68.833 C 121.883 69.337,121.915 69.544,121.953 69.292 C 121.991 69.040,121.991 68.627,121.953 68.375 C 121.915 68.123,121.883 68.329,121.883 68.833 M255.217 68.833 C 255.217 69.337,255.248 69.544,255.286 69.292 C 255.324 69.040,255.324 68.627,255.286 68.375 C 255.248 68.123,255.217 68.329,255.217 68.833 M388.550 68.833 C 388.550 69.337,388.581 69.544,388.619 69.292 C 388.658 69.040,388.658 68.627,388.619 68.375 C 388.581 68.123,388.550 68.329,388.550 68.833 M10.545 69.000 C 10.545 69.412,10.578 69.581,10.618 69.375 C 10.657 69.169,10.657 68.831,10.618 68.625 C 10.578 68.419,10.545 68.587,10.545 69.000 M143.879 69.000 C 143.879 69.412,143.911 69.581,143.951 69.375 C 143.991 69.169,143.991 68.831,143.951 68.625 C 143.911 68.419,143.879 68.587,143.879 69.000 M277.212 69.000 C 277.212 69.412,277.245 69.581,277.284 69.375 C 277.324 69.169,277.324 68.831,277.284 68.625 C 277.245 68.419,277.212 68.587,277.212 69.000 M100.409 69.208 L 99.750 69.917 100.458 69.258 C 101.117 68.645,101.243 68.500,101.117 68.500 C 101.090 68.500,100.771 68.819,100.409 69.208 M367.075 69.208 L 366.417 69.917 367.125 69.258 C 367.784 68.645,367.910 68.500,367.784 68.500 C 367.757 68.500,367.438 68.819,367.075 69.208 M31.826 69.542 C 32.235 69.977,32.591 70.333,32.618 70.333 C 32.743 70.333,32.611 70.184,31.875 69.493 L 31.083 68.750 31.826 69.542 M298.493 69.542 C 299.184 70.278,299.333 70.410,299.333 70.285 C 299.333 70.258,298.977 69.902,298.542 69.493 L 297.750 68.750 298.493 69.542 M121.712 71.500 C 121.712 71.912,121.745 72.081,121.784 71.875 C 121.824 71.669,121.824 71.331,121.784 71.125 C 121.745 70.919,121.712 71.087,121.712 71.500 M255.045 71.500 C 255.045 71.912,255.078 72.081,255.118 71.875 C 255.157 71.669,255.157 71.331,255.118 71.125 C 255.078 70.919,255.045 71.087,255.045 71.500 M388.379 71.500 C 388.379 71.912,388.411 72.081,388.451 71.875 C 388.491 71.669,388.491 71.331,388.451 71.125 C 388.411 70.919,388.379 71.087,388.379 71.500 M84.833 71.678 C 84.833 71.803,86.499 72.556,86.586 72.470 C 86.615 72.440,86.233 72.224,85.736 71.990 C 85.240 71.755,84.833 71.615,84.833 71.678 M352.333 72.139 C 352.471 72.224,352.771 72.343,353.000 72.404 C 353.290 72.482,353.340 72.469,353.167 72.361 C 353.029 72.276,352.729 72.157,352.500 72.096 C 352.210 72.018,352.160 72.031,352.333 72.139 M10.872 72.833 C 10.872 73.154,10.906 73.285,10.948 73.125 C 10.990 72.965,10.990 72.702,10.948 72.542 C 10.906 72.381,10.872 72.512,10.872 72.833 M144.205 72.833 C 144.205 73.154,144.240 73.285,144.282 73.125 C 144.323 72.965,144.323 72.702,144.282 72.542 C 144.240 72.381,144.205 72.512,144.205 72.833 M277.539 72.833 C 277.539 73.154,277.573 73.285,277.615 73.125 C 277.657 72.965,277.657 72.702,277.615 72.542 C 277.573 72.381,277.539 72.512,277.539 72.833 M121.539 73.167 C 121.539 73.487,121.573 73.619,121.615 73.458 C 121.657 73.298,121.657 73.035,121.615 72.875 C 121.573 72.715,121.539 72.846,121.539 73.167 M254.872 73.167 C 254.872 73.487,254.906 73.619,254.948 73.458 C 254.990 73.298,254.990 73.035,254.948 72.875 C 254.906 72.715,254.872 72.846,254.872 73.167 M388.205 73.167 C 388.205 73.487,388.240 73.619,388.282 73.458 C 388.323 73.298,388.323 73.035,388.282 72.875 C 388.240 72.715,388.205 72.846,388.205 73.167 M38.457 73.027 C 38.618 73.091,39.650 73.137,40.750 73.130 C 43.073 73.115,42.737 73.035,40.040 72.962 C 39.008 72.934,38.296 72.963,38.457 73.027 M88.750 72.998 C 89.255 73.129,90.948 73.218,90.819 73.106 C 90.781 73.073,90.188 73.006,89.500 72.957 C 88.768 72.905,88.457 72.922,88.750 72.998 M305.124 73.027 C 305.285 73.091,306.317 73.137,307.417 73.130 C 309.739 73.115,309.403 73.035,306.707 72.962 C 305.675 72.934,304.962 72.963,305.124 73.027 M355.417 72.998 C 355.922 73.129,357.614 73.218,357.486 73.106 C 357.448 73.073,356.854 73.006,356.167 72.957 C 355.434 72.905,355.124 72.922,355.417 72.998 M116.783 87.752 C 116.630 88.072,116.540 88.333,116.582 88.333 C 116.696 88.333,117.202 87.313,117.125 87.237 C 117.089 87.200,116.935 87.432,116.783 87.752 M250.116 87.752 C 249.963 88.072,249.873 88.333,249.915 88.333 C 250.029 88.333,250.535 87.313,250.459 87.237 C 250.423 87.200,250.268 87.432,250.116 87.752 M383.449 87.752 C 383.297 88.072,383.206 88.333,383.248 88.333 C 383.362 88.333,383.868 87.313,383.792 87.237 C 383.756 87.200,383.602 87.432,383.449 87.752 M111.158 95.958 L 110.583 96.583 111.208 96.009 C 111.790 95.474,111.910 95.333,111.783 95.333 C 111.755 95.333,111.474 95.615,111.158 95.958 M244.491 95.958 L 243.917 96.583 244.542 96.009 C 245.123 95.474,245.243 95.333,245.116 95.333 C 245.088 95.333,244.807 95.615,244.491 95.958 M377.824 95.958 L 377.250 96.583 377.875 96.009 C 378.457 95.474,378.577 95.333,378.449 95.333 C 378.422 95.333,378.140 95.615,377.824 95.958 M22.333 97.417 C 22.831 97.921,23.276 98.333,23.322 98.333 C 23.368 98.333,22.998 97.921,22.500 97.417 C 22.002 96.912,21.557 96.500,21.511 96.500 C 21.466 96.500,21.835 96.912,22.333 97.417 M155.667 97.417 C 156.165 97.921,156.609 98.333,156.655 98.333 C 156.701 98.333,156.331 97.921,155.833 97.417 C 155.335 96.912,154.891 96.500,154.845 96.500 C 154.799 96.500,155.169 96.912,155.667 97.417 M289.000 97.417 C 289.498 97.921,289.943 98.333,289.989 98.333 C 290.034 98.333,289.665 97.921,289.167 97.417 C 288.669 96.912,288.224 96.500,288.178 96.500 C 288.132 96.500,288.502 96.912,289.000 97.417 M108.242 98.875 L 107.583 99.583 108.292 98.925 C 108.950 98.312,109.077 98.167,108.950 98.167 C 108.923 98.167,108.605 98.485,108.242 98.875 M241.575 98.875 L 240.917 99.583 241.625 98.925 C 242.015 98.562,242.333 98.243,242.333 98.216 C 242.333 98.090,242.188 98.216,241.575 98.875 M374.909 98.875 L 374.250 99.583 374.958 98.925 C 375.617 98.312,375.743 98.167,375.617 98.167 C 375.590 98.167,375.271 98.485,374.909 98.875 M54.125 111.618 C 54.331 111.657,54.669 111.657,54.875 111.618 C 55.081 111.578,54.913 111.545,54.500 111.545 C 54.087 111.545,53.919 111.578,54.125 111.618 M187.458 111.618 C 187.665 111.657,188.002 111.657,188.208 111.618 C 188.415 111.578,188.246 111.545,187.833 111.545 C 187.421 111.545,187.252 111.578,187.458 111.618 M320.792 111.618 C 320.998 111.657,321.335 111.657,321.542 111.618 C 321.748 111.578,321.579 111.545,321.167 111.545 C 320.754 111.545,320.585 111.578,320.792 111.618 M345.375 111.615 C 345.535 111.657,345.798 111.657,345.958 111.615 C 346.119 111.573,345.988 111.539,345.667 111.539 C 345.346 111.539,345.215 111.573,345.375 111.615 M343.875 111.782 C 344.035 111.823,344.298 111.823,344.458 111.782 C 344.619 111.740,344.488 111.705,344.167 111.705 C 343.846 111.705,343.715 111.740,343.875 111.782 M75.542 111.948 C 75.702 111.990,75.965 111.990,76.125 111.948 C 76.285 111.906,76.154 111.872,75.833 111.872 C 75.512 111.872,75.381 111.906,75.542 111.948 M208.875 111.948 C 209.035 111.990,209.298 111.990,209.458 111.948 C 209.619 111.906,209.487 111.872,209.167 111.872 C 208.846 111.872,208.715 111.906,208.875 111.948 M59.708 112.286 C 59.960 112.324,60.373 112.324,60.625 112.286 C 60.877 112.248,60.671 112.217,60.167 112.217 C 59.663 112.217,59.456 112.248,59.708 112.286 M71.960 112.285 C 72.168 112.324,72.468 112.323,72.627 112.281 C 72.786 112.239,72.617 112.207,72.250 112.209 C 71.883 112.211,71.753 112.245,71.960 112.285 M193.042 112.286 C 193.294 112.324,193.706 112.324,193.958 112.286 C 194.210 112.248,194.004 112.217,193.500 112.217 C 192.996 112.217,192.790 112.248,193.042 112.286 M205.294 112.285 C 205.501 112.324,205.801 112.323,205.960 112.281 C 206.120 112.239,205.950 112.207,205.583 112.209 C 205.217 112.211,205.086 112.245,205.294 112.285 M326.375 112.286 C 326.627 112.324,327.040 112.324,327.292 112.286 C 327.544 112.248,327.337 112.217,326.833 112.217 C 326.329 112.217,326.123 112.248,326.375 112.286 M338.711 112.286 C 338.964 112.325,339.339 112.324,339.544 112.284 C 339.749 112.244,339.542 112.213,339.083 112.214 C 338.625 112.216,338.457 112.248,338.711 112.286 M63.298 112.457 C 63.875 112.490,64.775 112.489,65.298 112.456 C 65.822 112.423,65.350 112.397,64.250 112.397 C 63.150 112.397,62.722 112.424,63.298 112.457 M67.958 112.457 C 68.531 112.489,69.469 112.489,70.042 112.457 C 70.615 112.424,70.146 112.398,69.000 112.398 C 67.854 112.398,67.385 112.424,67.958 112.457 M196.632 112.457 C 197.208 112.490,198.108 112.489,198.632 112.456 C 199.155 112.423,198.683 112.397,197.583 112.397 C 196.483 112.397,196.055 112.424,196.632 112.457 M202.629 112.456 C 203.021 112.491,203.621 112.490,203.963 112.454 C 204.304 112.419,203.983 112.390,203.250 112.390 C 202.517 112.391,202.237 112.420,202.629 112.456 M329.965 112.457 C 330.541 112.490,331.441 112.489,331.965 112.456 C 332.488 112.423,332.017 112.397,330.917 112.397 C 329.817 112.397,329.388 112.424,329.965 112.457 M335.542 112.456 C 335.977 112.490,336.690 112.490,337.125 112.456 C 337.560 112.422,337.204 112.393,336.333 112.393 C 335.462 112.393,335.106 112.422,335.542 112.456 M22.053 115.500 C 22.053 116.096,22.084 116.340,22.121 116.042 C 22.158 115.744,22.158 115.256,22.121 114.958 C 22.084 114.660,22.053 114.904,22.053 115.500 M155.387 115.500 C 155.387 116.096,155.417 116.340,155.454 116.042 C 155.491 115.744,155.491 115.256,155.454 114.958 C 155.417 114.660,155.387 114.904,155.387 115.500 M288.720 115.500 C 288.720 116.096,288.750 116.340,288.787 116.042 C 288.824 115.744,288.824 115.256,288.787 114.958 C 288.750 114.660,288.720 114.904,288.720 115.500 M30.458 118.262 C 29.835 118.600,29.873 118.741,30.500 118.417 C 30.775 118.274,31.000 118.123,31.000 118.079 C 31.000 117.972,30.982 117.978,30.458 118.262 M163.792 118.262 C 163.169 118.600,163.207 118.741,163.833 118.417 C 164.108 118.274,164.333 118.123,164.333 118.079 C 164.333 117.972,164.315 117.978,163.792 118.262 M297.125 118.262 C 296.502 118.600,296.540 118.741,297.167 118.417 C 297.442 118.274,297.667 118.123,297.667 118.079 C 297.667 117.972,297.649 117.978,297.125 118.262 M29.292 118.929 C 28.669 119.267,28.707 119.407,29.333 119.083 C 29.608 118.941,29.833 118.789,29.833 118.746 C 29.833 118.638,29.815 118.645,29.292 118.929 M162.625 118.929 C 162.002 119.267,162.040 119.407,162.667 119.083 C 162.942 118.941,163.167 118.789,163.167 118.746 C 163.167 118.638,163.149 118.645,162.625 118.929 M295.958 118.929 C 295.335 119.267,295.373 119.407,296.000 119.083 C 296.275 118.941,296.500 118.789,296.500 118.746 C 296.500 118.638,296.482 118.645,295.958 118.929 " stroke="none" fill="#f095a7" fill-rule="evenodd"></path></g></svg>