<svg xmlns="http://www.w3.org/2000/svg" width="629" height="629" viewBox="0 0 629 629" version="1.1"><path d="M 180.500 222.540 C 171.959 224.382, 161.152 229.633, 154.251 235.294 C 126.317 258.208, 124.487 301.894, 150.387 327.544 C 157.151 334.243, 157.872 334.675, 165.081 336.340 C 169.926 337.459, 174.513 339.337, 177.791 341.545 C 182.624 344.800, 183.401 344.999, 191.211 344.983 C 200.578 344.963, 210.352 343.134, 217 340.157 L 221.500 338.141 215 338.056 C 197.516 337.826, 181.559 329.623, 172.156 316.031 C 157.344 294.620, 159.054 266.541, 176.335 247.446 C 186.900 235.770, 198.771 230.592, 215.100 230.534 L 224.701 230.500 220.016 227.824 C 209.978 222.091, 193.066 219.830, 180.500 222.540 M 422.477 221.938 C 415.117 223.093, 406.536 225.751, 402.519 228.121 C 400.584 229.263, 399 230.274, 399 230.368 C 399 230.462, 402.262 230.378, 406.250 230.181 C 431.653 228.927, 454.215 247.174, 459.450 273.208 C 461.397 282.891, 461.391 286.191, 459.408 295.792 C 457.265 306.170, 453.665 313.183, 446.588 320.766 C 436.014 332.096, 422.874 337.900, 407.500 338.029 L 400.500 338.088 404.217 340.051 C 409.467 342.824, 420.806 345.005, 430.890 345.183 C 439.214 345.330, 439.671 345.218, 444.642 341.808 C 447.530 339.826, 452.790 337.494, 456.642 336.487 C 465.377 334.202, 468.734 332.177, 474.691 325.600 C 489.388 309.373, 494.499 287.363, 488.446 266.362 C 483.745 250.051, 473.030 236.597, 458.284 228.492 C 448.324 223.017, 433.219 220.253, 422.477 221.938 M 188.177 249.683 C 178.646 254.380, 177.170 268.360, 185.403 275.955 C 189.380 279.622, 199.171 280.090, 203.898 276.838 C 211.035 271.929, 212.963 263.025, 208.528 255.458 C 204.562 248.689, 195.444 246.102, 188.177 249.683 M 385.942 248.948 C 381.108 250.415, 379.003 252.074, 377.003 255.994 C 370.456 268.827, 381.548 283.182, 394.747 278.956 C 402.523 276.466, 406.457 270.526, 405.775 262.304 C 405.409 257.885, 404.734 256.321, 401.959 253.458 C 397.411 248.766, 391.774 247.178, 385.942 248.948 M 228.315 304.007 C 221.088 306.919, 223.451 318.400, 231.278 318.400 C 237.576 318.400, 241.182 313.186, 238.486 307.973 C 236.142 303.440, 232.880 302.168, 228.315 304.007 M 421.635 305.073 C 416.106 309.422, 419.334 318, 426.500 318 C 433.504 318, 436.540 310.450, 431.545 305.455 C 428.546 302.455, 425.130 302.323, 421.635 305.073" stroke="none" fill="#f8f2e2" fill-rule="evenodd"/><path d="M 275.500 70.027 C 269.450 70.511, 263.150 71.149, 261.500 71.445 C 257.037 72.245, 254.490 72.666, 243.500 74.422 C 230.776 76.455, 222.774 78.057, 221.500 78.825 C 220.950 79.157, 216 80.647, 210.500 82.137 C 200.255 84.912, 182.895 90.901, 182 91.969 C 181.725 92.297, 178.238 93.828, 174.250 95.371 C 170.262 96.914, 167 98.488, 167 98.868 C 167 99.249, 164.714 100.446, 161.921 101.530 C 159.127 102.613, 156.076 104.175, 155.141 105 C 154.206 105.825, 151.289 107.625, 148.659 109 C 146.029 110.375, 143.160 112.287, 142.283 113.250 C 141.407 114.212, 140.150 115, 139.491 115 C 138.832 115, 137.190 116.012, 135.842 117.250 C 134.495 118.487, 131.403 120.850, 128.971 122.500 C 119.852 128.689, 89 161.250, 89 164.686 C 89 165.217, 87.875 166.708, 86.500 168 C 85.125 169.292, 84 170.752, 84 171.244 C 84 171.737, 82.737 174.021, 81.193 176.320 C 78.695 180.040, 73.203 190.917, 67.217 204 C 66.085 206.475, 64.413 211.200, 63.501 214.500 C 62.589 217.800, 61.247 221.850, 60.518 223.500 C 59.177 226.534, 56.987 236.690, 54.910 249.500 C 54.286 253.350, 53.561 257.625, 53.299 259 C 50.687 272.705, 51.249 303.948, 54.522 327 C 60.677 370.337, 79.522 409.301, 109.239 440.132 L 115.631 446.763 114.762 455.132 C 114.284 459.734, 113.485 464.400, 112.986 465.500 C 112.487 466.600, 110.908 476.950, 109.477 488.500 C 108.045 500.050, 106.759 510.423, 106.619 511.550 C 106.479 512.678, 106.054 514.103, 105.675 514.717 C 105.295 515.331, 104.884 519.583, 104.761 524.167 C 104.562 531.586, 104.809 532.906, 107.018 536.204 C 112.254 544.017, 122.897 546.644, 131.512 542.249 C 133.705 541.129, 151.916 529.973, 171.981 517.457 C 192.045 504.941, 208.920 494.661, 209.481 494.612 C 210.041 494.563, 217.250 496.194, 225.500 498.236 C 277.046 510.996, 350.141 510.881, 404 497.956 C 451.277 486.611, 488.526 466.725, 516.572 437.857 C 549.280 404.193, 567.770 361.866, 571.990 311 C 573.332 294.822, 573.485 266.307, 572.238 264.725 C 571.707 264.051, 570.978 260.800, 570.619 257.500 C 569.451 246.776, 566.842 232.571, 565.476 229.500 C 564.742 227.850, 563.185 222.916, 562.015 218.535 C 560.845 214.154, 559.539 210.104, 559.113 209.535 C 558.687 208.966, 557.309 205.575, 556.052 202 C 554.795 198.425, 553.220 194.825, 552.551 194 C 551.883 193.175, 550.304 190.025, 549.042 187 C 547.781 183.975, 546.418 181.275, 546.014 181 C 545.610 180.725, 544.472 178.926, 543.486 177.002 C 540.928 172.013, 535.486 163.863, 533.065 161.395 C 531.929 160.237, 531 158.935, 531 158.503 C 531 156.191, 501.904 126, 499.677 126 C 499.188 126, 497.903 124.875, 496.821 123.500 C 495.740 122.125, 494.268 121, 493.550 121 C 492.832 121, 491.681 120.320, 490.991 119.490 C 488.620 116.632, 474.943 107.932, 464 102.321 C 460.975 100.769, 458.258 99.178, 457.963 98.785 C 457.667 98.392, 454.405 96.934, 450.713 95.544 C 447.021 94.154, 443.213 92.543, 442.250 91.963 C 439.183 90.115, 423.839 84.874, 413.500 82.142 C 408 80.689, 403.028 79.192, 402.452 78.816 C 401.446 78.159, 391.340 76.266, 376.500 73.953 C 372.650 73.353, 368.375 72.662, 367 72.416 C 356.739 70.584, 346.480 69.988, 318.500 69.596 C 300.900 69.349, 281.550 69.543, 275.500 70.027 M 275.500 90.521 C 237.085 94.337, 212.383 100.368, 183.827 112.904 C 102.759 148.492, 61.103 227.435, 73.590 321.817 C 79.173 364.009, 96.746 400.342, 125.561 429.268 L 135.292 439.037 134.710 448.268 C 134.391 453.346, 132.314 470.325, 130.095 486 C 127.875 501.675, 125.784 516.475, 125.448 518.888 C 124.929 522.608, 125.075 523.185, 126.403 522.676 C 127.265 522.345, 137.314 516.266, 148.735 509.168 C 207.244 472.802, 203.420 475, 208.171 475 C 210.600 475, 216.392 476.088, 221.043 477.417 C 247.774 485.056, 281.416 488.477, 322.250 487.710 C 365.731 486.894, 398.717 481.451, 429.500 470.015 C 492.051 446.776, 531.773 404.149, 546.928 344 C 551.731 324.939, 553.344 308.258, 552.683 284.500 C 552.064 262.244, 550.558 250.756, 546.128 234.488 C 537.298 202.066, 523.791 178.004, 501.600 155.163 C 485.423 138.514, 470.011 127.490, 447.500 116.468 C 408.710 97.477, 365.834 88.845, 311.621 89.115 C 298.904 89.178, 282.650 89.811, 275.500 90.521 M 175.500 212.499 C 158.619 216.269, 140.743 229.531, 131.135 245.414 C 121.875 260.722, 118.521 282.761, 122.848 299.870 C 125.524 310.455, 130.542 320.888, 136.874 329.037 C 141.894 335.497, 142.321 337, 139.137 337 C 134.629 337, 120.386 346.719, 122.215 348.548 C 122.528 348.861, 124.520 348.365, 126.642 347.445 C 128.920 346.458, 134.408 345.565, 140.042 345.263 C 156.176 344.400, 172.668 349.786, 183.750 359.536 L 189 364.155 189 360.045 C 189 357.785, 188.394 354.488, 187.653 352.718 C 184.872 346.076, 172.656 337.713, 163.833 336.411 C 158.288 335.592, 153.134 332.098, 147.127 325.081 C 137.998 314.421, 134.020 305.103, 131.948 289.537 C 128.914 266.736, 141.144 241.727, 161.136 229.850 C 176.394 220.785, 194.687 218.384, 210.420 223.381 C 216.442 225.293, 227.003 230.333, 226.999 231.292 C 226.999 231.406, 221.261 231.500, 214.249 231.500 C 201.605 231.500, 201.436 231.531, 193.734 235.208 C 179.810 241.857, 169.381 253.960, 165.074 268.467 C 162.112 278.447, 162.458 293.037, 165.890 302.890 C 173.899 325.882, 198.127 340.783, 221.569 337.134 C 251.658 332.449, 271.303 297.251, 261.381 265.802 C 258.055 255.262, 251.381 241.927, 246.065 235.202 C 237.926 224.905, 223.085 215.648, 209.627 212.474 C 202.006 210.677, 183.599 210.690, 175.500 212.499 M 413.280 212.435 C 400.915 215.432, 387.066 223.683, 378.601 233.099 C 372.398 239.998, 367.332 249.273, 363.105 261.471 C 359.969 270.521, 359.627 272.573, 359.602 282.500 C 359.557 300.153, 364.362 312.321, 376 324.027 C 391.382 339.499, 409.990 342.179, 430.831 331.923 C 449.523 322.724, 460.018 305.489, 459.988 284.040 C 459.974 273.714, 458.433 267.519, 453.582 258.289 C 444.028 240.107, 423.057 228.467, 403.500 230.489 L 397.500 231.110 400 229.104 C 401.375 228.001, 406.767 225.681, 411.981 223.948 C 420.823 221.011, 422.206 220.827, 432.481 221.215 C 441.921 221.571, 444.647 222.085, 451.500 224.802 C 478.058 235.330, 493.872 261.882, 490.926 291 C 489.704 303.081, 486.030 312.186, 478.340 322.198 C 471.542 331.049, 466.506 334.676, 458.828 336.255 C 450.745 337.917, 441.851 343.109, 437.890 348.478 C 434.557 352.994, 432.592 359.138, 433.532 362.100 C 434.117 363.943, 434.500 363.794, 438.397 360.202 C 444.131 354.916, 449.983 351.642, 459.500 348.396 C 466.462 346.021, 469.122 345.658, 480 345.596 C 489.868 345.540, 493.322 345.893, 496.404 347.275 C 500.918 349.300, 501.657 349.036, 499.819 346.053 C 498.009 343.114, 490.391 338.404, 485.250 337.046 C 482.913 336.428, 481 335.675, 481 335.373 C 481 335.070, 483.033 332.500, 485.517 329.661 C 490.914 323.495, 496.999 311.961, 499.583 303 C 502.389 293.267, 502.213 274.106, 499.222 263.701 C 495.013 249.063, 487.455 237.338, 475.756 227.295 C 468.285 220.883, 455.355 214.395, 446.161 212.447 C 438.026 210.722, 420.373 210.716, 413.280 212.435 M 189.500 248.487 C 182.469 251.790, 179.999 255.687, 180.004 263.473 C 180.008 270.894, 182.304 275.094, 187.921 277.960 C 193.100 280.602, 197.515 280.541, 202.994 277.750 C 215.087 271.592, 214.278 254.663, 201.616 248.913 C 196.723 246.691, 193.561 246.580, 189.500 248.487 M 385.637 248.453 C 371.804 253.426, 370.227 271.895, 383.069 278.536 C 389.205 281.708, 399.936 279.079, 403.586 273.510 C 412.124 260.478, 399.851 243.344, 385.637 248.453 M 225.589 306.077 C 222.240 310.056, 222.321 312.475, 225.923 316.077 C 229.371 319.525, 233.644 319.918, 237.116 317.107 C 240.422 314.430, 240.422 307.570, 237.116 304.893 C 233.457 301.930, 228.664 302.422, 225.589 306.077 M 420.911 304.871 C 417.489 307.642, 417.710 313.494, 421.356 316.630 C 422.871 317.933, 424.732 319, 425.491 319 C 430.745 319, 435.678 313.837, 434.585 309.482 C 433.057 303.396, 425.768 300.938, 420.911 304.871 M 279 322 C 276.305 324.695, 276.483 328.570, 279.588 334.801 C 282.658 340.960, 288.428 346.260, 296 349.875 C 300.856 352.193, 302.730 352.500, 312 352.500 C 324.282 352.500, 328.936 350.865, 336.496 343.897 C 343.118 337.793, 346.196 332.156, 345.810 326.841 C 345.564 323.441, 344.964 322.264, 342.887 321.104 C 339.062 318.966, 334.465 321.061, 332.958 325.629 C 329.568 335.899, 317.763 341.641, 306.204 338.643 C 299.175 336.820, 294.365 333.308, 291.857 328.170 C 287.964 320.192, 283.128 317.872, 279 322" stroke="none" fill="#080607" fill-rule="evenodd"/><path d="M 275.500 90.521 C 237.085 94.337, 212.383 100.368, 183.827 112.904 C 102.759 148.492, 61.103 227.435, 73.590 321.817 C 79.173 364.009, 96.746 400.342, 125.561 429.268 L 135.292 439.037 134.710 448.268 C 134.391 453.346, 132.314 470.325, 130.095 486 C 127.875 501.675, 125.784 516.475, 125.448 518.888 C 124.929 522.608, 125.075 523.185, 126.403 522.676 C 127.265 522.345, 137.314 516.266, 148.735 509.168 C 207.244 472.802, 203.420 475, 208.171 475 C 210.600 475, 216.392 476.088, 221.043 477.417 C 247.774 485.056, 281.416 488.477, 322.250 487.710 C 365.731 486.894, 398.717 481.451, 429.500 470.015 C 492.051 446.776, 531.773 404.149, 546.928 344 C 551.731 324.939, 553.344 308.258, 552.683 284.500 C 552.064 262.244, 550.558 250.756, 546.128 234.488 C 537.298 202.066, 523.791 178.004, 501.600 155.163 C 485.423 138.514, 470.011 127.490, 447.500 116.468 C 408.710 97.477, 365.834 88.845, 311.621 89.115 C 298.904 89.178, 282.650 89.811, 275.500 90.521 M 175.500 212.499 C 158.619 216.269, 140.743 229.531, 131.135 245.414 C 121.875 260.722, 118.521 282.761, 122.848 299.870 C 125.524 310.455, 130.542 320.888, 136.874 329.037 C 141.894 335.497, 142.321 337, 139.137 337 C 134.629 337, 120.386 346.719, 122.215 348.548 C 122.528 348.861, 124.520 348.365, 126.642 347.445 C 128.920 346.458, 134.408 345.565, 140.042 345.263 C 156.176 344.400, 172.668 349.786, 183.750 359.536 L 189 364.155 189 360.143 C 189 354.651, 187.534 351.208, 183.190 346.500 C 181.161 344.300, 180.152 343.063, 180.950 343.750 C 182.720 345.276, 196.430 345.425, 204.114 344.002 C 212.186 342.507, 221.422 338.888, 219.820 337.847 C 218.945 337.279, 219.511 337.039, 221.500 337.135 C 228.744 337.485, 244.194 328.620, 250.661 320.403 C 263.160 304.520, 267.163 284.130, 261.381 265.802 C 258.055 255.262, 251.381 241.927, 246.065 235.202 C 237.926 224.905, 223.085 215.648, 209.627 212.474 C 202.006 210.677, 183.599 210.690, 175.500 212.499 M 413.280 212.435 C 400.915 215.432, 387.066 223.683, 378.601 233.099 C 372.398 239.998, 367.332 249.273, 363.105 261.471 C 359.975 270.502, 359.625 272.594, 359.587 282.500 C 359.523 299.232, 363.863 310.958, 374.499 322.787 C 379.434 328.277, 390.350 335.416, 395.500 336.523 C 397.150 336.877, 400.572 338.247, 403.104 339.567 C 409.218 342.753, 420.257 344.985, 431.140 345.235 C 436.013 345.347, 440 345.477, 440 345.525 C 440 345.572, 438.865 347.150, 437.478 349.029 C 434.512 353.049, 432.634 359.271, 433.532 362.100 C 434.117 363.943, 434.500 363.794, 438.397 360.202 C 444.131 354.916, 449.983 351.642, 459.500 348.396 C 466.462 346.021, 469.122 345.658, 480 345.596 C 489.868 345.540, 493.322 345.893, 496.404 347.275 C 500.918 349.300, 501.657 349.036, 499.819 346.053 C 498.009 343.114, 490.391 338.404, 485.250 337.046 C 482.913 336.428, 481 335.675, 481 335.373 C 481 335.070, 483.033 332.500, 485.517 329.661 C 490.914 323.495, 496.999 311.961, 499.583 303 C 502.389 293.267, 502.213 274.106, 499.222 263.701 C 495.013 249.063, 487.455 237.338, 475.756 227.295 C 468.285 220.883, 455.355 214.395, 446.161 212.447 C 438.026 210.722, 420.373 210.716, 413.280 212.435 M 421.762 221.707 C 423.006 221.946, 424.806 221.937, 425.762 221.687 C 426.718 221.437, 425.700 221.241, 423.500 221.252 C 421.300 221.263, 420.518 221.468, 421.762 221.707 M 434.083 221.365 C 434.313 221.565, 436.975 221.985, 440 222.298 C 443.551 222.666, 444.614 222.572, 443 222.034 C 440.522 221.207, 433.282 220.664, 434.083 221.365 M 211.750 230.723 C 213.537 230.945, 216.463 230.945, 218.250 230.723 C 220.037 230.502, 218.575 230.320, 215 230.320 C 211.425 230.320, 209.963 230.502, 211.750 230.723 M 426.083 233.373 C 427.112 234.294, 433 236.999, 433 236.551 C 433 235.975, 427.456 233, 426.383 233 C 425.989 233, 425.854 233.168, 426.083 233.373 M 472.500 239 C 474.648 241.200, 476.631 243, 476.906 243 C 477.181 243, 475.648 241.200, 473.500 239 C 471.352 236.800, 469.369 235, 469.094 235 C 468.819 235, 470.352 236.800, 472.500 239 M 178.462 245.250 L 173.500 250.500 178.750 245.538 C 183.628 240.926, 184.459 240, 183.712 240 C 183.554 240, 181.192 242.363, 178.462 245.250 M 375.063 269.139 C 375.029 270.041, 375.788 271.637, 376.750 272.686 C 377.712 273.736, 378.181 274.099, 377.790 273.493 C 377.400 272.888, 376.641 271.292, 376.104 269.946 C 375.486 268.400, 375.103 268.103, 375.063 269.139 M 162.349 284 C 162.349 288.675, 162.522 290.587, 162.732 288.250 C 162.943 285.913, 162.943 282.087, 162.732 279.750 C 162.522 277.413, 162.349 279.325, 162.349 284 M 131.272 282 C 131.272 284.475, 131.467 285.488, 131.706 284.250 C 131.944 283.012, 131.944 280.988, 131.706 279.750 C 131.467 278.512, 131.272 279.525, 131.272 282 M 192.750 279.706 C 193.988 279.944, 196.012 279.944, 197.250 279.706 C 198.488 279.467, 197.475 279.272, 195 279.272 C 192.525 279.272, 191.512 279.467, 192.750 279.706 M 460.310 284.500 C 460.315 287.800, 460.502 289.029, 460.725 287.232 C 460.947 285.435, 460.943 282.735, 460.715 281.232 C 460.486 279.729, 460.304 281.200, 460.310 284.500 M 572.719 296 C 571.648 324.708, 568.461 342.987, 560.514 366 C 550.428 395.205, 537.547 416.269, 516.572 437.857 C 488.526 466.725, 451.277 486.611, 404 497.956 C 350.141 510.881, 277.046 510.996, 225.500 498.236 C 217.250 496.194, 210.041 494.563, 209.481 494.612 C 208.920 494.661, 192.045 504.941, 171.981 517.457 C 151.916 529.973, 133.705 541.129, 131.512 542.249 C 123.126 546.527, 111.726 543.886, 107.468 536.677 L 105.616 533.542 104.713 537.021 C 104.216 538.934, 103.972 543.734, 104.171 547.687 C 104.474 553.719, 105.016 555.567, 107.542 559.187 C 109.197 561.559, 112.115 564.287, 114.025 565.248 C 119.057 567.780, 127.554 567.554, 132.729 564.750 C 142.108 559.668, 145.735 557.533, 153.428 552.566 C 157.868 549.699, 164.650 545.409, 168.500 543.032 C 172.350 540.656, 176.639 537.936, 178.031 536.988 C 179.423 536.040, 182.413 534.320, 184.676 533.165 C 186.940 532.010, 189.423 530.434, 190.195 529.663 C 190.966 528.891, 192.926 527.572, 194.549 526.732 C 196.172 525.892, 199.975 523.538, 203 521.501 C 209.403 517.190, 209.464 517.191, 229.087 521.889 C 235.914 523.524, 247.800 525.583, 255.500 526.464 C 263.200 527.346, 272.650 528.526, 276.500 529.086 C 287.720 530.719, 322.276 531.314, 336.500 530.120 C 358.306 528.289, 371.076 526.950, 380.500 525.507 C 391.474 523.825, 419.137 517.508, 421.666 516.105 C 422.675 515.545, 426.200 514.353, 429.500 513.456 C 435.255 511.891, 445.017 508.075, 453.500 504.074 C 465.869 498.240, 468.778 496.815, 471.500 495.260 C 499.099 479.487, 524.092 457.176, 539.005 435 C 546.086 424.469, 546.426 423.903, 551.292 414.500 C 557.727 402.064, 560.781 395.130, 562.584 388.856 C 563.431 385.910, 564.793 382.037, 565.610 380.249 C 566.426 378.461, 568.182 371.936, 569.512 365.749 C 570.841 359.562, 572.382 352.700, 572.936 350.500 C 574.803 343.088, 576.222 315.827, 575.540 300.500 C 574.511 277.399, 573.475 275.746, 572.719 296 M 49.534 298.698 C 48.613 316.960, 51.158 350.425, 53.885 355.895 C 54.325 356.778, 55.256 360.875, 55.953 365 C 57.212 372.446, 64.620 396.488, 67.277 401.753 C 68.039 403.264, 70.168 407.650, 72.007 411.500 C 76.341 420.571, 84.412 434.419, 88.327 439.500 C 98.635 452.880, 111.748 466.680, 112.936 465.399 C 113.394 464.905, 114.183 460.504, 114.688 455.619 L 115.607 446.739 109.227 440.119 C 73.476 403.029, 55.291 358.647, 52.117 300.737 C 51.672 292.618, 51.065 285.732, 50.769 285.436 C 50.473 285.139, 49.917 291.108, 49.534 298.698 M 163.170 295.500 C 163.154 296.600, 163.527 298.400, 164 299.500 C 165.095 302.048, 165.095 299.419, 164 296 C 163.356 293.990, 163.194 293.892, 163.170 295.500 M 136 307.383 C 136 308.456, 138.975 314, 139.551 314 C 139.826 314, 139.308 312.538, 138.399 310.750 C 136.542 307.100, 136 306.339, 136 307.383 M 279 322 C 276.305 324.695, 276.483 328.570, 279.588 334.801 C 282.658 340.960, 288.428 346.260, 296 349.875 C 300.856 352.193, 302.730 352.500, 312 352.500 C 324.282 352.500, 328.936 350.865, 336.496 343.897 C 343.118 337.793, 346.196 332.156, 345.810 326.841 C 345.564 323.441, 344.964 322.264, 342.887 321.104 C 339.062 318.966, 334.465 321.061, 332.958 325.629 C 329.568 335.899, 317.763 341.641, 306.204 338.643 C 299.175 336.820, 294.365 333.308, 291.857 328.170 C 287.964 320.192, 283.128 317.872, 279 322 M 472.453 328.250 L 468.500 332.500 472.750 328.547 C 476.702 324.871, 477.460 324, 476.703 324 C 476.540 324, 474.627 325.913, 472.453 328.250 M 150 328.500 C 151.866 330.425, 153.617 332, 153.892 332 C 154.167 332, 152.866 330.425, 151 328.500 C 149.134 326.575, 147.383 325, 147.108 325 C 146.833 325, 148.134 326.575, 150 328.500" stroke="none" fill="#f25b7b" fill-rule="evenodd"/></svg>