<svg viewBox="0 0 192 192" xmlns="http://www.w3.org/2000/svg">
  <path fill="#000000" d="M141.537 88.988a66.667 66.667 0 0 0-2.518-1.143c-1.482-27.307-16.403-42.94-41.457-43.1h-.34c-14.986 0-27.449 6.396-35.12 18.036l13.779 9.452c5.73-8.695 14.724-10.548 21.348-10.548h.229c8.249.053 14.474 2.452 18.503 7.129 2.932 3.405 4.893 8.111 5.864 14.05-7.314-1.243-15.224-1.626-23.68-1.14-23.82 1.371-39.134 15.612-38.142 35.509.504 10.113 5.278 18.831 13.441 24.545 6.904 4.833 15.787 7.26 25.012 6.837 12.176-.559 21.716-5.154 28.362-13.673 5.05-6.477 8.217-14.878 9.509-25.252 5.698 3.437 9.944 8.003 12.33 13.349 4.06 9.100 4.302 24.049-8.679 37.024-11.39 11.39-25.093 16.322-45.924 16.483-23.097-.178-40.58-7.583-51.965-22.012-10.647-13.493-16.165-32.767-16.405-57.308.24-24.541 5.758-43.815 16.405-57.308 11.385-14.429 28.868-21.834 51.965-22.012 23.262.181 40.972 7.657 52.644 22.216 5.729 7.144 10.027 15.934 12.847 26.16l15.088-4.003c-3.373-12.27-8.729-22.904-16.076-31.773C142.461 10.673 120.631 1.337 93.742 1.122h-.073C66.815 1.336 45.171 10.71 30.661 31.028 14.933 52.952 6.915 84.31 6.637 123.389v.274c.278 39.079 8.296 70.437 24.024 92.361 14.51 20.318 36.154 29.692 63.008 29.906h.073c24.466-.192 43.124-6.714 57.097-19.968 18.093-17.18 19.011-40.176 13.064-53.514-4.276-9.582-12.583-17.297-24.366-22.458zm-41.28 47.23c-10.208.468-20.81-4.015-21.314-14.122-.373-7.503 5.31-15.872 24.03-16.951 2.104-.121 4.164-.181 6.182-.181 6.268 0 12.13.565 17.475 1.674-1.99 24.377-14.55 29.088-26.373 29.58z"/>
</svg>
